<?xml version="1.0" encoding="UTF-8"?>
<svg xmlns="http://www.w3.org/2000/svg" xmlns:xlink="http://www.w3.org/1999/xlink" width="294pt" height="78pt" viewBox="0 0 294 78">
<defs>
<g>
<g id="glyph-0-0">
<path d="M 2.84375 -1.0625 C 2.84375 -1.484375 2.59375 -1.890625 2.234375 -2.0625 L 1.421875 -2.46875 C 0.96875 -2.6875 0.84375 -2.828125 0.84375 -3.09375 C 0.84375 -3.4375 1.078125 -3.65625 1.453125 -3.65625 C 1.703125 -3.65625 1.9375 -3.546875 2.140625 -3.34375 C 2.328125 -3.140625 2.40625 -2.984375 2.515625 -2.625 L 2.671875 -2.625 L 2.671875 -3.828125 L 2.515625 -3.828125 C 2.46875 -3.671875 2.4375 -3.640625 2.328125 -3.640625 C 2.28125 -3.640625 2.21875 -3.65625 2.109375 -3.6875 C 1.84375 -3.78125 1.671875 -3.828125 1.453125 -3.828125 C 0.703125 -3.828125 0.25 -3.390625 0.25 -2.6875 C 0.25 -2.5625 0.265625 -2.4375 0.296875 -2.328125 C 0.421875 -2.03125 0.71875 -1.78125 1.1875 -1.546875 L 1.5625 -1.375 C 2.046875 -1.140625 2.171875 -1 2.171875 -0.703125 C 2.171875 -0.328125 1.90625 -0.078125 1.484375 -0.078125 C 1.15625 -0.078125 0.890625 -0.203125 0.6875 -0.46875 C 0.53125 -0.6875 0.453125 -0.875 0.359375 -1.265625 L 0.1875 -1.265625 L 0.1875 0.109375 L 0.359375 0.109375 C 0.390625 -0.03125 0.4375 -0.078125 0.515625 -0.078125 C 0.5625 -0.078125 0.625 -0.0625 0.75 -0.03125 C 1.015625 0.0625 1.21875 0.109375 1.46875 0.109375 C 2.28125 0.109375 2.84375 -0.359375 2.84375 -1.0625 Z M 2.84375 -1.0625 "/>
</g>
<g id="glyph-0-1">
<path d="M 3.515625 -2.625 L 3.5 -3.734375 L 0.1875 -3.734375 L 0.171875 -2.625 L 0.328125 -2.625 C 0.421875 -3.28125 0.71875 -3.546875 1.40625 -3.5625 L 1.40625 -0.640625 C 1.40625 -0.234375 1.34375 -0.171875 0.859375 -0.140625 L 0.859375 0 L 2.84375 0 L 2.84375 -0.140625 C 2.359375 -0.171875 2.296875 -0.234375 2.296875 -0.640625 L 2.296875 -3.5625 C 2.96875 -3.546875 3.265625 -3.28125 3.359375 -2.625 Z M 3.515625 -2.625 "/>
</g>
<g id="glyph-0-2">
<path d="M 4.109375 -1.859375 C 4.109375 -2.984375 3.28125 -3.828125 2.171875 -3.828125 C 1.015625 -3.828125 0.1875 -3 0.1875 -1.859375 C 0.1875 -0.703125 1 0.109375 2.15625 0.109375 C 3.296875 0.109375 4.109375 -0.71875 4.109375 -1.859375 Z M 3.125 -1.8125 C 3.125 -0.6875 2.78125 -0.078125 2.15625 -0.078125 C 1.515625 -0.078125 1.171875 -0.6875 1.171875 -1.796875 C 1.171875 -3 1.515625 -3.640625 2.171875 -3.640625 C 2.78125 -3.640625 3.125 -2.96875 3.125 -1.8125 Z M 3.125 -1.8125 "/>
</g>
<g id="glyph-0-3">
<path d="M 3.3125 -2.734375 C 3.3125 -3.375 2.796875 -3.734375 1.875 -3.734375 L 0.09375 -3.734375 L 0.09375 -3.59375 C 0.46875 -3.5625 0.546875 -3.484375 0.546875 -3.09375 L 0.546875 -0.640625 C 0.546875 -0.296875 0.484375 -0.1875 0.21875 -0.15625 C 0.203125 -0.15625 0.15625 -0.15625 0.09375 -0.140625 L 0.09375 0 L 1.9375 0 L 1.9375 -0.140625 C 1.5 -0.1875 1.453125 -0.25 1.453125 -0.640625 L 1.453125 -1.671875 C 2.203125 -1.6875 2.390625 -1.703125 2.625 -1.796875 C 3.078125 -1.96875 3.3125 -2.3125 3.3125 -2.734375 Z M 2.375 -2.703125 C 2.375 -2.359375 2.296875 -2.140625 2.15625 -2.015625 C 2.03125 -1.90625 1.84375 -1.875 1.453125 -1.875 L 1.453125 -3.359375 C 1.453125 -3.484375 1.546875 -3.546875 1.71875 -3.546875 C 2.1875 -3.546875 2.375 -3.296875 2.375 -2.703125 Z M 2.375 -2.703125 "/>
</g>
</g>
</defs>
<path fill-rule="nonzero" fill="rgb(94.898987%, 96.099854%, 97.999573%)" fill-opacity="1" d="M 2.757812 75.339844 L 2.757812 3.054688 L 291.898438 3.054688 L 291.898438 75.339844 Z M 2.757812 75.339844 "/>
<path fill="none" stroke-width="1.19553" stroke-linecap="butt" stroke-linejoin="miter" stroke="rgb(31.799316%, 51.799011%, 69.799805%)" stroke-opacity="1" stroke-miterlimit="10" d="M 0.0008125 -36.143844 L 289.141437 -36.143844 " transform="matrix(1, 0, 0, -1, 2.757, 39.196)"/>
<path fill="none" stroke-width="1.19553" stroke-linecap="butt" stroke-linejoin="miter" stroke="rgb(31.799316%, 51.799011%, 69.799805%)" stroke-opacity="1" stroke-miterlimit="10" d="M 0.0008125 36.141313 L 289.141437 36.141313 " transform="matrix(1, 0, 0, -1, 2.757, 39.196)"/>
<path fill="none" stroke-width="0.3985" stroke-linecap="butt" stroke-linejoin="miter" stroke="rgb(31.799316%, 51.799011%, 69.799805%)" stroke-opacity="1" stroke-dasharray="2.98883 2.98883" stroke-miterlimit="10" d="M 0.0008125 0.0006875 L 289.141437 0.0006875 " transform="matrix(1, 0, 0, -1, 2.757, 39.196)"/>
<path fill-rule="nonzero" fill="rgb(93.136597%, 57.450867%, 57.450867%)" fill-opacity="1" stroke-width="0.79701" stroke-linecap="butt" stroke-linejoin="miter" stroke="rgb(90.194702%, 39.216614%, 39.216614%)" stroke-opacity="1" stroke-miterlimit="10" d="M 53.008625 -4.819625 L 53.008625 8.434281 L 65.0555 8.434281 L 65.0555 -4.819625 Z M 53.008625 -4.819625 " transform="matrix(1, 0, 0, -1, 2.757, 39.196)"/>
<path fill-rule="nonzero" fill="rgb(93.136597%, 57.450867%, 57.450867%)" fill-opacity="1" stroke-width="0.79701" stroke-linecap="butt" stroke-linejoin="miter" stroke="rgb(90.194702%, 39.216614%, 39.216614%)" stroke-opacity="1" stroke-miterlimit="10" d="M 96.379719 -8.432906 L 96.379719 4.817094 L 108.426594 4.817094 L 108.426594 -8.432906 Z M 96.379719 -8.432906 " transform="matrix(1, 0, 0, -1, 2.757, 39.196)"/>
<path fill-rule="nonzero" fill="rgb(93.136597%, 57.450867%, 57.450867%)" fill-opacity="1" stroke-width="0.79701" stroke-linecap="butt" stroke-linejoin="miter" stroke="rgb(90.194702%, 39.216614%, 39.216614%)" stroke-opacity="1" stroke-miterlimit="10" d="M 139.750812 -2.409469 L 139.750812 10.844438 L 151.797687 10.844438 L 151.797687 -2.409469 Z M 139.750812 -2.409469 " transform="matrix(1, 0, 0, -1, 2.757, 39.196)"/>
<path fill-rule="nonzero" fill="rgb(93.136597%, 57.450867%, 57.450867%)" fill-opacity="1" stroke-width="0.79701" stroke-linecap="butt" stroke-linejoin="miter" stroke="rgb(90.194702%, 39.216614%, 39.216614%)" stroke-opacity="1" stroke-miterlimit="10" d="M 183.121906 -9.636031 L 183.121906 3.613969 L 195.168781 3.613969 L 195.168781 -9.636031 Z M 183.121906 -9.636031 " transform="matrix(1, 0, 0, -1, 2.757, 39.196)"/>
<path fill-rule="nonzero" fill="rgb(93.136597%, 57.450867%, 57.450867%)" fill-opacity="1" stroke-width="0.79701" stroke-linecap="butt" stroke-linejoin="miter" stroke="rgb(90.194702%, 39.216614%, 39.216614%)" stroke-opacity="1" stroke-miterlimit="10" d="M 226.493 -4.819625 L 226.493 8.434281 L 238.539875 8.434281 L 238.539875 -4.819625 Z M 226.493 -4.819625 " transform="matrix(1, 0, 0, -1, 2.757, 39.196)"/>
<path fill="none" stroke-width="1.19553" stroke-linecap="butt" stroke-linejoin="miter" stroke="rgb(31.799316%, 51.799011%, 69.799805%)" stroke-opacity="1" stroke-miterlimit="10" d="M 7.227375 2.410844 C 7.227375 2.410844 27.450031 7.6335 36.141437 9.637406 C 44.832844 11.645219 61.184406 20.543656 69.875812 16.867875 C 78.567219 13.188188 90.098469 -16.8665 98.789875 -16.8665 C 107.481281 -16.8665 124.496906 14.192094 132.520344 16.867875 C 140.547687 19.53975 156.618 2.410844 156.618 2.410844 " transform="matrix(1, 0, 0, -1, 2.757, 39.196)"/>
<path fill-rule="nonzero" fill="rgb(90.19928%, 39.199829%, 39.199829%)" fill-opacity="1" d="M 162.761719 36.785156 C 162.761719 34.914062 161.246094 33.398438 159.375 33.398438 C 157.503906 33.398438 155.988281 34.914062 155.988281 36.785156 C 155.988281 38.65625 157.503906 40.171875 159.375 40.171875 C 161.246094 40.171875 162.761719 38.65625 162.761719 36.785156 Z M 162.761719 36.785156 "/>
<g fill="rgb(90.19928%, 39.199829%, 39.199829%)" fill-opacity="1">
<use xlink:href="#glyph-0-0" x="152.20045" y="29.9231"/>
</g>
<g fill="rgb(90.19928%, 39.199829%, 39.199829%)" fill-opacity="1">
<use xlink:href="#glyph-0-1" x="155.195" y="29.9231"/>
<use xlink:href="#glyph-0-2" x="158.880175" y="29.9231"/>
<use xlink:href="#glyph-0-3" x="163.178625" y="29.9231"/>
</g>
<path fill="none" stroke-width="1.59404" stroke-linecap="butt" stroke-linejoin="miter" stroke="rgb(90.19928%, 39.199829%, 39.199829%)" stroke-opacity="1" stroke-miterlimit="10" d="M 149.387531 -4.819625 L 163.844562 9.637406 " transform="matrix(1, 0, 0, -1, 2.757, 39.196)"/>
<path fill="none" stroke-width="1.59404" stroke-linecap="butt" stroke-linejoin="miter" stroke="rgb(90.19928%, 39.199829%, 39.199829%)" stroke-opacity="1" stroke-miterlimit="10" d="M 149.387531 9.637406 L 163.844562 -4.819625 " transform="matrix(1, 0, 0, -1, 2.757, 39.196)"/>
<path fill-rule="nonzero" fill="rgb(31.765747%, 51.763916%, 69.802856%)" fill-opacity="1" stroke-width="0.3985" stroke-linecap="butt" stroke-linejoin="miter" stroke="rgb(31.765747%, 51.763916%, 69.802856%)" stroke-opacity="1" stroke-miterlimit="10" d="M 7.227375 -4.819625 L 7.227375 4.817094 L 21.684406 4.817094 L 21.684406 -4.819625 Z M 7.227375 -4.819625 " transform="matrix(1, 0, 0, -1, 2.757, 39.196)"/>
</svg>
