<?xml version="1.0" encoding="UTF-8"?>
<svg xmlns="http://www.w3.org/2000/svg" xmlns:xlink="http://www.w3.org/1999/xlink" width="527pt" height="251pt" viewBox="0 0 527 251">
<defs>
<g>
<g id="glyph-0-0">
<path d="M 3.578125 -2.078125 C 3.578125 -2.546875 3.578125 -4.328125 1.984375 -4.328125 C 0.390625 -4.328125 0.390625 -2.546875 0.390625 -2.078125 C 0.390625 -1.609375 0.390625 0.140625 1.984375 0.140625 C 3.578125 0.140625 3.578125 -1.609375 3.578125 -2.078125 Z M 1.984375 -0.078125 C 1.703125 -0.078125 1.265625 -0.203125 1.109375 -0.734375 C 1 -1.125 1 -1.75 1 -2.15625 C 1 -2.59375 1 -3.09375 1.09375 -3.4375 C 1.265625 -4.03125 1.75 -4.109375 1.984375 -4.109375 C 2.28125 -4.109375 2.703125 -3.96875 2.859375 -3.484375 C 2.953125 -3.140625 2.953125 -2.65625 2.953125 -2.15625 C 2.953125 -1.734375 2.953125 -1.078125 2.84375 -0.71875 C 2.671875 -0.15625 2.203125 -0.078125 1.984375 -0.078125 Z M 1.984375 -0.078125 "/>
</g>
<g id="glyph-0-1">
<path d="M 3.5 -1.21875 L 3.25 -1.21875 C 3.25 -1.125 3.171875 -0.703125 3.078125 -0.625 C 3.03125 -0.578125 2.515625 -0.578125 2.421875 -0.578125 L 1.203125 -0.578125 L 2.03125 -1.265625 C 2.25 -1.4375 2.828125 -1.859375 3.03125 -2.046875 C 3.234375 -2.25 3.5 -2.578125 3.5 -3.03125 C 3.5 -3.84375 2.765625 -4.328125 1.890625 -4.328125 C 1.046875 -4.328125 0.46875 -3.765625 0.46875 -3.15625 C 0.46875 -2.828125 0.75 -2.78125 0.8125 -2.78125 C 0.984375 -2.78125 1.171875 -2.90625 1.171875 -3.140625 C 1.171875 -3.28125 1.078125 -3.484375 0.796875 -3.484375 C 0.953125 -3.828125 1.34375 -4.0625 1.796875 -4.0625 C 2.46875 -4.0625 2.84375 -3.5625 2.84375 -3.03125 C 2.84375 -2.578125 2.53125 -2.09375 2.078125 -1.6875 L 0.546875 -0.265625 C 0.46875 -0.203125 0.46875 -0.203125 0.46875 0 L 3.296875 0 Z M 3.5 -1.21875 "/>
</g>
<g id="glyph-0-2">
<path d="M 3.671875 -1.0625 L 3.671875 -1.3125 L 2.90625 -1.3125 L 2.90625 -4.1875 C 2.90625 -4.34375 2.90625 -4.390625 2.75 -4.390625 C 2.625 -4.390625 2.609375 -4.375 2.546875 -4.296875 L 0.296875 -1.3125 L 0.296875 -1.0625 L 2.328125 -1.0625 L 2.328125 -0.546875 C 2.328125 -0.328125 2.328125 -0.25 1.78125 -0.25 L 1.59375 -0.25 L 1.59375 0 C 1.71875 0 2.328125 -0.03125 2.609375 -0.03125 C 2.90625 -0.03125 3.515625 0 3.640625 0 L 3.640625 -0.25 L 3.453125 -0.25 C 2.90625 -0.25 2.90625 -0.328125 2.90625 -0.546875 L 2.90625 -1.0625 Z M 2.359375 -3.671875 L 2.359375 -1.3125 L 0.578125 -1.3125 Z M 2.359375 -3.671875 "/>
</g>
<g id="glyph-0-3">
<path d="M 1.0625 -2.15625 C 1.0625 -2.46875 1.078125 -3.015625 1.3125 -3.421875 C 1.59375 -3.90625 2.015625 -4.109375 2.40625 -4.109375 C 2.5625 -4.109375 2.859375 -4.078125 3.015625 -3.90625 C 2.78125 -3.859375 2.734375 -3.6875 2.734375 -3.59375 C 2.734375 -3.421875 2.859375 -3.28125 3.046875 -3.28125 C 3.25 -3.28125 3.359375 -3.40625 3.359375 -3.59375 C 3.359375 -4 3.0625 -4.328125 2.40625 -4.328125 C 1.390625 -4.328125 0.40625 -3.4375 0.40625 -2.0625 C 0.40625 -0.484375 1.140625 0.140625 2 0.140625 C 2.25 0.140625 2.703125 0.09375 3.09375 -0.28125 C 3.296875 -0.5 3.5625 -0.75 3.5625 -1.328125 C 3.5625 -1.546875 3.53125 -1.96875 3.140625 -2.328125 C 2.90625 -2.546875 2.625 -2.765625 2.0625 -2.765625 C 1.609375 -2.765625 1.28125 -2.53125 1.0625 -2.15625 Z M 2 -0.09375 C 1.078125 -0.09375 1.078125 -1.21875 1.078125 -1.46875 C 1.078125 -2.03125 1.453125 -2.5625 2.03125 -2.5625 C 2.375 -2.5625 2.5625 -2.421875 2.71875 -2.21875 C 2.90625 -1.96875 2.90625 -1.671875 2.90625 -1.328125 C 2.90625 -0.875 2.890625 -0.65625 2.671875 -0.390625 C 2.515625 -0.203125 2.3125 -0.09375 2 -0.09375 Z M 2 -0.09375 "/>
</g>
<g id="glyph-0-4">
<path d="M 2.5 -2.34375 C 2.984375 -2.5625 3.34375 -2.875 3.34375 -3.34375 C 3.34375 -3.984375 2.671875 -4.328125 1.984375 -4.328125 C 1.25 -4.328125 0.625 -3.875 0.625 -3.21875 C 0.625 -2.828125 0.890625 -2.515625 1.15625 -2.34375 C 1.21875 -2.3125 1.375 -2.21875 1.4375 -2.1875 C 1.015625 -2.015625 0.40625 -1.65625 0.40625 -1 C 0.40625 -0.234375 1.21875 0.140625 1.96875 0.140625 C 2.84375 0.140625 3.5625 -0.390625 3.5625 -1.109375 C 3.5625 -1.546875 3.28125 -1.8125 3.1875 -1.921875 C 3.0625 -2.03125 2.734375 -2.21875 2.5 -2.34375 Z M 1.328125 -2.984375 C 1.3125 -3 0.984375 -3.171875 0.984375 -3.484375 C 0.984375 -3.90625 1.5 -4.109375 1.96875 -4.109375 C 2.484375 -4.109375 2.984375 -3.828125 2.984375 -3.34375 C 2.984375 -2.84375 2.4375 -2.578125 2.265625 -2.484375 Z M 1.703125 -2.046875 C 1.78125 -2.015625 2.46875 -1.625 2.640625 -1.53125 C 2.78125 -1.4375 3.140625 -1.25 3.140625 -0.875 C 3.140625 -0.359375 2.546875 -0.09375 1.984375 -0.09375 C 1.390625 -0.09375 0.828125 -0.453125 0.828125 -1 C 0.828125 -1.546875 1.34375 -1.921875 1.703125 -2.046875 Z M 1.703125 -2.046875 "/>
</g>
<g id="glyph-0-5">
<path d="M 2.328125 -4.125 C 2.328125 -4.328125 2.3125 -4.328125 2.109375 -4.328125 C 1.6875 -3.90625 1.015625 -3.90625 0.78125 -3.90625 L 0.78125 -3.65625 C 0.953125 -3.65625 1.390625 -3.65625 1.78125 -3.828125 L 1.78125 -0.546875 C 1.78125 -0.34375 1.78125 -0.25 1.109375 -0.25 L 0.828125 -0.25 L 0.828125 0 C 1.1875 -0.03125 1.6875 -0.03125 2.046875 -0.03125 C 2.421875 -0.03125 2.921875 -0.03125 3.28125 0 L 3.28125 -0.25 L 3 -0.25 C 2.328125 -0.25 2.328125 -0.34375 2.328125 -0.546875 Z M 2.328125 -4.125 "/>
</g>
<g id="glyph-1-0">
<path d="M 5.171875 -1.453125 C 5.28125 -1.453125 5.4375 -1.453125 5.4375 -1.625 C 5.4375 -1.796875 5.28125 -1.796875 5.171875 -1.796875 L 1.078125 -1.796875 C 0.96875 -1.796875 0.8125 -1.796875 0.8125 -1.625 C 0.8125 -1.453125 0.96875 -1.453125 1.078125 -1.453125 Z M 5.171875 -1.453125 "/>
</g>
<g id="glyph-2-0">
<path d="M 0.109375 -0.8125 L 0.15625 -0.765625 C 0.265625 -0.84375 0.40625 -0.953125 0.546875 -1.09375 C 0.703125 -1.21875 0.921875 -1.484375 1.25 -1.859375 L 1.25 0 L 1.203125 0.90625 L 1.28125 0.875 L 1.40625 0.828125 C 1.453125 0.8125 1.484375 0.796875 1.5 0.78125 C 1.53125 0.765625 1.546875 0.75 1.578125 0.71875 L 1.5625 0.15625 L 1.5625 -1.84375 L 1.671875 -1.921875 C 1.6875 -1.9375 1.703125 -1.9375 1.703125 -1.953125 C 1.703125 -1.953125 1.671875 -1.96875 1.625 -2 L 1.453125 -2.125 C 1.59375 -2.296875 1.75 -2.484375 1.921875 -2.71875 L 2.03125 -2.734375 C 2.09375 -2.75 2.125 -2.765625 2.125 -2.78125 C 2.125 -2.8125 2.09375 -2.828125 2.0625 -2.859375 L 1.671875 -3.140625 C 1.59375 -2.9375 1.484375 -2.75 1.375 -2.546875 C 1.265625 -2.34375 1.109375 -2.109375 0.921875 -1.84375 C 0.71875 -1.578125 0.5625 -1.359375 0.453125 -1.21875 L 0.203125 -0.921875 C 0.1875 -0.90625 0.15625 -0.859375 0.109375 -0.8125 Z M 1.796875 -3.78125 L 1.953125 -3.796875 C 2 -3.8125 2.03125 -3.8125 2.046875 -3.84375 C 2.046875 -3.84375 2.03125 -3.875 1.984375 -3.90625 L 1.625 -4.21875 C 1.53125 -4.078125 1.40625 -3.921875 1.25 -3.71875 C 1.09375 -3.53125 0.71875 -3.203125 0.109375 -2.734375 L 0.15625 -2.6875 C 0.296875 -2.75 0.484375 -2.859375 0.75 -3.03125 C 1 -3.203125 1.359375 -3.453125 1.796875 -3.78125 Z M 4.9375 -2.546875 L 4.640625 -2.21875 L 2.296875 -2.21875 L 1.828125 -2.25 L 2.046875 -2 C 2.21875 -2.0625 2.421875 -2.09375 2.671875 -2.09375 L 3.9375 -2.09375 L 3.9375 0.34375 C 3.9375 0.375 3.90625 0.40625 3.875 0.4375 C 3.828125 0.46875 3.546875 0.421875 3.046875 0.34375 L 3.015625 0.40625 C 3.296875 0.5 3.46875 0.59375 3.53125 0.65625 C 3.59375 0.734375 3.625 0.796875 3.640625 0.84375 C 3.640625 0.875 3.640625 0.921875 3.65625 0.953125 C 3.984375 0.859375 4.15625 0.765625 4.203125 0.6875 C 4.234375 0.609375 4.25 0.53125 4.25 0.453125 L 4.25 -2.09375 L 5.296875 -2.09375 C 5.328125 -2.09375 5.359375 -2.109375 5.359375 -2.125 C 5.375 -2.140625 5.359375 -2.171875 5.3125 -2.21875 Z M 4.578125 -3.9375 L 4.296875 -3.640625 L 2.625 -3.640625 L 2.21875 -3.65625 L 2.453125 -3.421875 C 2.625 -3.46875 2.828125 -3.515625 3.078125 -3.515625 L 4.921875 -3.515625 C 4.96875 -3.515625 4.984375 -3.515625 5 -3.53125 C 5 -3.546875 4.984375 -3.5625 4.953125 -3.59375 Z M 4.578125 -3.9375 "/>
</g>
<g id="glyph-2-1">
<path d="M 0.21875 0.671875 L 0.25 0.734375 C 1.203125 0.328125 1.8125 -0.125 2.078125 -0.609375 C 2.328125 -1.09375 2.5 -1.515625 2.5625 -1.875 C 2.625 -2.21875 2.65625 -2.46875 2.6875 -2.625 C 2.6875 -2.78125 2.71875 -2.921875 2.734375 -3.046875 L 2.765625 -2.796875 C 2.765625 -2.671875 2.796875 -2.5 2.84375 -2.265625 C 2.875 -2.046875 2.953125 -1.75 3.0625 -1.390625 C 3.15625 -1.03125 3.359375 -0.6875 3.65625 -0.34375 C 3.9375 0.015625 4.296875 0.328125 4.71875 0.609375 L 4.875 0.46875 C 4.90625 0.4375 4.953125 0.40625 5.03125 0.390625 C 5.109375 0.375 5.21875 0.359375 5.359375 0.375 L 5.359375 0.3125 C 5.0625 0.1875 4.734375 0.03125 4.40625 -0.171875 C 4.078125 -0.375 3.796875 -0.65625 3.546875 -1 C 3.296875 -1.359375 3.125 -1.75 3.03125 -2.1875 C 2.9375 -2.625 2.875 -2.9375 2.84375 -3.140625 C 2.828125 -3.34375 2.8125 -3.453125 2.8125 -3.515625 C 2.8125 -3.5625 2.828125 -3.625 2.828125 -3.71875 L 2.984375 -3.8125 C 3.03125 -3.84375 3.046875 -3.875 3.046875 -3.890625 C 3.03125 -3.890625 3.015625 -3.90625 2.984375 -3.921875 L 2.390625 -4.140625 L 2.40625 -3.546875 C 2.421875 -3.359375 2.40625 -3.109375 2.375 -2.8125 C 2.34375 -2.5 2.28125 -2.171875 2.203125 -1.828125 C 2.125 -1.46875 2 -1.15625 1.859375 -0.875 C 1.703125 -0.59375 1.546875 -0.359375 1.359375 -0.171875 C 1.15625 0.015625 0.96875 0.171875 0.765625 0.3125 C 0.578125 0.46875 0.390625 0.578125 0.21875 0.671875 Z M 0.21875 0.671875 "/>
</g>
<g id="glyph-3-0">
<path d="M 3.53125 -1.96875 C 3.53125 -2.328125 3.328125 -2.4375 3.203125 -2.4375 C 3.046875 -2.4375 2.890625 -2.265625 2.890625 -2.125 C 2.890625 -2.015625 2.953125 -1.953125 2.984375 -1.9375 C 3.046875 -1.890625 3.203125 -1.765625 3.203125 -1.515625 C 3.203125 -1.21875 2.78125 -0.125 2.140625 -0.125 C 1.84375 -0.125 1.59375 -0.234375 1.59375 -0.625 C 1.59375 -0.90625 1.75 -1.265625 1.90625 -1.671875 C 1.953125 -1.765625 1.984375 -1.859375 1.984375 -1.953125 C 1.984375 -2.21875 1.734375 -2.4375 1.390625 -2.4375 C 0.796875 -2.4375 0.5 -1.71875 0.5 -1.578125 C 0.5 -1.5 0.59375 -1.5 0.609375 -1.5 C 0.703125 -1.5 0.71875 -1.53125 0.75 -1.609375 C 0.859375 -1.984375 1.109375 -2.25 1.359375 -2.25 C 1.46875 -2.25 1.53125 -2.1875 1.53125 -2.03125 C 1.53125 -1.921875 1.5 -1.859375 1.4375 -1.703125 C 1.21875 -1.171875 1.140625 -0.90625 1.140625 -0.703125 C 1.140625 -0.171875 1.578125 0.0625 2.109375 0.0625 C 2.546875 0.0625 2.875 -0.265625 3.0625 -0.5625 C 3.46875 -1.15625 3.53125 -1.859375 3.53125 -1.96875 Z M 3.53125 -1.96875 "/>
</g>
<g id="glyph-3-1">
<path d="M 1.59375 -0.328125 C 1.59375 -0.515625 1.4375 -0.671875 1.265625 -0.671875 C 1.078125 -0.671875 0.921875 -0.515625 0.921875 -0.328125 C 0.921875 -0.15625 1.078125 0 1.265625 0 C 1.4375 0 1.59375 -0.15625 1.59375 -0.328125 Z M 1.59375 -0.328125 "/>
</g>
<g id="glyph-3-2">
<path d="M 1.484375 -0.078125 C 1.484375 0.453125 1.203125 0.75 1.046875 0.875 C 1 0.921875 0.984375 0.921875 0.984375 0.96875 C 0.984375 1 1.03125 1.0625 1.078125 1.0625 C 1.15625 1.0625 1.671875 0.640625 1.671875 -0.046875 C 1.671875 -0.421875 1.5 -0.671875 1.265625 -0.671875 C 1.046875 -0.671875 0.921875 -0.5 0.921875 -0.328125 C 0.921875 -0.15625 1.046875 0 1.265625 0 C 1.34375 0 1.421875 -0.015625 1.484375 -0.078125 Z M 1.484375 -0.078125 "/>
</g>
<g id="glyph-4-0">
<path d="M 4.90625 -1.875 C 4.984375 -1.875 5.109375 -1.875 5.109375 -2.03125 C 5.109375 -2.1875 4.953125 -2.1875 4.875 -2.1875 L 0.78125 -2.1875 C 0.6875 -2.1875 0.53125 -2.1875 0.53125 -2.03125 C 0.53125 -1.875 0.671875 -1.875 0.75 -1.875 Z M 4.875 -0.5625 C 4.953125 -0.5625 5.109375 -0.5625 5.109375 -0.71875 C 5.109375 -0.875 4.984375 -0.875 4.90625 -0.875 L 0.75 -0.875 C 0.671875 -0.875 0.53125 -0.875 0.53125 -0.71875 C 0.53125 -0.5625 0.6875 -0.5625 0.78125 -0.5625 Z M 4.875 -0.5625 "/>
</g>
<g id="glyph-4-1">
<path d="M 2.421875 -4 C 2.421875 -4 2.4375 -4.015625 2.4375 -4.046875 C 2.4375 -4.0625 2.4375 -4.125 2.34375 -4.125 C 2.234375 -4.125 0.828125 -3.25 0.828125 -1.375 C 0.828125 0.484375 2.234375 1.375 2.34375 1.375 C 2.4375 1.375 2.4375 1.3125 2.4375 1.296875 C 2.4375 1.265625 2.421875 1.25 2.390625 1.21875 C 1.421875 0.453125 1.25 -0.671875 1.25 -1.375 C 1.25 -2.71875 1.875 -3.609375 2.421875 -4 Z M 2.421875 -4 "/>
</g>
<g id="glyph-4-2">
<path d="M 2.984375 -1.21875 L 4.890625 -1.21875 C 4.96875 -1.21875 5.109375 -1.21875 5.109375 -1.375 C 5.109375 -1.53125 4.96875 -1.53125 4.890625 -1.53125 L 2.984375 -1.53125 L 2.984375 -3.4375 C 2.984375 -3.515625 2.984375 -3.671875 2.828125 -3.671875 C 2.671875 -3.671875 2.671875 -3.515625 2.671875 -3.4375 L 2.671875 -1.53125 L 0.75 -1.53125 C 0.6875 -1.53125 0.53125 -1.53125 0.53125 -1.375 C 0.53125 -1.21875 0.6875 -1.21875 0.75 -1.21875 L 2.671875 -1.21875 L 2.671875 0.6875 C 2.671875 0.765625 2.671875 0.921875 2.828125 0.921875 C 2.984375 0.921875 2.984375 0.765625 2.984375 0.6875 Z M 2.984375 -1.21875 "/>
</g>
<g id="glyph-4-3">
<path d="M 3.3125 -1.765625 C 3.3125 -2.15625 3.3125 -3.65625 1.875 -3.65625 C 0.4375 -3.65625 0.4375 -2.15625 0.4375 -1.765625 C 0.4375 -1.359375 0.4375 0.125 1.875 0.125 C 3.3125 0.125 3.3125 -1.359375 3.3125 -1.765625 Z M 1.875 -0.0625 C 1.671875 -0.0625 1.203125 -0.125 1.0625 -0.6875 C 0.984375 -0.984375 0.984375 -1.375 0.984375 -1.828125 C 0.984375 -2.234375 0.984375 -2.609375 1.078125 -2.921875 C 1.203125 -3.390625 1.640625 -3.484375 1.875 -3.484375 C 2.28125 -3.484375 2.5625 -3.265625 2.671875 -2.890625 C 2.75 -2.609375 2.75 -2.15625 2.75 -1.828125 C 2.75 -1.453125 2.75 -1 2.671875 -0.671875 C 2.53125 -0.140625 2.09375 -0.0625 1.875 -0.0625 Z M 1.875 -0.0625 "/>
</g>
<g id="glyph-4-4">
<path d="M 2.1875 -3.5 C 2.1875 -3.65625 2.171875 -3.65625 1.984375 -3.65625 C 1.59375 -3.3125 0.984375 -3.3125 0.875 -3.3125 L 0.78125 -3.3125 L 0.78125 -3.0625 L 0.875 -3.0625 C 1 -3.0625 1.359375 -3.078125 1.6875 -3.21875 L 1.6875 -0.46875 C 1.6875 -0.296875 1.6875 -0.234375 1.09375 -0.234375 L 0.828125 -0.234375 L 0.828125 0 C 1.125 -0.015625 1.609375 -0.015625 1.9375 -0.015625 C 2.25 -0.015625 2.75 -0.015625 3.046875 0 L 3.046875 -0.234375 L 2.765625 -0.234375 C 2.1875 -0.234375 2.1875 -0.296875 2.1875 -0.46875 Z M 2.1875 -3.5 "/>
</g>
<g id="glyph-4-5">
<path d="M 3.234375 -1.0625 L 3.015625 -1.0625 C 2.984375 -0.953125 2.9375 -0.609375 2.84375 -0.5625 C 2.8125 -0.53125 2.34375 -0.53125 2.265625 -0.53125 L 1.1875 -0.53125 C 1.546875 -0.796875 1.953125 -1.109375 2.28125 -1.328125 C 2.78125 -1.671875 3.234375 -1.984375 3.234375 -2.5625 C 3.234375 -3.265625 2.578125 -3.65625 1.78125 -3.65625 C 1.046875 -3.65625 0.5 -3.234375 0.5 -2.6875 C 0.5 -2.40625 0.75 -2.359375 0.8125 -2.359375 C 0.96875 -2.359375 1.140625 -2.453125 1.140625 -2.6875 C 1.140625 -2.875 1 -2.984375 0.828125 -3.015625 C 0.984375 -3.25 1.296875 -3.421875 1.671875 -3.421875 C 2.203125 -3.421875 2.65625 -3.109375 2.65625 -2.5625 C 2.65625 -2.09375 2.328125 -1.75 1.90625 -1.390625 L 0.5625 -0.25 C 0.515625 -0.203125 0.5 -0.203125 0.5 -0.171875 L 0.5 0 L 3.0625 0 Z M 3.234375 -1.0625 "/>
</g>
<g id="glyph-4-6">
<path d="M 2.15625 -1.375 C 2.15625 -3.234375 0.734375 -4.125 0.625 -4.125 C 0.53125 -4.125 0.53125 -4.0625 0.53125 -4.046875 C 0.53125 -4.046875 0.53125 -4.015625 0.578125 -3.96875 C 1.390625 -3.328125 1.734375 -2.359375 1.734375 -1.375 C 1.734375 -0.875 1.640625 -0.359375 1.453125 0.09375 C 1.1875 0.71875 0.84375 1.015625 0.5625 1.234375 C 0.546875 1.25 0.53125 1.28125 0.53125 1.296875 C 0.53125 1.3125 0.53125 1.375 0.625 1.375 C 0.734375 1.375 2.15625 0.5 2.15625 -1.375 Z M 2.15625 -1.375 "/>
</g>
<g id="glyph-5-0">
<path d="M 3.53125 -1.140625 L 3.375 -1.140625 C 3.203125 -0.78125 3.09375 -0.625 2.90625 -0.46875 C 2.65625 -0.265625 2.34375 -0.171875 1.921875 -0.171875 C 1.5625 -0.171875 1.46875 -0.234375 1.46875 -0.484375 L 1.46875 -1.8125 C 2.0625 -1.8125 2.28125 -1.59375 2.359375 -0.953125 L 2.5 -0.953125 L 2.5 -2.8125 L 2.359375 -2.8125 C 2.265625 -2.1875 2.0625 -1.984375 1.46875 -2 L 1.46875 -3.265625 C 1.46875 -3.484375 1.53125 -3.53125 1.828125 -3.53125 C 2.71875 -3.53125 2.984375 -3.34375 3.125 -2.609375 L 3.265625 -2.609375 L 3.265625 -3.71875 L 0.09375 -3.71875 L 0.09375 -3.578125 C 0.46875 -3.5625 0.578125 -3.46875 0.578125 -3.1875 L 0.578125 -0.53125 C 0.578125 -0.234375 0.5 -0.1875 0.09375 -0.140625 L 0.09375 0 L 3.3125 0 Z M 3.53125 -1.140625 "/>
</g>
<g id="glyph-5-1">
<path d="M 4.15625 -1.4375 L 4.15625 -1.578125 L 2.265625 -1.578125 L 2.265625 -1.4375 C 2.734375 -1.40625 2.828125 -1.359375 2.828125 -1.0625 L 2.828125 -0.484375 C 2.828125 -0.203125 2.65625 -0.078125 2.296875 -0.078125 C 1.953125 -0.078125 1.71875 -0.1875 1.53125 -0.421875 C 1.296875 -0.71875 1.171875 -1.203125 1.171875 -1.859375 C 1.171875 -3.015625 1.53125 -3.625 2.1875 -3.625 C 2.4375 -3.625 2.671875 -3.515625 2.921875 -3.3125 C 3.15625 -3.109375 3.28125 -2.921875 3.46875 -2.5 L 3.609375 -2.5 L 3.609375 -3.78125 L 3.46875 -3.78125 C 3.390625 -3.59375 3.328125 -3.53125 3.21875 -3.53125 C 3.171875 -3.53125 3.09375 -3.546875 2.96875 -3.609375 C 2.640625 -3.734375 2.375 -3.796875 2.125 -3.796875 C 1.015625 -3.796875 0.203125 -2.953125 0.203125 -1.828125 C 0.203125 -0.6875 1 0.109375 2.15625 0.109375 C 2.734375 0.109375 3.328125 -0.03125 3.671875 -0.234375 L 3.671875 -0.9375 C 3.671875 -1.328125 3.734375 -1.390625 4.15625 -1.4375 Z M 4.15625 -1.4375 "/>
</g>
<g id="glyph-5-2">
<path d="M 4.09375 -1.84375 C 4.09375 -2.96875 3.265625 -3.796875 2.15625 -3.796875 C 1.015625 -3.796875 0.1875 -2.984375 0.1875 -1.84375 C 0.1875 -0.703125 1 0.109375 2.140625 0.109375 C 3.28125 0.109375 4.09375 -0.703125 4.09375 -1.84375 Z M 3.109375 -1.8125 C 3.109375 -0.6875 2.765625 -0.078125 2.140625 -0.078125 C 1.5 -0.078125 1.171875 -0.6875 1.171875 -1.796875 C 1.171875 -2.984375 1.515625 -3.625 2.15625 -3.625 C 2.765625 -3.625 3.109375 -2.953125 3.109375 -1.8125 Z M 3.109375 -1.8125 "/>
</g>
<g id="glyph-6-0">
<path d="M 3.234375 -2.8125 C 3.03125 -2.78125 2.921875 -2.625 2.921875 -2.46875 C 2.921875 -2.296875 3.0625 -2.234375 3.171875 -2.234375 C 3.234375 -2.234375 3.53125 -2.265625 3.53125 -2.65625 C 3.53125 -3.140625 2.984375 -3.3125 2.53125 -3.3125 C 1.359375 -3.3125 1.140625 -2.4375 1.140625 -2.21875 C 1.140625 -1.9375 1.3125 -1.75 1.40625 -1.671875 C 1.609375 -1.515625 1.734375 -1.484375 2.25 -1.390625 C 2.421875 -1.359375 2.890625 -1.28125 2.890625 -0.90625 C 2.890625 -0.765625 2.8125 -0.484375 2.5 -0.296875 C 2.203125 -0.140625 1.84375 -0.140625 1.75 -0.140625 C 1.453125 -0.140625 1.015625 -0.203125 0.84375 -0.453125 C 1.09375 -0.484375 1.265625 -0.671875 1.265625 -0.875 C 1.265625 -1.0625 1.125 -1.15625 0.96875 -1.15625 C 0.75 -1.15625 0.53125 -0.984375 0.53125 -0.65625 C 0.53125 -0.203125 1.015625 0.078125 1.734375 0.078125 C 3.125 0.078125 3.375 -0.875 3.375 -1.15625 C 3.375 -1.859375 2.625 -1.984375 2.34375 -2.046875 C 2.265625 -2.0625 2.078125 -2.078125 2.046875 -2.09375 C 1.765625 -2.15625 1.625 -2.3125 1.625 -2.46875 C 1.625 -2.640625 1.765625 -2.84375 1.921875 -2.953125 C 2.125 -3.078125 2.390625 -3.09375 2.515625 -3.09375 C 2.671875 -3.09375 3.0625 -3.078125 3.234375 -2.8125 Z M 3.234375 -2.8125 "/>
</g>
<g id="glyph-7-0">
<path d="M 2.28125 1.203125 C 1.6875 0.734375 1.46875 0.46875 1.265625 -0.09375 C 1.09375 -0.59375 1 -1.15625 1 -1.90625 C 1 -2.703125 1.109375 -3.3125 1.3125 -3.78125 C 1.515625 -4.25 1.734375 -4.515625 2.28125 -4.953125 L 2.21875 -5.0625 C 1.65625 -4.703125 1.4375 -4.515625 1.15625 -4.171875 C 0.625 -3.515625 0.359375 -2.765625 0.359375 -1.890625 C 0.359375 -0.9375 0.640625 -0.203125 1.296875 0.5625 C 1.609375 0.921875 1.796875 1.09375 2.1875 1.328125 Z M 2.28125 1.203125 "/>
</g>
<g id="glyph-7-1">
<path d="M 5.8125 0 L 5.8125 -0.109375 L 5.625 -0.125 C 5.390625 -0.140625 5.296875 -0.28125 5.296875 -0.5625 L 5.296875 -2.109375 C 5.296875 -3 5 -3.453125 4.421875 -3.453125 C 3.984375 -3.453125 3.609375 -3.25 3.203125 -2.8125 C 3.0625 -3.25 2.8125 -3.453125 2.40625 -3.453125 C 2.078125 -3.453125 1.875 -3.34375 1.25 -2.875 L 1.25 -3.4375 L 1.1875 -3.453125 C 0.8125 -3.3125 0.5625 -3.21875 0.140625 -3.109375 L 0.140625 -2.984375 C 0.234375 -3 0.296875 -3.015625 0.375 -3.015625 C 0.578125 -3.015625 0.640625 -2.890625 0.640625 -2.53125 L 0.640625 -0.640625 C 0.640625 -0.234375 0.546875 -0.125 0.125 -0.109375 L 0.125 0 L 1.78125 0 L 1.78125 -0.109375 C 1.390625 -0.125 1.28125 -0.203125 1.28125 -0.5 L 1.28125 -2.625 C 1.28125 -2.625 1.328125 -2.703125 1.390625 -2.765625 C 1.578125 -2.9375 1.890625 -3.0625 2.15625 -3.0625 C 2.484375 -3.0625 2.65625 -2.796875 2.65625 -2.265625 L 2.65625 -0.640625 C 2.65625 -0.21875 2.578125 -0.140625 2.140625 -0.109375 L 2.140625 0 L 3.828125 0 L 3.828125 -0.109375 C 3.390625 -0.125 3.28125 -0.25 3.28125 -0.71875 L 3.28125 -2.609375 C 3.515625 -2.921875 3.75 -3.0625 4.109375 -3.0625 C 4.53125 -3.0625 4.671875 -2.859375 4.671875 -2.234375 L 4.671875 -0.65625 C 4.671875 -0.21875 4.609375 -0.171875 4.171875 -0.109375 L 4.171875 0 Z M 5.8125 0 "/>
</g>
<g id="glyph-7-2">
<path d="M 2.140625 -1.859375 C 2.140625 -2.8125 1.859375 -3.546875 1.203125 -4.3125 C 0.890625 -4.671875 0.703125 -4.828125 0.3125 -5.0625 L 0.21875 -4.953125 C 0.8125 -4.484375 1.015625 -4.21875 1.234375 -3.65625 C 1.40625 -3.15625 1.5 -2.578125 1.5 -1.828125 C 1.5 -1.046875 1.390625 -0.421875 1.1875 0.03125 C 0.984375 0.5 0.75 0.765625 0.21875 1.203125 L 0.28125 1.328125 C 0.84375 0.96875 1.0625 0.765625 1.34375 0.421875 C 1.875 -0.21875 2.140625 -0.96875 2.140625 -1.859375 Z M 2.140625 -1.859375 "/>
</g>
<g id="glyph-8-0">
<path d="M -4.984375 -2.109375 C -5 -2.125 -5.09375 -2.140625 -5.09375 -2.140625 C -5.140625 -2.140625 -5.203125 -2.109375 -5.203125 -2.03125 C -5.203125 -1.875 -5.140625 -1.25 -5.125 -1.0625 C -5.125 -1.015625 -5.109375 -0.90625 -4.953125 -0.90625 C -4.859375 -0.90625 -4.859375 -1.015625 -4.859375 -1.09375 C -4.859375 -1.453125 -4.796875 -1.453125 -4.734375 -1.453125 C -4.6875 -1.453125 -4.640625 -1.4375 -4.578125 -1.421875 L -0.875 -0.5 C -0.796875 -0.46875 -0.71875 -0.46875 -0.640625 -0.46875 C -0.15625 -0.46875 0.078125 -0.890625 0.078125 -1.25 C 0.078125 -1.4375 0.015625 -1.65625 -0.328125 -1.859375 C -0.59375 -2.015625 -1.046875 -2.109375 -1.078125 -2.109375 C -1.171875 -2.109375 -1.171875 -2.015625 -1.171875 -2 C -1.171875 -1.890625 -1.125 -1.875 -0.984375 -1.84375 C -0.609375 -1.75 -0.140625 -1.609375 -0.140625 -1.28125 C -0.140625 -1.078125 -0.328125 -1.03125 -0.5 -1.03125 C -0.578125 -1.03125 -0.734375 -1.046875 -0.8125 -1.078125 Z M -4.984375 -2.109375 "/>
</g>
<g id="glyph-9-0">
<path d="M 1.203125 -2.28125 C 0.734375 -1.6875 0.46875 -1.46875 -0.09375 -1.265625 C -0.59375 -1.09375 -1.15625 -1 -1.90625 -1 C -2.703125 -1 -3.3125 -1.109375 -3.78125 -1.3125 C -4.25 -1.515625 -4.515625 -1.734375 -4.953125 -2.28125 L -5.0625 -2.21875 C -4.703125 -1.65625 -4.515625 -1.4375 -4.171875 -1.15625 C -3.515625 -0.625 -2.765625 -0.359375 -1.890625 -0.359375 C -0.9375 -0.359375 -0.203125 -0.640625 0.5625 -1.296875 C 0.921875 -1.609375 1.09375 -1.796875 1.328125 -2.1875 Z M 1.203125 -2.28125 "/>
</g>
<g id="glyph-9-1">
<path d="M 0 -5.8125 L -0.109375 -5.8125 L -0.125 -5.625 C -0.140625 -5.390625 -0.28125 -5.296875 -0.5625 -5.296875 L -2.109375 -5.296875 C -3 -5.296875 -3.453125 -5 -3.453125 -4.421875 C -3.453125 -3.984375 -3.25 -3.609375 -2.8125 -3.203125 C -3.25 -3.0625 -3.453125 -2.8125 -3.453125 -2.40625 C -3.453125 -2.078125 -3.34375 -1.875 -2.875 -1.25 L -3.4375 -1.25 L -3.453125 -1.1875 C -3.3125 -0.8125 -3.21875 -0.5625 -3.109375 -0.140625 L -2.984375 -0.140625 C -3 -0.234375 -3.015625 -0.296875 -3.015625 -0.375 C -3.015625 -0.578125 -2.890625 -0.640625 -2.53125 -0.640625 L -0.640625 -0.640625 C -0.234375 -0.640625 -0.125 -0.546875 -0.109375 -0.125 L 0 -0.125 L 0 -1.78125 L -0.109375 -1.78125 C -0.125 -1.390625 -0.203125 -1.28125 -0.5 -1.28125 L -2.625 -1.28125 C -2.625 -1.28125 -2.703125 -1.328125 -2.765625 -1.390625 C -2.9375 -1.578125 -3.0625 -1.890625 -3.0625 -2.15625 C -3.0625 -2.484375 -2.796875 -2.65625 -2.265625 -2.65625 L -0.640625 -2.65625 C -0.21875 -2.65625 -0.140625 -2.578125 -0.109375 -2.140625 L 0 -2.140625 L 0 -3.828125 L -0.109375 -3.828125 C -0.125 -3.390625 -0.25 -3.28125 -0.71875 -3.28125 L -2.609375 -3.28125 C -2.921875 -3.515625 -3.0625 -3.75 -3.0625 -4.109375 C -3.0625 -4.53125 -2.859375 -4.671875 -2.234375 -4.671875 L -0.65625 -4.671875 C -0.21875 -4.671875 -0.171875 -4.609375 -0.109375 -4.171875 L 0 -4.171875 Z M 0 -5.8125 "/>
</g>
<g id="glyph-9-2">
<path d="M -1.859375 -2.140625 C -2.8125 -2.140625 -3.546875 -1.859375 -4.3125 -1.203125 C -4.671875 -0.890625 -4.828125 -0.703125 -5.0625 -0.3125 L -4.953125 -0.21875 C -4.484375 -0.8125 -4.21875 -1.015625 -3.65625 -1.234375 C -3.15625 -1.40625 -2.578125 -1.5 -1.828125 -1.5 C -1.046875 -1.5 -0.421875 -1.390625 0.03125 -1.1875 C 0.5 -0.984375 0.765625 -0.75 1.203125 -0.21875 L 1.328125 -0.28125 C 0.96875 -0.84375 0.765625 -1.0625 0.421875 -1.34375 C -0.21875 -1.875 -0.96875 -2.140625 -1.859375 -2.140625 Z M -1.859375 -2.140625 "/>
</g>
<g id="glyph-10-0">
<path d="M 3.859375 -1.171875 C 3.859375 -1.453125 3.734375 -1.71875 3.53125 -1.90625 C 3.34375 -2.078125 3.171875 -2.15625 2.75 -2.265625 C 3.078125 -2.34375 3.21875 -2.40625 3.375 -2.546875 C 3.53125 -2.6875 3.640625 -2.9375 3.640625 -3.203125 C 3.640625 -3.921875 3.0625 -4.296875 1.9375 -4.296875 L 0.109375 -4.296875 L 0.109375 -4.171875 C 0.65625 -4.140625 0.734375 -4.078125 0.734375 -3.59375 L 0.734375 -0.703125 C 0.734375 -0.234375 0.65625 -0.140625 0.109375 -0.125 L 0.109375 0 L 2.28125 0 C 2.78125 0 3.25 -0.140625 3.484375 -0.359375 C 3.71875 -0.5625 3.859375 -0.859375 3.859375 -1.171875 Z M 3.109375 -1.15625 C 3.109375 -0.8125 2.96875 -0.5625 2.703125 -0.40625 C 2.5 -0.296875 2.234375 -0.234375 1.8125 -0.234375 C 1.484375 -0.234375 1.390625 -0.296875 1.390625 -0.5 L 1.390625 -2.125 C 2.03125 -2.125 2.328125 -2.09375 2.5625 -1.984375 C 2.9375 -1.828125 3.109375 -1.578125 3.109375 -1.15625 Z M 2.96875 -3.171875 C 2.96875 -2.671875 2.625 -2.375 2.015625 -2.375 L 1.390625 -2.375 L 1.390625 -3.875 C 1.390625 -4 1.4375 -4.0625 1.546875 -4.0625 L 1.828125 -4.0625 C 2.578125 -4.0625 2.96875 -3.75 2.96875 -3.171875 Z M 2.96875 -3.171875 "/>
</g>
<g id="glyph-10-1">
<path d="M 2.875 -0.265625 L 2.875 -0.421875 C 2.765625 -0.34375 2.6875 -0.3125 2.59375 -0.3125 C 2.4375 -0.3125 2.390625 -0.390625 2.390625 -0.6875 L 2.390625 -1.953125 C 2.390625 -2.28125 2.359375 -2.46875 2.265625 -2.609375 C 2.125 -2.859375 1.859375 -2.984375 1.453125 -2.984375 C 1.125 -2.984375 0.8125 -2.90625 0.625 -2.75 C 0.46875 -2.609375 0.359375 -2.421875 0.359375 -2.265625 C 0.359375 -2.109375 0.484375 -1.984375 0.640625 -1.984375 C 0.796875 -1.984375 0.9375 -2.109375 0.9375 -2.25 C 0.9375 -2.28125 0.921875 -2.3125 0.921875 -2.359375 C 0.90625 -2.421875 0.90625 -2.46875 0.90625 -2.515625 C 0.90625 -2.6875 1.109375 -2.828125 1.375 -2.828125 C 1.6875 -2.828125 1.859375 -2.640625 1.859375 -2.296875 L 1.859375 -1.890625 C 0.859375 -1.5 0.75 -1.4375 0.46875 -1.203125 C 0.328125 -1.0625 0.234375 -0.84375 0.234375 -0.625 C 0.234375 -0.21875 0.515625 0.0625 0.921875 0.0625 C 1.203125 0.0625 1.46875 -0.078125 1.875 -0.40625 C 1.90625 -0.0625 2.015625 0.0625 2.28125 0.0625 C 2.515625 0.0625 2.640625 -0.015625 2.875 -0.265625 Z M 1.859375 -0.796875 C 1.859375 -0.59375 1.828125 -0.546875 1.703125 -0.453125 C 1.546875 -0.359375 1.359375 -0.3125 1.21875 -0.3125 C 1 -0.3125 0.8125 -0.53125 0.8125 -0.8125 L 0.8125 -0.84375 C 0.8125 -1.21875 1.078125 -1.453125 1.859375 -1.734375 Z M 1.859375 -0.796875 "/>
</g>
<g id="glyph-10-2">
<path d="M 2.265625 -0.765625 C 2.265625 -1.09375 2.109375 -1.3125 1.71875 -1.546875 L 1.015625 -1.953125 C 0.828125 -2.0625 0.734375 -2.21875 0.734375 -2.40625 C 0.734375 -2.671875 0.9375 -2.84375 1.234375 -2.84375 C 1.609375 -2.84375 1.796875 -2.625 1.953125 -2.046875 L 2.046875 -2.046875 L 2.015625 -2.921875 L 1.953125 -2.921875 L 1.9375 -2.90625 C 1.875 -2.859375 1.875 -2.859375 1.84375 -2.859375 C 1.8125 -2.859375 1.734375 -2.875 1.671875 -2.90625 C 1.53125 -2.953125 1.390625 -2.984375 1.234375 -2.984375 C 0.703125 -2.984375 0.328125 -2.65625 0.328125 -2.1875 C 0.328125 -1.8125 0.546875 -1.5625 1.09375 -1.25 L 1.46875 -1.03125 C 1.703125 -0.90625 1.8125 -0.75 1.8125 -0.546875 C 1.8125 -0.265625 1.59375 -0.078125 1.265625 -0.078125 C 0.8125 -0.078125 0.59375 -0.328125 0.4375 -0.984375 L 0.34375 -0.984375 L 0.34375 0.03125 L 0.421875 0.03125 C 0.46875 -0.03125 0.5 -0.046875 0.578125 -0.046875 C 0.640625 -0.046875 0.71875 -0.03125 0.875 0 C 1.046875 0.03125 1.21875 0.0625 1.359375 0.0625 C 1.84375 0.0625 2.265625 -0.3125 2.265625 -0.765625 Z M 2.265625 -0.765625 "/>
</g>
<g id="glyph-10-3">
<path d="M 2.75 -1.015625 L 2.65625 -1.0625 C 2.34375 -0.578125 2.0625 -0.390625 1.640625 -0.390625 C 1.28125 -0.390625 1.015625 -0.546875 0.828125 -0.90625 C 0.703125 -1.15625 0.640625 -1.390625 0.625 -1.796875 L 2.625 -1.796875 C 2.578125 -2.21875 2.515625 -2.40625 2.359375 -2.625 C 2.15625 -2.859375 1.859375 -2.984375 1.515625 -2.984375 C 0.71875 -2.984375 0.15625 -2.34375 0.15625 -1.390625 C 0.15625 -0.5 0.625 0.0625 1.375 0.0625 C 2 0.0625 2.484375 -0.3125 2.75 -1.015625 Z M 1.96875 -2.015625 L 0.640625 -2.015625 C 0.71875 -2.515625 0.9375 -2.75 1.328125 -2.75 C 1.734375 -2.75 1.890625 -2.578125 1.96875 -2.015625 Z M 1.96875 -2.015625 "/>
</g>
<g id="glyph-10-4">
<path d="M 1.671875 0 L 1.671875 -0.09375 C 1.25 -0.125 1.1875 -0.1875 1.1875 -0.546875 L 1.1875 -4.421875 L 1.15625 -4.4375 C 0.8125 -4.328125 0.578125 -4.265625 0.125 -4.15625 L 0.125 -4.046875 L 0.15625 -4.046875 C 0.234375 -4.0625 0.3125 -4.0625 0.359375 -4.0625 C 0.578125 -4.0625 0.640625 -3.96875 0.640625 -3.671875 L 0.640625 -0.5625 C 0.640625 -0.21875 0.546875 -0.125 0.140625 -0.09375 L 0.140625 0 Z M 1.671875 0 "/>
</g>
<g id="glyph-10-5">
<path d="M 1.640625 0 L 1.640625 -0.09375 C 1.21875 -0.125 1.15625 -0.1875 1.15625 -0.65625 L 1.15625 -2.96875 L 1.140625 -2.984375 L 0.125 -2.625 L 0.125 -2.53125 L 0.1875 -2.546875 C 0.265625 -2.546875 0.34375 -2.5625 0.40625 -2.5625 C 0.5625 -2.5625 0.625 -2.453125 0.625 -2.171875 L 0.625 -0.65625 C 0.625 -0.1875 0.546875 -0.125 0.109375 -0.09375 L 0.109375 0 Z M 1.21875 -3.828125 C 1.21875 -4.015625 1.078125 -4.171875 0.890625 -4.171875 C 0.703125 -4.171875 0.5625 -4.015625 0.5625 -3.828125 C 0.5625 -3.640625 0.703125 -3.5 0.890625 -3.5 C 1.078125 -3.5 1.21875 -3.640625 1.21875 -3.828125 Z M 1.21875 -3.828125 "/>
</g>
<g id="glyph-10-6">
<path d="M 3.15625 0 L 3.15625 -0.09375 C 2.828125 -0.125 2.75 -0.203125 2.75 -0.53125 L 2.75 -2.015625 C 2.75 -2.625 2.46875 -2.984375 1.984375 -2.984375 C 1.6875 -2.984375 1.484375 -2.875 1.046875 -2.46875 L 1.046875 -2.984375 L 1 -2.984375 C 0.6875 -2.875 0.46875 -2.796875 0.109375 -2.703125 L 0.109375 -2.59375 C 0.140625 -2.609375 0.203125 -2.609375 0.28125 -2.609375 C 0.46875 -2.609375 0.515625 -2.515625 0.515625 -2.203125 L 0.515625 -0.578125 C 0.515625 -0.21875 0.453125 -0.125 0.109375 -0.09375 L 0.109375 0 L 1.5 0 L 1.5 -0.09375 C 1.15625 -0.125 1.0625 -0.203125 1.0625 -0.4375 L 1.0625 -2.265625 C 1.375 -2.546875 1.515625 -2.625 1.734375 -2.625 C 2.046875 -2.625 2.203125 -2.4375 2.203125 -2 L 2.203125 -0.640625 C 2.203125 -0.234375 2.125 -0.125 1.796875 -0.09375 L 1.796875 0 Z M 3.15625 0 "/>
</g>
<g id="glyph-10-7">
<path d="M 4.609375 -2.1875 L 4.609375 -2.296875 L 2.953125 -2.296875 L 2.953125 -2.1875 C 3.234375 -2.171875 3.3125 -2.140625 3.390625 -2.09375 C 3.484375 -2.03125 3.515625 -1.890625 3.515625 -1.609375 L 3.515625 -0.546875 C 3.515625 -0.34375 3.125 -0.171875 2.65625 -0.171875 C 1.59375 -0.171875 0.953125 -0.90625 0.953125 -2.125 C 0.953125 -2.734375 1.125 -3.328125 1.421875 -3.640625 C 1.703125 -3.953125 2.109375 -4.140625 2.546875 -4.140625 C 2.90625 -4.140625 3.234375 -4.015625 3.484375 -3.78125 C 3.671875 -3.59375 3.78125 -3.421875 3.953125 -3.015625 L 4.09375 -3.015625 L 4.046875 -4.390625 L 3.90625 -4.390625 C 3.859375 -4.265625 3.75 -4.171875 3.609375 -4.171875 C 3.546875 -4.171875 3.4375 -4.203125 3.328125 -4.25 C 3.03125 -4.34375 2.734375 -4.390625 2.4375 -4.390625 C 1.140625 -4.390625 0.203125 -3.4375 0.203125 -2.109375 C 0.203125 -1.46875 0.390625 -0.984375 0.75 -0.609375 C 1.1875 -0.15625 1.8125 0.09375 2.515625 0.09375 C 3.078125 0.09375 3.890625 -0.140625 4.15625 -0.359375 L 4.15625 -1.6875 C 4.15625 -2.0625 4.234375 -2.15625 4.609375 -2.1875 Z M 4.609375 -2.1875 "/>
</g>
<g id="glyph-10-8">
<path d="M 3.859375 -3.203125 L 3.8125 -4.296875 L 0.15625 -4.296875 L 0.109375 -3.203125 L 0.265625 -3.203125 C 0.421875 -3.90625 0.578125 -4.03125 1.296875 -4.03125 L 1.65625 -4.03125 L 1.65625 -0.78125 C 1.65625 -0.234375 1.578125 -0.15625 1.046875 -0.125 L 1.046875 0 L 2.9375 0 L 2.9375 -0.125 C 2.40625 -0.15625 2.3125 -0.234375 2.3125 -0.703125 L 2.3125 -4.03125 L 2.671875 -4.03125 C 3.40625 -4.03125 3.546875 -3.90625 3.703125 -3.203125 Z M 3.859375 -3.203125 "/>
</g>
<g id="glyph-10-9">
<path d="M 4.46875 -2.125 C 4.46875 -2.765625 4.28125 -3.328125 3.921875 -3.71875 C 3.515625 -4.15625 2.96875 -4.390625 2.34375 -4.390625 C 1.109375 -4.390625 0.21875 -3.453125 0.21875 -2.15625 C 0.21875 -1.546875 0.421875 -0.953125 0.78125 -0.578125 C 1.15625 -0.15625 1.734375 0.09375 2.3125 0.09375 C 3.59375 0.09375 4.46875 -0.8125 4.46875 -2.125 Z M 3.734375 -2.125 C 3.734375 -1.75 3.640625 -1.296875 3.515625 -0.96875 C 3.453125 -0.796875 3.34375 -0.640625 3.203125 -0.484375 C 2.96875 -0.265625 2.671875 -0.140625 2.328125 -0.140625 C 2.03125 -0.140625 1.734375 -0.265625 1.515625 -0.46875 C 1.171875 -0.765625 0.96875 -1.421875 0.96875 -2.140625 C 0.96875 -2.796875 1.140625 -3.4375 1.421875 -3.734375 C 1.671875 -4.015625 1.984375 -4.15625 2.34375 -4.15625 C 2.640625 -4.15625 2.9375 -4.046875 3.171875 -3.828125 C 3.53125 -3.515625 3.734375 -2.90625 3.734375 -2.125 Z M 3.734375 -2.125 "/>
</g>
<g id="glyph-10-10">
<path d="M 4.109375 -0.734375 L 4 -0.84375 C 3.515625 -0.390625 3.09375 -0.1875 2.546875 -0.1875 C 2.15625 -0.1875 1.8125 -0.3125 1.53125 -0.546875 C 1.15625 -0.859375 0.9375 -1.4375 0.9375 -2.203125 C 0.9375 -3.375 1.546875 -4.140625 2.484375 -4.140625 C 2.859375 -4.140625 3.1875 -4 3.453125 -3.734375 C 3.65625 -3.53125 3.75 -3.34375 3.875 -2.921875 L 4.03125 -2.921875 L 3.96875 -4.390625 L 3.828125 -4.390625 C 3.796875 -4.25 3.6875 -4.171875 3.5625 -4.171875 C 3.5 -4.171875 3.40625 -4.203125 3.3125 -4.234375 C 2.984375 -4.34375 2.671875 -4.390625 2.359375 -4.390625 C 1.859375 -4.390625 1.34375 -4.203125 0.9375 -3.875 C 0.453125 -3.46875 0.1875 -2.859375 0.1875 -2.109375 C 0.1875 -0.796875 1.046875 0.09375 2.34375 0.09375 C 3.078125 0.09375 3.71875 -0.203125 4.109375 -0.734375 Z M 4.109375 -0.734375 "/>
</g>
<g id="glyph-11-0">
<path d="M 2.734375 1.453125 C 2.015625 0.875 1.765625 0.5625 1.515625 -0.109375 C 1.3125 -0.71875 1.203125 -1.390625 1.203125 -2.296875 C 1.203125 -3.234375 1.328125 -3.984375 1.5625 -4.53125 C 1.8125 -5.09375 2.09375 -5.421875 2.734375 -5.9375 L 2.65625 -6.078125 C 1.984375 -5.65625 1.71875 -5.421875 1.390625 -5 C 0.75 -4.21875 0.4375 -3.328125 0.4375 -2.265625 C 0.4375 -1.125 0.765625 -0.25 1.5625 0.671875 C 1.921875 1.109375 2.15625 1.3125 2.625 1.59375 Z M 2.734375 1.453125 "/>
</g>
<g id="glyph-11-1">
<path d="M 3.984375 -0.359375 L 3.984375 -0.59375 C 3.828125 -0.46875 3.71875 -0.421875 3.578125 -0.421875 C 3.375 -0.421875 3.3125 -0.546875 3.3125 -0.9375 L 3.3125 -2.703125 C 3.3125 -3.15625 3.265625 -3.40625 3.140625 -3.625 C 2.953125 -3.953125 2.5625 -4.140625 2.015625 -4.140625 C 1.5625 -4.140625 1.125 -4.015625 0.875 -3.8125 C 0.640625 -3.625 0.5 -3.359375 0.5 -3.125 C 0.5 -2.921875 0.671875 -2.75 0.890625 -2.75 C 1.109375 -2.75 1.296875 -2.921875 1.296875 -3.125 C 1.296875 -3.15625 1.28125 -3.203125 1.28125 -3.265625 C 1.265625 -3.34375 1.25 -3.421875 1.25 -3.484375 C 1.25 -3.71875 1.53125 -3.921875 1.90625 -3.921875 C 2.34375 -3.921875 2.578125 -3.65625 2.578125 -3.171875 L 2.578125 -2.625 C 1.203125 -2.0625 1.046875 -2 0.65625 -1.65625 C 0.453125 -1.46875 0.328125 -1.171875 0.328125 -0.875 C 0.328125 -0.3125 0.71875 0.09375 1.28125 0.09375 C 1.671875 0.09375 2.046875 -0.09375 2.59375 -0.5625 C 2.640625 -0.09375 2.796875 0.09375 3.171875 0.09375 C 3.46875 0.09375 3.65625 -0.015625 3.984375 -0.359375 Z M 2.578125 -1.109375 C 2.578125 -0.828125 2.53125 -0.75 2.34375 -0.625 C 2.140625 -0.5 1.875 -0.4375 1.6875 -0.4375 C 1.375 -0.4375 1.125 -0.734375 1.125 -1.125 L 1.125 -1.15625 C 1.125 -1.6875 1.5 -2.015625 2.578125 -2.40625 Z M 2.578125 -1.109375 "/>
</g>
<g id="glyph-11-2">
<path d="M 2.5625 -2.21875 C 2.5625 -3.375 2.234375 -4.25 1.4375 -5.171875 C 1.078125 -5.59375 0.84375 -5.796875 0.375 -6.078125 L 0.265625 -5.9375 C 0.984375 -5.375 1.21875 -5.0625 1.46875 -4.390625 C 1.6875 -3.78125 1.796875 -3.09375 1.796875 -2.203125 C 1.796875 -1.265625 1.671875 -0.515625 1.4375 0.03125 C 1.171875 0.609375 0.90625 0.921875 0.265625 1.453125 L 0.34375 1.59375 C 1.015625 1.15625 1.28125 0.921875 1.609375 0.515625 C 2.25 -0.265625 2.5625 -1.171875 2.5625 -2.21875 Z M 2.5625 -2.21875 "/>
</g>
<g id="glyph-11-3">
<path d="M 5.34375 -1.625 C 5.34375 -2.015625 5.171875 -2.375 4.890625 -2.640625 C 4.625 -2.875 4.390625 -2.984375 3.796875 -3.125 C 4.265625 -3.25 4.453125 -3.34375 4.671875 -3.53125 C 4.890625 -3.71875 5.03125 -4.0625 5.03125 -4.421875 C 5.03125 -5.4375 4.234375 -5.953125 2.671875 -5.953125 L 0.15625 -5.953125 L 0.15625 -5.78125 C 0.90625 -5.734375 1.015625 -5.640625 1.015625 -4.984375 L 1.015625 -0.984375 C 1.015625 -0.3125 0.90625 -0.203125 0.15625 -0.171875 L 0.15625 0 L 3.15625 0 C 3.859375 0 4.5 -0.1875 4.828125 -0.5 C 5.15625 -0.78125 5.34375 -1.1875 5.34375 -1.625 Z M 4.296875 -1.609375 C 4.296875 -1.125 4.109375 -0.78125 3.75 -0.5625 C 3.46875 -0.40625 3.09375 -0.328125 2.5 -0.328125 C 2.0625 -0.328125 1.9375 -0.40625 1.9375 -0.703125 L 1.9375 -2.9375 C 2.8125 -2.9375 3.21875 -2.890625 3.546875 -2.75 C 4.0625 -2.53125 4.296875 -2.171875 4.296875 -1.609375 Z M 4.109375 -4.390625 C 4.109375 -3.6875 3.640625 -3.296875 2.796875 -3.296875 L 1.9375 -3.296875 L 1.9375 -5.359375 C 1.9375 -5.546875 2 -5.625 2.140625 -5.625 L 2.53125 -5.625 C 3.5625 -5.625 4.109375 -5.1875 4.109375 -4.390625 Z M 4.109375 -4.390625 "/>
</g>
<g id="glyph-11-4">
<path d="M 3.125 -1.0625 C 3.125 -1.515625 2.921875 -1.8125 2.375 -2.140625 L 1.40625 -2.703125 C 1.15625 -2.859375 1.015625 -3.078125 1.015625 -3.328125 C 1.015625 -3.6875 1.296875 -3.9375 1.703125 -3.9375 C 2.21875 -3.9375 2.5 -3.640625 2.703125 -2.828125 L 2.828125 -2.828125 L 2.796875 -4.046875 L 2.703125 -4.046875 L 2.6875 -4.03125 C 2.59375 -3.96875 2.59375 -3.953125 2.5625 -3.953125 C 2.5 -3.953125 2.40625 -3.984375 2.3125 -4.015625 C 2.125 -4.09375 1.921875 -4.125 1.703125 -4.125 C 0.96875 -4.125 0.453125 -3.6875 0.453125 -3.03125 C 0.453125 -2.515625 0.75 -2.171875 1.515625 -1.734375 L 2.03125 -1.4375 C 2.34375 -1.25 2.5 -1.03125 2.5 -0.75 C 2.5 -0.359375 2.21875 -0.109375 1.75 -0.109375 C 1.140625 -0.109375 0.8125 -0.453125 0.609375 -1.375 L 0.46875 -1.375 L 0.46875 0.03125 L 0.578125 0.03125 C 0.640625 -0.046875 0.6875 -0.078125 0.796875 -0.078125 C 0.890625 -0.078125 0.984375 -0.046875 1.203125 0 C 1.453125 0.046875 1.6875 0.09375 1.875 0.09375 C 2.5625 0.09375 3.125 -0.4375 3.125 -1.0625 Z M 3.125 -1.0625 "/>
</g>
<g id="glyph-11-5">
<path d="M 3.8125 -1.40625 L 3.671875 -1.46875 C 3.234375 -0.796875 2.859375 -0.53125 2.28125 -0.53125 C 1.78125 -0.53125 1.40625 -0.765625 1.140625 -1.25 C 0.96875 -1.609375 0.890625 -1.921875 0.875 -2.5 L 3.640625 -2.5 C 3.578125 -3.078125 3.484375 -3.34375 3.265625 -3.625 C 2.984375 -3.953125 2.578125 -4.140625 2.109375 -4.140625 C 0.984375 -4.140625 0.21875 -3.234375 0.21875 -1.921875 C 0.21875 -0.6875 0.875 0.09375 1.90625 0.09375 C 2.765625 0.09375 3.4375 -0.4375 3.8125 -1.40625 Z M 2.734375 -2.78125 L 0.890625 -2.78125 C 0.984375 -3.484375 1.296875 -3.8125 1.84375 -3.8125 C 2.390625 -3.8125 2.609375 -3.5625 2.734375 -2.78125 Z M 2.734375 -2.78125 "/>
</g>
<g id="glyph-11-6">
<path d="M 2.3125 0 L 2.3125 -0.140625 C 1.734375 -0.171875 1.640625 -0.265625 1.640625 -0.75 L 1.640625 -6.125 L 1.609375 -6.140625 C 1.140625 -6 0.796875 -5.90625 0.171875 -5.75 L 0.171875 -5.609375 L 0.21875 -5.609375 C 0.328125 -5.609375 0.4375 -5.625 0.5 -5.625 C 0.796875 -5.625 0.875 -5.5 0.875 -5.078125 L 0.875 -0.78125 C 0.875 -0.296875 0.75 -0.1875 0.1875 -0.140625 L 0.1875 0 Z M 2.3125 0 "/>
</g>
<g id="glyph-11-7">
<path d="M 2.28125 0 L 2.28125 -0.140625 C 1.6875 -0.1875 1.609375 -0.265625 1.609375 -0.921875 L 1.609375 -4.109375 L 1.578125 -4.140625 L 0.1875 -3.640625 L 0.1875 -3.515625 L 0.25 -3.515625 C 0.359375 -3.53125 0.484375 -3.546875 0.5625 -3.546875 C 0.78125 -3.546875 0.859375 -3.40625 0.859375 -3 L 0.859375 -0.921875 C 0.859375 -0.265625 0.765625 -0.171875 0.140625 -0.140625 L 0.140625 0 Z M 1.6875 -5.3125 C 1.6875 -5.5625 1.5 -5.765625 1.234375 -5.765625 C 0.984375 -5.765625 0.78125 -5.5625 0.78125 -5.3125 C 0.78125 -5.046875 0.984375 -4.84375 1.234375 -4.84375 C 1.5 -4.84375 1.6875 -5.046875 1.6875 -5.3125 Z M 1.6875 -5.3125 "/>
</g>
<g id="glyph-11-8">
<path d="M 4.359375 0 L 4.359375 -0.140625 C 3.921875 -0.1875 3.8125 -0.28125 3.8125 -0.734375 L 3.8125 -2.796875 C 3.8125 -3.640625 3.421875 -4.140625 2.75 -4.140625 C 2.34375 -4.140625 2.0625 -3.984375 1.453125 -3.40625 L 1.453125 -4.125 L 1.390625 -4.140625 C 0.9375 -3.984375 0.640625 -3.875 0.140625 -3.734375 L 0.140625 -3.578125 C 0.203125 -3.609375 0.28125 -3.625 0.390625 -3.625 C 0.640625 -3.625 0.71875 -3.484375 0.71875 -3.046875 L 0.71875 -0.8125 C 0.71875 -0.296875 0.625 -0.171875 0.15625 -0.140625 L 0.15625 0 L 2.0625 0 L 2.0625 -0.140625 C 1.609375 -0.171875 1.46875 -0.28125 1.46875 -0.609375 L 1.46875 -3.125 C 1.90625 -3.53125 2.109375 -3.640625 2.40625 -3.640625 C 2.84375 -3.640625 3.0625 -3.359375 3.0625 -2.765625 L 3.0625 -0.890625 C 3.0625 -0.328125 2.9375 -0.171875 2.5 -0.140625 L 2.5 0 Z M 4.359375 0 "/>
</g>
<g id="glyph-11-9">
<path d="M 4.21875 -2.1875 C 4.21875 -3.296875 3.53125 -4.140625 2.625 -4.140625 C 2.078125 -4.140625 1.5625 -3.8125 1.375 -3.375 L 1.375 -6.125 L 1.328125 -6.140625 C 0.953125 -6.015625 0.71875 -5.9375 0.28125 -5.828125 L 0.03125 -5.75 L 0.03125 -5.609375 C 0.078125 -5.609375 0.109375 -5.609375 0.1875 -5.609375 C 0.546875 -5.609375 0.625 -5.53125 0.625 -5.15625 L 0.625 -0.484375 C 0.625 -0.203125 1.390625 0.09375 2.109375 0.09375 C 3.296875 0.09375 4.21875 -0.90625 4.21875 -2.1875 Z M 3.421875 -1.765625 C 3.421875 -0.78125 2.984375 -0.203125 2.25 -0.203125 C 1.78125 -0.203125 1.375 -0.40625 1.375 -0.625 L 1.375 -2.890625 C 1.375 -3.25 1.796875 -3.578125 2.265625 -3.578125 C 2.96875 -3.578125 3.421875 -2.875 3.421875 -1.765625 Z M 3.421875 -1.765625 "/>
</g>
<g id="glyph-11-10">
<path d="M 6.375 -3.03125 L 6.375 -3.1875 L 4.09375 -3.1875 L 4.09375 -3.03125 C 4.46875 -3 4.578125 -2.96875 4.6875 -2.890625 C 4.828125 -2.8125 4.875 -2.609375 4.875 -2.21875 L 4.875 -0.765625 C 4.875 -0.484375 4.328125 -0.234375 3.6875 -0.234375 C 2.21875 -0.234375 1.3125 -1.265625 1.3125 -2.9375 C 1.3125 -3.78125 1.5625 -4.59375 1.96875 -5.046875 C 2.359375 -5.484375 2.921875 -5.71875 3.53125 -5.71875 C 4.03125 -5.71875 4.46875 -5.546875 4.828125 -5.234375 C 5.09375 -4.984375 5.234375 -4.734375 5.46875 -4.1875 L 5.671875 -4.1875 L 5.59375 -6.078125 L 5.40625 -6.078125 C 5.34375 -5.90625 5.1875 -5.78125 5 -5.78125 C 4.90625 -5.78125 4.765625 -5.8125 4.59375 -5.875 C 4.1875 -6.015625 3.78125 -6.078125 3.375 -6.078125 C 1.578125 -6.078125 0.28125 -4.765625 0.28125 -2.921875 C 0.28125 -2.046875 0.53125 -1.375 1.03125 -0.84375 C 1.640625 -0.21875 2.5 0.125 3.484375 0.125 C 4.265625 0.125 5.390625 -0.1875 5.75 -0.5 L 5.75 -2.328125 C 5.75 -2.859375 5.859375 -2.984375 6.375 -3.03125 Z M 6.375 -3.03125 "/>
</g>
<g id="glyph-11-11">
<path d="M 5.34375 -4.421875 L 5.28125 -5.953125 L 0.203125 -5.953125 L 0.15625 -4.421875 L 0.375 -4.421875 C 0.578125 -5.421875 0.796875 -5.578125 1.796875 -5.578125 L 2.28125 -5.578125 L 2.28125 -1.078125 C 2.28125 -0.3125 2.1875 -0.21875 1.4375 -0.171875 L 1.4375 0 L 4.0625 0 L 4.0625 -0.171875 C 3.328125 -0.203125 3.203125 -0.328125 3.203125 -0.984375 L 3.203125 -5.578125 L 3.6875 -5.578125 C 4.71875 -5.578125 4.90625 -5.421875 5.125 -4.421875 Z M 5.34375 -4.421875 "/>
</g>
<g id="glyph-11-12">
<path d="M 6.1875 -2.9375 C 6.1875 -3.828125 5.9375 -4.59375 5.4375 -5.140625 C 4.875 -5.765625 4.109375 -6.078125 3.25 -6.078125 C 1.53125 -6.078125 0.3125 -4.78125 0.3125 -2.984375 C 0.3125 -2.140625 0.59375 -1.3125 1.078125 -0.796875 C 1.609375 -0.21875 2.40625 0.125 3.1875 0.125 C 4.96875 0.125 6.1875 -1.140625 6.1875 -2.9375 Z M 5.171875 -2.953125 C 5.171875 -2.421875 5.046875 -1.796875 4.875 -1.328125 C 4.78125 -1.109375 4.640625 -0.875 4.421875 -0.671875 C 4.109375 -0.359375 3.703125 -0.203125 3.234375 -0.203125 C 2.8125 -0.203125 2.40625 -0.359375 2.09375 -0.640625 C 1.625 -1.046875 1.328125 -1.96875 1.328125 -2.96875 C 1.328125 -3.875 1.578125 -4.75 1.96875 -5.171875 C 2.3125 -5.5625 2.75 -5.765625 3.25 -5.765625 C 3.65625 -5.765625 4.078125 -5.59375 4.40625 -5.3125 C 4.890625 -4.875 5.171875 -4.015625 5.171875 -2.953125 Z M 5.171875 -2.953125 "/>
</g>
<g id="glyph-11-13">
<path d="M 5.703125 -1.015625 L 5.53125 -1.171875 C 4.875 -0.546875 4.28125 -0.265625 3.53125 -0.265625 C 2.984375 -0.265625 2.5 -0.4375 2.125 -0.75 C 1.59375 -1.1875 1.296875 -2 1.296875 -3.046875 C 1.296875 -4.671875 2.140625 -5.71875 3.4375 -5.71875 C 3.953125 -5.71875 4.421875 -5.53125 4.78125 -5.171875 C 5.0625 -4.890625 5.203125 -4.640625 5.375 -4.046875 L 5.578125 -4.046875 L 5.5 -6.078125 L 5.3125 -6.078125 C 5.25 -5.890625 5.109375 -5.78125 4.9375 -5.78125 C 4.84375 -5.78125 4.71875 -5.8125 4.578125 -5.875 C 4.140625 -6.015625 3.703125 -6.078125 3.265625 -6.078125 C 2.5625 -6.078125 1.859375 -5.828125 1.3125 -5.375 C 0.625 -4.8125 0.25 -3.953125 0.25 -2.921875 C 0.25 -1.09375 1.453125 0.125 3.234375 0.125 C 4.25 0.125 5.140625 -0.28125 5.703125 -1.015625 Z M 5.703125 -1.015625 "/>
</g>
</g>
<clipPath id="clip-0">
<path clip-rule="nonzero" d="M 30.144531 28 L 523.902344 28 L 523.902344 52 L 30.144531 52 Z M 30.144531 28 "/>
</clipPath>
<clipPath id="clip-1">
<path clip-rule="nonzero" d="M 30.144531 71 L 523.902344 71 L 523.902344 72 L 30.144531 72 Z M 30.144531 71 "/>
</clipPath>
<clipPath id="clip-2">
<path clip-rule="nonzero" d="M 30.144531 7 L 523.902344 7 L 523.902344 9 L 30.144531 9 Z M 30.144531 7 "/>
</clipPath>
<clipPath id="clip-3">
<path clip-rule="nonzero" d="M 30.144531 39 L 523.902344 39 L 523.902344 40 L 30.144531 40 Z M 30.144531 39 "/>
</clipPath>
<clipPath id="clip-4">
<path clip-rule="nonzero" d="M 30.144531 34 L 523.902344 34 L 523.902344 57 L 30.144531 57 Z M 30.144531 34 "/>
</clipPath>
<clipPath id="clip-5">
<path clip-rule="nonzero" d="M 30.144531 22 L 523.902344 22 L 523.902344 46 L 30.144531 46 Z M 30.144531 22 "/>
</clipPath>
<clipPath id="clip-6">
<path clip-rule="nonzero" d="M 30.144531 38 L 523.902344 38 L 523.902344 41 L 30.144531 41 Z M 30.144531 38 "/>
</clipPath>
<clipPath id="clip-7">
<path clip-rule="nonzero" d="M 30.144531 35 L 40 35 L 40 44 L 30.144531 44 Z M 30.144531 35 "/>
</clipPath>
<clipPath id="clip-8">
<path clip-rule="nonzero" d="M 30.144531 35 L 40 35 L 40 45 L 30.144531 45 Z M 30.144531 35 "/>
</clipPath>
<clipPath id="clip-9">
<path clip-rule="nonzero" d="M 30.144531 153 L 523.902344 153 L 523.902344 184 L 30.144531 184 Z M 30.144531 153 "/>
</clipPath>
<clipPath id="clip-10">
<path clip-rule="nonzero" d="M 30.144531 199 L 523.902344 199 L 523.902344 201 L 30.144531 201 Z M 30.144531 199 "/>
</clipPath>
<clipPath id="clip-11">
<path clip-rule="nonzero" d="M 30.144531 136 L 523.902344 136 L 523.902344 138 L 30.144531 138 Z M 30.144531 136 "/>
</clipPath>
<clipPath id="clip-12">
<path clip-rule="nonzero" d="M 30.144531 168 L 523.902344 168 L 523.902344 169 L 30.144531 169 Z M 30.144531 168 "/>
</clipPath>
<clipPath id="clip-13">
<path clip-rule="nonzero" d="M 30.144531 162 L 523.902344 162 L 523.902344 189 L 30.144531 189 Z M 30.144531 162 "/>
</clipPath>
<clipPath id="clip-14">
<path clip-rule="nonzero" d="M 30.144531 148 L 523.902344 148 L 523.902344 184 L 30.144531 184 Z M 30.144531 148 "/>
</clipPath>
<clipPath id="clip-15">
<path clip-rule="nonzero" d="M 30.144531 140 L 523.902344 140 L 523.902344 205.644531 L 30.144531 205.644531 Z M 30.144531 140 "/>
</clipPath>
<clipPath id="clip-16">
<path clip-rule="nonzero" d="M 30.144531 164 L 40 164 L 40 173 L 30.144531 173 Z M 30.144531 164 "/>
</clipPath>
</defs>
<path fill-rule="nonzero" fill="rgb(94.900513%, 96.076965%, 98.039246%)" fill-opacity="1" d="M 30.144531 71.417969 L 523.902344 71.417969 L 523.902344 8.160156 L 30.144531 8.160156 Z M 30.144531 71.417969 "/>
<path fill="none" stroke-width="0.3985" stroke-linecap="butt" stroke-linejoin="miter" stroke="rgb(87.5%, 87.5%, 87.5%)" stroke-opacity="1" stroke-miterlimit="10" d="M -0.00146875 -0.00034375 L -0.00146875 74.226219 M 39.502437 -0.00034375 L 39.502437 74.226219 M 79.002437 -0.00034375 L 79.002437 74.226219 M 118.502437 -0.00034375 L 118.502437 74.226219 M 158.002437 -0.00034375 L 158.002437 74.226219 M 197.502437 -0.00034375 L 197.502437 74.226219 M 237.002437 -0.00034375 L 237.002437 74.226219 M 276.502437 -0.00034375 L 276.502437 74.226219 M 316.002437 -0.00034375 L 316.002437 74.226219 M 355.506344 -0.00034375 L 355.506344 74.226219 M 395.006344 -0.00034375 L 395.006344 74.226219 M 434.506344 -0.00034375 L 434.506344 74.226219 M 474.006344 -0.00034375 L 474.006344 74.226219 " transform="matrix(1, 0, 0, -1, 30.146, 76.902)"/>
<path fill="none" stroke-width="0.3985" stroke-linecap="butt" stroke-linejoin="miter" stroke="rgb(87.5%, 87.5%, 87.5%)" stroke-opacity="1" stroke-miterlimit="10" d="M -0.00146875 3.374656 L 493.756344 3.374656 M -0.00146875 20.241844 L 493.756344 20.241844 M -0.00146875 37.112938 L 493.756344 37.112938 M -0.00146875 53.984031 L 493.756344 53.984031 M -0.00146875 70.851219 L 493.756344 70.851219 " transform="matrix(1, 0, 0, -1, 30.146, 76.902)"/>
<path fill="none" stroke-width="0.19925" stroke-linecap="butt" stroke-linejoin="miter" stroke="rgb(50%, 50%, 50%)" stroke-opacity="1" stroke-miterlimit="10" d="M -0.00146875 -0.00034375 L -0.00146875 4.253563 M 39.502437 -0.00034375 L 39.502437 4.253563 M 79.002437 -0.00034375 L 79.002437 4.253563 M 118.502437 -0.00034375 L 118.502437 4.253563 M 158.002437 -0.00034375 L 158.002437 4.253563 M 197.502437 -0.00034375 L 197.502437 4.253563 M 237.002437 -0.00034375 L 237.002437 4.253563 M 276.502437 -0.00034375 L 276.502437 4.253563 M 316.002437 -0.00034375 L 316.002437 4.253563 M 355.506344 -0.00034375 L 355.506344 4.253563 M 395.006344 -0.00034375 L 395.006344 4.253563 M 434.506344 -0.00034375 L 434.506344 4.253563 M 474.006344 -0.00034375 L 474.006344 4.253563 M -0.00146875 74.226219 L -0.00146875 69.976219 M 39.502437 74.226219 L 39.502437 69.976219 M 79.002437 74.226219 L 79.002437 69.976219 M 118.502437 74.226219 L 118.502437 69.976219 M 158.002437 74.226219 L 158.002437 69.976219 M 197.502437 74.226219 L 197.502437 69.976219 M 237.002437 74.226219 L 237.002437 69.976219 M 276.502437 74.226219 L 276.502437 69.976219 M 316.002437 74.226219 L 316.002437 69.976219 M 355.506344 74.226219 L 355.506344 69.976219 M 395.006344 74.226219 L 395.006344 69.976219 M 434.506344 74.226219 L 434.506344 69.976219 M 474.006344 74.226219 L 474.006344 69.976219 " transform="matrix(1, 0, 0, -1, 30.146, 76.902)"/>
<path fill="none" stroke-width="0.19925" stroke-linecap="butt" stroke-linejoin="miter" stroke="rgb(50%, 50%, 50%)" stroke-opacity="1" stroke-miterlimit="10" d="M -0.00146875 3.374656 L 4.252437 3.374656 M -0.00146875 20.241844 L 4.252437 20.241844 M -0.00146875 37.112938 L 4.252437 37.112938 M -0.00146875 53.984031 L 4.252437 53.984031 M -0.00146875 70.851219 L 4.252437 70.851219 M 493.756344 3.374656 L 489.502437 3.374656 M 493.756344 20.241844 L 489.502437 20.241844 M 493.756344 37.112938 L 489.502437 37.112938 M 493.756344 53.984031 L 489.502437 53.984031 M 493.756344 70.851219 L 489.502437 70.851219 " transform="matrix(1, 0, 0, -1, 30.146, 76.902)"/>
<path fill="none" stroke-width="0.79701" stroke-linecap="butt" stroke-linejoin="miter" stroke="rgb(0%, 0%, 0%)" stroke-opacity="1" stroke-miterlimit="10" d="M -0.00146875 -0.00034375 L -0.00146875 74.226219 L 493.756344 74.226219 L 493.756344 -0.00034375 Z M -0.00146875 -0.00034375 " transform="matrix(1, 0, 0, -1, 30.146, 76.902)"/>
<g clip-path="url(#clip-0)">
<path fill-rule="nonzero" fill="rgb(89.704895%, 96.566772%, 89.704895%)" fill-opacity="1" d="M 30.144531 39.789062 L 40.019531 51.175781 L 523.902344 51.175781 L 523.902344 28.402344 L 40.019531 28.402344 Z M 30.144531 39.789062 "/>
</g>
<g fill="rgb(0%, 0%, 0%)" fill-opacity="1">
<use xlink:href="#glyph-0-0" x="28.16" y="84.79"/>
</g>
<g fill="rgb(0%, 0%, 0%)" fill-opacity="1">
<use xlink:href="#glyph-0-1" x="67.66" y="84.79"/>
</g>
<g fill="rgb(0%, 0%, 0%)" fill-opacity="1">
<use xlink:href="#glyph-0-2" x="107.161" y="84.79"/>
</g>
<g fill="rgb(0%, 0%, 0%)" fill-opacity="1">
<use xlink:href="#glyph-0-3" x="146.661" y="84.79"/>
</g>
<g fill="rgb(0%, 0%, 0%)" fill-opacity="1">
<use xlink:href="#glyph-0-4" x="186.162" y="84.79"/>
</g>
<g fill="rgb(0%, 0%, 0%)" fill-opacity="1">
<use xlink:href="#glyph-0-5" x="223.676" y="84.79"/>
<use xlink:href="#glyph-0-0" x="227.6475" y="84.79"/>
</g>
<g fill="rgb(0%, 0%, 0%)" fill-opacity="1">
<use xlink:href="#glyph-0-5" x="263.177" y="84.79"/>
<use xlink:href="#glyph-0-1" x="267.1485" y="84.79"/>
</g>
<g fill="rgb(0%, 0%, 0%)" fill-opacity="1">
<use xlink:href="#glyph-0-5" x="302.677" y="84.79"/>
<use xlink:href="#glyph-0-2" x="306.6485" y="84.79"/>
</g>
<g fill="rgb(0%, 0%, 0%)" fill-opacity="1">
<use xlink:href="#glyph-0-5" x="342.178" y="84.79"/>
<use xlink:href="#glyph-0-3" x="346.1495" y="84.79"/>
</g>
<g fill="rgb(0%, 0%, 0%)" fill-opacity="1">
<use xlink:href="#glyph-0-5" x="381.678" y="84.79"/>
<use xlink:href="#glyph-0-4" x="385.6495" y="84.79"/>
</g>
<g fill="rgb(0%, 0%, 0%)" fill-opacity="1">
<use xlink:href="#glyph-0-1" x="421.179" y="84.79"/>
<use xlink:href="#glyph-0-0" x="425.1505" y="84.79"/>
</g>
<g fill="rgb(0%, 0%, 0%)" fill-opacity="1">
<use xlink:href="#glyph-0-1" x="460.679" y="84.79"/>
<use xlink:href="#glyph-0-1" x="464.6505" y="84.79"/>
</g>
<g fill="rgb(0%, 0%, 0%)" fill-opacity="1">
<use xlink:href="#glyph-0-1" x="500.18" y="84.79"/>
<use xlink:href="#glyph-0-2" x="504.1515" y="84.79"/>
</g>
<g fill="rgb(0%, 0%, 0%)" fill-opacity="1">
<use xlink:href="#glyph-1-0" x="16.216" y="75.171"/>
</g>
<g fill="rgb(0%, 0%, 0%)" fill-opacity="1">
<use xlink:href="#glyph-0-1" x="22.475" y="75.171"/>
</g>
<g fill="rgb(0%, 0%, 0%)" fill-opacity="1">
<use xlink:href="#glyph-1-0" x="16.216" y="58.302"/>
</g>
<g fill="rgb(0%, 0%, 0%)" fill-opacity="1">
<use xlink:href="#glyph-0-5" x="22.475" y="58.302"/>
</g>
<g fill="rgb(0%, 0%, 0%)" fill-opacity="1">
<use xlink:href="#glyph-0-0" x="22.475" y="41.883"/>
</g>
<g fill="rgb(0%, 0%, 0%)" fill-opacity="1">
<use xlink:href="#glyph-0-5" x="22.475" y="25.014"/>
</g>
<g fill="rgb(0%, 0%, 0%)" fill-opacity="1">
<use xlink:href="#glyph-0-1" x="22.475" y="8.144"/>
</g>
<g clip-path="url(#clip-1)">
<path fill="none" stroke-width="0.59776" stroke-linecap="butt" stroke-linejoin="miter" stroke="rgb(44.999695%, 44.999695%, 44.999695%)" stroke-opacity="1" stroke-miterlimit="10" d="M -0.00146875 5.484031 L 493.756344 5.484031 " transform="matrix(1, 0, 0, -1, 30.146, 76.902)"/>
</g>
<g clip-path="url(#clip-2)">
<path fill="none" stroke-width="0.59776" stroke-linecap="butt" stroke-linejoin="miter" stroke="rgb(44.999695%, 44.999695%, 44.999695%)" stroke-opacity="1" stroke-miterlimit="10" d="M -0.00146875 68.741844 L 493.756344 68.741844 " transform="matrix(1, 0, 0, -1, 30.146, 76.902)"/>
</g>
<g clip-path="url(#clip-3)">
<path fill="none" stroke-width="0.3985" stroke-linecap="butt" stroke-linejoin="miter" stroke="rgb(69.999695%, 69.999695%, 69.999695%)" stroke-opacity="1" stroke-dasharray="2.98883 2.98883" stroke-miterlimit="10" d="M -0.00146875 37.112938 L 493.756344 37.112938 " transform="matrix(1, 0, 0, -1, 30.146, 76.902)"/>
</g>
<g clip-path="url(#clip-4)">
<path fill="none" stroke-width="0.3985" stroke-linecap="butt" stroke-linejoin="miter" stroke="rgb(94.119263%, 50.979614%, 11.764526%)" stroke-opacity="1" stroke-dasharray="2.98883 2.98883" stroke-miterlimit="10" d="M -0.00146875 37.112938 L 9.873531 25.726219 L 493.756344 25.726219 " transform="matrix(1, 0, 0, -1, 30.146, 76.902)"/>
</g>
<g clip-path="url(#clip-5)">
<path fill="none" stroke-width="0.3985" stroke-linecap="butt" stroke-linejoin="miter" stroke="rgb(94.119263%, 50.979614%, 11.764526%)" stroke-opacity="1" stroke-dasharray="2.98883 2.98883" stroke-miterlimit="10" d="M -0.00146875 37.112938 L 9.873531 48.499656 L 493.756344 48.499656 " transform="matrix(1, 0, 0, -1, 30.146, 76.902)"/>
</g>
<g clip-path="url(#clip-6)">
<path fill="none" stroke-width="1.99255" stroke-linecap="butt" stroke-linejoin="miter" stroke="rgb(31.799316%, 51.799011%, 69.799805%)" stroke-opacity="1" stroke-miterlimit="10" d="M -0.00146875 37.112938 L 493.756344 37.112938 " transform="matrix(1, 0, 0, -1, 30.146, 76.902)"/>
</g>
<path fill-rule="nonzero" fill="rgb(90.19928%, 39.199829%, 39.199829%)" fill-opacity="0.95" d="M 272.128906 49.910156 C 272.128906 47.160156 269.898438 44.929688 267.148438 44.929688 C 264.398438 44.929688 262.167969 47.160156 262.167969 49.910156 C 262.167969 52.660156 264.398438 54.890625 267.148438 54.890625 C 269.898438 54.890625 272.128906 52.660156 272.128906 49.910156 Z M 272.128906 49.910156 "/>
<path fill-rule="nonzero" fill="rgb(90.19928%, 39.199829%, 39.199829%)" fill-opacity="0.55" d="M 272.128906 36.550781 C 272.128906 33.796875 269.898438 31.570312 267.148438 31.570312 C 264.398438 31.570312 262.167969 33.796875 262.167969 36.550781 C 262.167969 39.300781 264.398438 41.53125 267.148438 41.53125 C 269.898438 41.53125 272.128906 39.300781 272.128906 36.550781 Z M 272.128906 36.550781 "/>
<path fill-rule="nonzero" fill="rgb(90.19928%, 39.199829%, 39.199829%)" fill-opacity="0.35" d="M 272.128906 23.1875 C 272.128906 20.4375 269.898438 18.207031 267.148438 18.207031 C 264.398438 18.207031 262.167969 20.4375 262.167969 23.1875 C 262.167969 25.941406 264.398438 28.171875 267.148438 28.171875 C 269.898438 28.171875 272.128906 25.941406 272.128906 23.1875 Z M 272.128906 23.1875 "/>
<path fill-rule="nonzero" fill="rgb(90.19928%, 39.199829%, 39.199829%)" fill-opacity="0.2" d="M 272.128906 9.421875 C 272.128906 6.671875 269.898438 4.441406 267.148438 4.441406 C 264.398438 4.441406 262.167969 6.671875 262.167969 9.421875 C 262.167969 12.175781 264.398438 14.40625 267.148438 14.40625 C 269.898438 14.40625 272.128906 12.175781 272.128906 9.421875 Z M 272.128906 9.421875 "/>
<path fill="none" stroke-width="1.19553" stroke-linecap="butt" stroke-linejoin="miter" stroke="rgb(90.19928%, 39.199829%, 39.199829%)" stroke-opacity="0.85" stroke-miterlimit="10" d="M 237.002437 26.991844 L 237.002437 66.284813 " transform="matrix(1, 0, 0, -1, 30.146, 76.902)"/>
<path fill="none" stroke-width="1.19553" stroke-linecap="round" stroke-linejoin="round" stroke="rgb(90.19928%, 39.199829%, 39.199829%)" stroke-opacity="0.85" stroke-miterlimit="10" d="M -3.029561 3.832694 C -2.474874 1.531912 -1.240499 0.445975 0.00168875 0.0006625 C -1.240499 -0.448556 -2.474874 -1.530588 -3.029561 -3.831369 " transform="matrix(0, -1, -1, 0, 267.1491, 10.02122)"/>
<g fill="rgb(90.19928%, 39.199829%, 39.199829%)" fill-opacity="1">
<use xlink:href="#glyph-2-0" x="233.226" y="32.184"/>
<use xlink:href="#glyph-2-1" x="238.726" y="32.184"/>
</g>
<g fill="rgb(90.19928%, 39.199829%, 39.199829%)" fill-opacity="1">
<use xlink:href="#glyph-3-0" x="245.601" y="32.184"/>
</g>
<g fill="rgb(90.19928%, 39.199829%, 39.199829%)" fill-opacity="1">
<use xlink:href="#glyph-4-0" x="252.019" y="32.184"/>
</g>
<g fill="rgb(90.19928%, 39.199829%, 39.199829%)" fill-opacity="1">
<use xlink:href="#glyph-4-1" x="259.917" y="32.184"/>
<use xlink:href="#glyph-4-2" x="262.8925" y="32.184"/>
<use xlink:href="#glyph-4-3" x="268.541" y="32.184"/>
</g>
<g fill="rgb(90.19928%, 39.199829%, 39.199829%)" fill-opacity="1">
<use xlink:href="#glyph-3-1" x="272.297" y="32.184"/>
</g>
<g fill="rgb(90.19928%, 39.199829%, 39.199829%)" fill-opacity="1">
<use xlink:href="#glyph-4-3" x="274.817" y="32.184"/>
</g>
<g fill="rgb(90.19928%, 39.199829%, 39.199829%)" fill-opacity="1">
<use xlink:href="#glyph-3-2" x="278.56" y="32.184"/>
</g>
<g fill="rgb(90.19928%, 39.199829%, 39.199829%)" fill-opacity="1">
<use xlink:href="#glyph-4-2" x="282.431" y="32.184"/>
<use xlink:href="#glyph-4-4" x="288.0795" y="32.184"/>
</g>
<g fill="rgb(90.19928%, 39.199829%, 39.199829%)" fill-opacity="1">
<use xlink:href="#glyph-3-1" x="291.827" y="32.184"/>
</g>
<g fill="rgb(90.19928%, 39.199829%, 39.199829%)" fill-opacity="1">
<use xlink:href="#glyph-4-5" x="294.348" y="32.184"/>
<use xlink:href="#glyph-4-6" x="298.088" y="32.184"/>
</g>
<g clip-path="url(#clip-7)">
<path fill-rule="nonzero" fill="rgb(48.823547%, 63.822937%, 77.352905%)" fill-opacity="1" d="M 21.179688 43.773438 L 39.113281 43.773438 L 39.113281 35.804688 L 21.179688 35.804688 Z M 21.179688 43.773438 "/>
</g>
<g clip-path="url(#clip-8)">
<path fill="none" stroke-width="0.79701" stroke-linecap="butt" stroke-linejoin="miter" stroke="rgb(31.765747%, 51.763916%, 69.802856%)" stroke-opacity="1" stroke-miterlimit="10" d="M -8.966313 33.128563 L 8.967281 33.128563 L 8.967281 41.097313 L -8.966313 41.097313 Z M -8.966313 33.128563 " transform="matrix(1, 0, 0, -1, 30.146, 76.902)"/>
</g>
<path fill-rule="nonzero" fill="rgb(100%, 100%, 100%)" fill-opacity="1" d="M 39.511719 39.789062 L 36.523438 37.296875 L 36.523438 42.28125 Z M 39.511719 39.789062 "/>
<g fill="rgb(31.799316%, 51.799011%, 69.799805%)" fill-opacity="1">
<use xlink:href="#glyph-5-0" x="37.795" y="19.959"/>
<use xlink:href="#glyph-5-1" x="41.4635" y="19.959"/>
<use xlink:href="#glyph-5-2" x="45.7425" y="19.959"/>
</g>
<g fill="rgb(0%, 0%, 0%)" fill-opacity="1">
<use xlink:href="#glyph-6-0" x="268.65" y="97.058"/>
</g>
<g fill="rgb(0%, 0%, 0%)" fill-opacity="1">
<use xlink:href="#glyph-7-0" x="274.568" y="97.058"/>
<use xlink:href="#glyph-7-1" x="277.0655" y="97.058"/>
<use xlink:href="#glyph-7-2" x="282.9005" y="97.058"/>
</g>
<g fill="rgb(0%, 0%, 0%)" fill-opacity="1">
<use xlink:href="#glyph-8-0" x="7.689" y="47.518"/>
</g>
<g fill="rgb(0%, 0%, 0%)" fill-opacity="1">
<use xlink:href="#glyph-9-0" x="7.689" y="42.89"/>
<use xlink:href="#glyph-9-1" x="7.689" y="40.3925"/>
<use xlink:href="#glyph-9-2" x="7.689" y="34.5575"/>
</g>
<path fill-rule="nonzero" fill="rgb(100%, 100%, 100%)" fill-opacity="0.85" d="M 462.476562 75.21875 L 513.824219 75.21875 L 513.824219 61.234375 L 462.476562 61.234375 Z M 462.476562 75.21875 "/>
<path fill="none" stroke-width="1.99255" stroke-linecap="butt" stroke-linejoin="miter" stroke="rgb(31.799316%, 51.799011%, 69.799805%)" stroke-opacity="1" stroke-miterlimit="10" d="M -0.0000625 -0.0005625 L 17.00775 -0.0005625 " transform="matrix(1, 0, 0, -1, 466.461, 68.226)"/>
<g fill="rgb(0%, 0%, 0%)" fill-opacity="0.85">
<use xlink:href="#glyph-10-0" x="486.458" y="69.658"/>
<use xlink:href="#glyph-10-1" x="490.7935" y="69.658"/>
<use xlink:href="#glyph-10-2" x="493.6795" y="69.658"/>
<use xlink:href="#glyph-10-3" x="496.208" y="69.658"/>
<use xlink:href="#glyph-10-4" x="499.094" y="69.658"/>
<use xlink:href="#glyph-10-5" x="500.901" y="69.658"/>
<use xlink:href="#glyph-10-6" x="502.708" y="69.658"/>
<use xlink:href="#glyph-10-3" x="505.958" y="69.658"/>
</g>
<g fill="rgb(0%, 0%, 0%)" fill-opacity="1">
<use xlink:href="#glyph-11-0" x="240.02" y="117.691"/>
<use xlink:href="#glyph-11-1" x="243.017" y="117.691"/>
<use xlink:href="#glyph-11-2" x="247.013" y="117.691"/>
</g>
<g fill="rgb(0%, 0%, 0%)" fill-opacity="1">
<use xlink:href="#glyph-11-3" x="252.251" y="117.691"/>
<use xlink:href="#glyph-11-1" x="258.254" y="117.691"/>
<use xlink:href="#glyph-11-4" x="262.25" y="117.691"/>
<use xlink:href="#glyph-11-5" x="265.751" y="117.691"/>
<use xlink:href="#glyph-11-6" x="269.747" y="117.691"/>
<use xlink:href="#glyph-11-7" x="272.249" y="117.691"/>
<use xlink:href="#glyph-11-8" x="274.751" y="117.691"/>
<use xlink:href="#glyph-11-5" x="279.251" y="117.691"/>
</g>
<path fill-rule="nonzero" fill="rgb(94.900513%, 96.076965%, 98.039246%)" fill-opacity="1" d="M 30.144531 200.164062 L 523.902344 200.164062 L 523.902344 136.902344 L 30.144531 136.902344 Z M 30.144531 200.164062 "/>
<path fill="none" stroke-width="0.3985" stroke-linecap="butt" stroke-linejoin="miter" stroke="rgb(87.5%, 87.5%, 87.5%)" stroke-opacity="1" stroke-miterlimit="10" d="M -0.00146875 0.00046875 L -0.00146875 74.227031 M 39.502437 0.00046875 L 39.502437 74.227031 M 79.002437 0.00046875 L 79.002437 74.227031 M 118.502437 0.00046875 L 118.502437 74.227031 M 158.002437 0.00046875 L 158.002437 74.227031 M 197.502437 0.00046875 L 197.502437 74.227031 M 237.002437 0.00046875 L 237.002437 74.227031 M 276.502437 0.00046875 L 276.502437 74.227031 M 316.002437 0.00046875 L 316.002437 74.227031 M 355.506344 0.00046875 L 355.506344 74.227031 M 395.006344 0.00046875 L 395.006344 74.227031 M 434.506344 0.00046875 L 434.506344 74.227031 M 474.006344 0.00046875 L 474.006344 74.227031 " transform="matrix(1, 0, 0, -1, 30.146, 205.645)"/>
<path fill="none" stroke-width="0.3985" stroke-linecap="butt" stroke-linejoin="miter" stroke="rgb(87.5%, 87.5%, 87.5%)" stroke-opacity="1" stroke-miterlimit="10" d="M -0.00146875 3.375469 L 493.756344 3.375469 M -0.00146875 20.242656 L 493.756344 20.242656 M -0.00146875 37.11375 L 493.756344 37.11375 M -0.00146875 53.980938 L 493.756344 53.980938 M -0.00146875 70.852031 L 493.756344 70.852031 " transform="matrix(1, 0, 0, -1, 30.146, 205.645)"/>
<path fill="none" stroke-width="0.19925" stroke-linecap="butt" stroke-linejoin="miter" stroke="rgb(50%, 50%, 50%)" stroke-opacity="1" stroke-miterlimit="10" d="M -0.00146875 0.00046875 L -0.00146875 4.250469 M 39.502437 0.00046875 L 39.502437 4.250469 M 79.002437 0.00046875 L 79.002437 4.250469 M 118.502437 0.00046875 L 118.502437 4.250469 M 158.002437 0.00046875 L 158.002437 4.250469 M 197.502437 0.00046875 L 197.502437 4.250469 M 237.002437 0.00046875 L 237.002437 4.250469 M 276.502437 0.00046875 L 276.502437 4.250469 M 316.002437 0.00046875 L 316.002437 4.250469 M 355.506344 0.00046875 L 355.506344 4.250469 M 395.006344 0.00046875 L 395.006344 4.250469 M 434.506344 0.00046875 L 434.506344 4.250469 M 474.006344 0.00046875 L 474.006344 4.250469 M -0.00146875 74.227031 L -0.00146875 69.973125 M 39.502437 74.227031 L 39.502437 69.973125 M 79.002437 74.227031 L 79.002437 69.973125 M 118.502437 74.227031 L 118.502437 69.973125 M 158.002437 74.227031 L 158.002437 69.973125 M 197.502437 74.227031 L 197.502437 69.973125 M 237.002437 74.227031 L 237.002437 69.973125 M 276.502437 74.227031 L 276.502437 69.973125 M 316.002437 74.227031 L 316.002437 69.973125 M 355.506344 74.227031 L 355.506344 69.973125 M 395.006344 74.227031 L 395.006344 69.973125 M 434.506344 74.227031 L 434.506344 69.973125 M 474.006344 74.227031 L 474.006344 69.973125 " transform="matrix(1, 0, 0, -1, 30.146, 205.645)"/>
<path fill="none" stroke-width="0.19925" stroke-linecap="butt" stroke-linejoin="miter" stroke="rgb(50%, 50%, 50%)" stroke-opacity="1" stroke-miterlimit="10" d="M -0.00146875 3.375469 L 4.252437 3.375469 M -0.00146875 20.242656 L 4.252437 20.242656 M -0.00146875 37.11375 L 4.252437 37.11375 M -0.00146875 53.980938 L 4.252437 53.980938 M -0.00146875 70.852031 L 4.252437 70.852031 M 493.756344 3.375469 L 489.502437 3.375469 M 493.756344 20.242656 L 489.502437 20.242656 M 493.756344 37.11375 L 489.502437 37.11375 M 493.756344 53.980938 L 489.502437 53.980938 M 493.756344 70.852031 L 489.502437 70.852031 " transform="matrix(1, 0, 0, -1, 30.146, 205.645)"/>
<path fill="none" stroke-width="0.79701" stroke-linecap="butt" stroke-linejoin="miter" stroke="rgb(0%, 0%, 0%)" stroke-opacity="1" stroke-miterlimit="10" d="M -0.00146875 0.00046875 L -0.00146875 74.227031 L 493.756344 74.227031 L 493.756344 0.00046875 Z M -0.00146875 0.00046875 " transform="matrix(1, 0, 0, -1, 30.146, 205.645)"/>
<g clip-path="url(#clip-9)">
<path fill-rule="nonzero" fill="rgb(89.704895%, 96.566772%, 89.704895%)" fill-opacity="1" d="M 30.144531 168.53125 L 40.019531 183.292969 L 523.902344 183.292969 L 523.902344 153.769531 L 316.523438 153.769531 L 306.648438 168.082031 L 237.523438 176.941406 L 227.648438 178.203125 L 217.773438 153.769531 L 40.019531 153.769531 Z M 30.144531 168.53125 "/>
</g>
<g fill="rgb(0%, 0%, 0%)" fill-opacity="1">
<use xlink:href="#glyph-0-0" x="28.16" y="213.533"/>
</g>
<g fill="rgb(0%, 0%, 0%)" fill-opacity="1">
<use xlink:href="#glyph-0-1" x="67.66" y="213.533"/>
</g>
<g fill="rgb(0%, 0%, 0%)" fill-opacity="1">
<use xlink:href="#glyph-0-2" x="107.161" y="213.533"/>
</g>
<g fill="rgb(0%, 0%, 0%)" fill-opacity="1">
<use xlink:href="#glyph-0-3" x="146.661" y="213.533"/>
</g>
<g fill="rgb(0%, 0%, 0%)" fill-opacity="1">
<use xlink:href="#glyph-0-4" x="186.162" y="213.533"/>
</g>
<g fill="rgb(0%, 0%, 0%)" fill-opacity="1">
<use xlink:href="#glyph-0-5" x="223.676" y="213.533"/>
<use xlink:href="#glyph-0-0" x="227.6475" y="213.533"/>
</g>
<g fill="rgb(0%, 0%, 0%)" fill-opacity="1">
<use xlink:href="#glyph-0-5" x="263.177" y="213.533"/>
<use xlink:href="#glyph-0-1" x="267.1485" y="213.533"/>
</g>
<g fill="rgb(0%, 0%, 0%)" fill-opacity="1">
<use xlink:href="#glyph-0-5" x="302.677" y="213.533"/>
<use xlink:href="#glyph-0-2" x="306.6485" y="213.533"/>
</g>
<g fill="rgb(0%, 0%, 0%)" fill-opacity="1">
<use xlink:href="#glyph-0-5" x="342.178" y="213.533"/>
<use xlink:href="#glyph-0-3" x="346.1495" y="213.533"/>
</g>
<g fill="rgb(0%, 0%, 0%)" fill-opacity="1">
<use xlink:href="#glyph-0-5" x="381.678" y="213.533"/>
<use xlink:href="#glyph-0-4" x="385.6495" y="213.533"/>
</g>
<g fill="rgb(0%, 0%, 0%)" fill-opacity="1">
<use xlink:href="#glyph-0-1" x="421.179" y="213.533"/>
<use xlink:href="#glyph-0-0" x="425.1505" y="213.533"/>
</g>
<g fill="rgb(0%, 0%, 0%)" fill-opacity="1">
<use xlink:href="#glyph-0-1" x="460.679" y="213.533"/>
<use xlink:href="#glyph-0-1" x="464.6505" y="213.533"/>
</g>
<g fill="rgb(0%, 0%, 0%)" fill-opacity="1">
<use xlink:href="#glyph-0-1" x="500.18" y="213.533"/>
<use xlink:href="#glyph-0-2" x="504.1515" y="213.533"/>
</g>
<g fill="rgb(0%, 0%, 0%)" fill-opacity="1">
<use xlink:href="#glyph-1-0" x="16.216" y="203.914"/>
</g>
<g fill="rgb(0%, 0%, 0%)" fill-opacity="1">
<use xlink:href="#glyph-0-1" x="22.475" y="203.914"/>
</g>
<g fill="rgb(0%, 0%, 0%)" fill-opacity="1">
<use xlink:href="#glyph-1-0" x="16.216" y="187.045"/>
</g>
<g fill="rgb(0%, 0%, 0%)" fill-opacity="1">
<use xlink:href="#glyph-0-5" x="22.475" y="187.045"/>
</g>
<g fill="rgb(0%, 0%, 0%)" fill-opacity="1">
<use xlink:href="#glyph-0-0" x="22.475" y="170.626"/>
</g>
<g fill="rgb(0%, 0%, 0%)" fill-opacity="1">
<use xlink:href="#glyph-0-5" x="22.475" y="153.757"/>
</g>
<g fill="rgb(0%, 0%, 0%)" fill-opacity="1">
<use xlink:href="#glyph-0-1" x="22.475" y="136.887"/>
</g>
<g clip-path="url(#clip-10)">
<path fill="none" stroke-width="0.59776" stroke-linecap="butt" stroke-linejoin="miter" stroke="rgb(44.999695%, 44.999695%, 44.999695%)" stroke-opacity="1" stroke-miterlimit="10" d="M -0.00146875 5.480938 L 493.756344 5.480938 " transform="matrix(1, 0, 0, -1, 30.146, 205.645)"/>
</g>
<g clip-path="url(#clip-11)">
<path fill="none" stroke-width="0.59776" stroke-linecap="butt" stroke-linejoin="miter" stroke="rgb(44.999695%, 44.999695%, 44.999695%)" stroke-opacity="1" stroke-miterlimit="10" d="M -0.00146875 68.742656 L 493.756344 68.742656 " transform="matrix(1, 0, 0, -1, 30.146, 205.645)"/>
</g>
<g clip-path="url(#clip-12)">
<path fill="none" stroke-width="0.3985" stroke-linecap="butt" stroke-linejoin="miter" stroke="rgb(69.999695%, 69.999695%, 69.999695%)" stroke-opacity="1" stroke-dasharray="2.98883 2.98883" stroke-miterlimit="10" d="M -0.00146875 37.11375 L 493.756344 37.11375 " transform="matrix(1, 0, 0, -1, 30.146, 205.645)"/>
</g>
<g clip-path="url(#clip-13)">
<path fill="none" stroke-width="0.3985" stroke-linecap="butt" stroke-linejoin="miter" stroke="rgb(94.119263%, 50.979614%, 11.764526%)" stroke-opacity="1" stroke-dasharray="2.98883 2.98883" stroke-miterlimit="10" d="M -0.00146875 37.11375 L 9.873531 22.352031 L 493.756344 22.352031 " transform="matrix(1, 0, 0, -1, 30.146, 205.645)"/>
</g>
<g clip-path="url(#clip-14)">
<path fill="none" stroke-width="0.3985" stroke-linecap="butt" stroke-linejoin="miter" stroke="rgb(94.119263%, 50.979614%, 11.764526%)" stroke-opacity="1" stroke-dasharray="2.98883 2.98883" stroke-miterlimit="10" d="M -0.00146875 37.11375 L 9.873531 51.875469 L 187.627437 51.875469 L 197.502437 27.441875 L 207.377437 28.703594 L 276.502437 37.562969 L 286.377437 51.875469 L 493.756344 51.875469 " transform="matrix(1, 0, 0, -1, 30.146, 205.645)"/>
</g>
<g clip-path="url(#clip-15)">
<path fill="none" stroke-width="1.99255" stroke-linecap="butt" stroke-linejoin="miter" stroke="rgb(17.999268%, 68.598938%, 31.399536%)" stroke-opacity="1" stroke-miterlimit="10" d="M -0.00146875 37.11375 L 19.748531 35.996563 L 29.623531 35.441875 L 39.502437 34.887188 L 59.252437 33.777813 L 69.127437 33.230938 L 88.877437 32.145 L 98.752437 31.61375 L 108.627437 31.090313 L 118.502437 30.574688 L 128.377437 30.078594 L 138.252437 29.594219 L 148.127437 29.137188 L 158.002437 28.7075 L 167.877437 28.316875 L 177.752437 27.965313 L 187.627437 27.668438 L 197.502437 27.441875 L 207.377437 27.289531 L 217.252437 27.203594 L 227.127437 27.172344 L 237.002437 27.180156 L 246.877437 27.227031 L 256.752437 27.297344 L 266.627437 27.387188 L 276.502437 27.492656 L 286.377437 27.609844 L 296.252437 27.734844 L 316.002437 27.992656 L 325.877437 28.125469 L 335.752437 28.254375 L 345.631344 28.383281 L 355.506344 28.504375 L 365.381344 28.621563 L 375.256344 28.734844 L 385.131344 28.844219 L 395.006344 28.945781 L 404.881344 29.039531 L 414.756344 29.129375 L 424.631344 29.215313 L 434.506344 29.293438 L 444.381344 29.36375 L 454.256344 29.430156 L 474.006344 29.555156 L 493.756344 29.664531 " transform="matrix(1, 0, 0, -1, 30.146, 205.645)"/>
</g>
<path fill-rule="nonzero" fill="rgb(90.19928%, 39.199829%, 39.199829%)" fill-opacity="0.95" d="M 272.128906 178.652344 C 272.128906 175.902344 269.898438 173.671875 267.148438 173.671875 C 264.398438 173.671875 262.167969 175.902344 262.167969 178.652344 C 262.167969 181.40625 264.398438 183.636719 267.148438 183.636719 C 269.898438 183.636719 272.128906 181.40625 272.128906 178.652344 Z M 272.128906 178.652344 "/>
<path fill-rule="nonzero" fill="rgb(90.19928%, 39.199829%, 39.199829%)" fill-opacity="0.55" d="M 272.128906 165.292969 C 272.128906 162.542969 269.898438 160.3125 267.148438 160.3125 C 264.398438 160.3125 262.167969 162.542969 262.167969 165.292969 C 262.167969 168.042969 264.398438 170.273438 267.148438 170.273438 C 269.898438 170.273438 272.128906 168.042969 272.128906 165.292969 Z M 272.128906 165.292969 "/>
<path fill-rule="nonzero" fill="rgb(90.19928%, 39.199829%, 39.199829%)" fill-opacity="0.35" d="M 272.128906 151.933594 C 272.128906 149.179688 269.898438 146.949219 267.148438 146.949219 C 264.398438 146.949219 262.167969 149.179688 262.167969 151.933594 C 262.167969 154.683594 264.398438 156.914062 267.148438 156.914062 C 269.898438 156.914062 272.128906 154.683594 272.128906 151.933594 Z M 272.128906 151.933594 "/>
<path fill-rule="nonzero" fill="rgb(90.19928%, 39.199829%, 39.199829%)" fill-opacity="0.2" d="M 272.128906 138.167969 C 272.128906 135.414062 269.898438 133.183594 267.148438 133.183594 C 264.398438 133.183594 262.167969 135.414062 262.167969 138.167969 C 262.167969 140.917969 264.398438 143.148438 267.148438 143.148438 C 269.898438 143.148438 272.128906 140.917969 272.128906 138.167969 Z M 272.128906 138.167969 "/>
<path fill="none" stroke-width="1.19553" stroke-linecap="butt" stroke-linejoin="miter" stroke="rgb(90.19928%, 39.199829%, 39.199829%)" stroke-opacity="0.85" stroke-miterlimit="10" d="M 237.002437 26.992656 L 237.002437 66.281719 " transform="matrix(1, 0, 0, -1, 30.146, 205.645)"/>
<path fill="none" stroke-width="1.19553" stroke-linecap="round" stroke-linejoin="round" stroke="rgb(90.19928%, 39.199829%, 39.199829%)" stroke-opacity="0.85" stroke-miterlimit="10" d="M -3.028749 3.832694 C -2.474061 1.531912 -1.243592 0.445975 -0.001405 0.0006625 C -1.243592 -0.448556 -2.474061 -1.530588 -3.028749 -3.831369 " transform="matrix(0, -1, -1, 0, 267.1491, 138.76422)"/>
<g fill="rgb(90.19928%, 39.199829%, 39.199829%)" fill-opacity="1">
<use xlink:href="#glyph-2-0" x="233.226" y="160.927"/>
<use xlink:href="#glyph-2-1" x="238.726" y="160.927"/>
</g>
<g fill="rgb(90.19928%, 39.199829%, 39.199829%)" fill-opacity="1">
<use xlink:href="#glyph-3-0" x="245.601" y="160.927"/>
</g>
<g fill="rgb(90.19928%, 39.199829%, 39.199829%)" fill-opacity="1">
<use xlink:href="#glyph-4-0" x="252.019" y="160.927"/>
</g>
<g fill="rgb(90.19928%, 39.199829%, 39.199829%)" fill-opacity="1">
<use xlink:href="#glyph-4-1" x="259.917" y="160.927"/>
<use xlink:href="#glyph-4-2" x="262.8925" y="160.927"/>
<use xlink:href="#glyph-4-3" x="268.541" y="160.927"/>
</g>
<g fill="rgb(90.19928%, 39.199829%, 39.199829%)" fill-opacity="1">
<use xlink:href="#glyph-3-1" x="272.297" y="160.927"/>
</g>
<g fill="rgb(90.19928%, 39.199829%, 39.199829%)" fill-opacity="1">
<use xlink:href="#glyph-4-3" x="274.817" y="160.927"/>
</g>
<g fill="rgb(90.19928%, 39.199829%, 39.199829%)" fill-opacity="1">
<use xlink:href="#glyph-3-2" x="278.56" y="160.927"/>
</g>
<g fill="rgb(90.19928%, 39.199829%, 39.199829%)" fill-opacity="1">
<use xlink:href="#glyph-4-2" x="282.431" y="160.927"/>
<use xlink:href="#glyph-4-4" x="288.0795" y="160.927"/>
</g>
<g fill="rgb(90.19928%, 39.199829%, 39.199829%)" fill-opacity="1">
<use xlink:href="#glyph-3-1" x="291.827" y="160.927"/>
</g>
<g fill="rgb(90.19928%, 39.199829%, 39.199829%)" fill-opacity="1">
<use xlink:href="#glyph-4-5" x="294.348" y="160.927"/>
<use xlink:href="#glyph-4-6" x="298.088" y="160.927"/>
</g>
<g clip-path="url(#clip-16)">
<path fill-rule="nonzero" fill="rgb(48.823547%, 63.822937%, 77.352905%)" fill-opacity="1" stroke-width="0.79701" stroke-linecap="butt" stroke-linejoin="miter" stroke="rgb(31.765747%, 51.763916%, 69.802856%)" stroke-opacity="1" stroke-miterlimit="10" d="M -8.966313 33.129375 L 8.967281 33.129375 L 8.967281 41.098125 L -8.966313 41.098125 Z M -8.966313 33.129375 " transform="matrix(1, 0, 0, -1, 30.146, 205.645)"/>
</g>
<path fill-rule="nonzero" fill="rgb(100%, 100%, 100%)" fill-opacity="1" d="M 39.511719 168.53125 L 36.523438 166.042969 L 36.523438 171.023438 Z M 39.511719 168.53125 "/>
<g fill="rgb(31.799316%, 51.799011%, 69.799805%)" fill-opacity="1">
<use xlink:href="#glyph-5-0" x="37.795" y="148.702"/>
<use xlink:href="#glyph-5-1" x="41.4635" y="148.702"/>
<use xlink:href="#glyph-5-2" x="45.7425" y="148.702"/>
</g>
<g fill="rgb(0%, 0%, 0%)" fill-opacity="1">
<use xlink:href="#glyph-6-0" x="268.65" y="225.801"/>
</g>
<g fill="rgb(0%, 0%, 0%)" fill-opacity="1">
<use xlink:href="#glyph-7-0" x="274.568" y="225.801"/>
<use xlink:href="#glyph-7-1" x="277.0655" y="225.801"/>
<use xlink:href="#glyph-7-2" x="282.9005" y="225.801"/>
</g>
<g fill="rgb(0%, 0%, 0%)" fill-opacity="1">
<use xlink:href="#glyph-8-0" x="7.689" y="176.26"/>
</g>
<g fill="rgb(0%, 0%, 0%)" fill-opacity="1">
<use xlink:href="#glyph-9-0" x="7.689" y="171.632"/>
<use xlink:href="#glyph-9-1" x="7.689" y="169.1345"/>
<use xlink:href="#glyph-9-2" x="7.689" y="163.2995"/>
</g>
<path fill-rule="nonzero" fill="rgb(100%, 100%, 100%)" fill-opacity="0.85" d="M 467.300781 203.960938 L 513.824219 203.960938 L 513.824219 190.023438 L 467.300781 190.023438 Z M 467.300781 203.960938 "/>
<path fill="none" stroke-width="1.99255" stroke-linecap="butt" stroke-linejoin="miter" stroke="rgb(17.999268%, 68.598938%, 31.399536%)" stroke-opacity="1" stroke-miterlimit="10" d="M 0.00115625 -0.0011875 L 17.008969 -0.0011875 " transform="matrix(1, 0, 0, -1, 471.284, 196.991)"/>
<g fill="rgb(0%, 0%, 0%)" fill-opacity="0.85">
<use xlink:href="#glyph-10-7" x="491.28" y="198.401"/>
</g>
<g fill="rgb(0%, 0%, 0%)" fill-opacity="0.85">
<use xlink:href="#glyph-10-8" x="495.8495" y="198.401"/>
<use xlink:href="#glyph-10-9" x="499.821" y="198.401"/>
<use xlink:href="#glyph-10-10" x="504.514" y="198.401"/>
</g>
<g fill="rgb(0%, 0%, 0%)" fill-opacity="1">
<use xlink:href="#glyph-11-0" x="243.107" y="246.434"/>
<use xlink:href="#glyph-11-9" x="246.104" y="246.434"/>
<use xlink:href="#glyph-11-2" x="250.604" y="246.434"/>
</g>
<g fill="rgb(0%, 0%, 0%)" fill-opacity="1">
<use xlink:href="#glyph-11-10" x="255.842" y="246.434"/>
</g>
<g fill="rgb(0%, 0%, 0%)" fill-opacity="1">
<use xlink:href="#glyph-11-11" x="262.169" y="246.434"/>
<use xlink:href="#glyph-11-12" x="267.668" y="246.434"/>
<use xlink:href="#glyph-11-13" x="274.166" y="246.434"/>
</g>
</svg>
