<?xml version="1.0" encoding="UTF-8"?>
<svg xmlns="http://www.w3.org/2000/svg" xmlns:xlink="http://www.w3.org/1999/xlink" width="525pt" height="159pt" viewBox="0 0 525 159">
<defs>
<g>
<g id="glyph-0-0">
<path d="M 3.578125 -2.078125 C 3.578125 -2.546875 3.578125 -4.328125 1.984375 -4.328125 C 0.390625 -4.328125 0.390625 -2.546875 0.390625 -2.078125 C 0.390625 -1.609375 0.390625 0.140625 1.984375 0.140625 C 3.578125 0.140625 3.578125 -1.609375 3.578125 -2.078125 Z M 1.984375 -0.078125 C 1.703125 -0.078125 1.265625 -0.203125 1.109375 -0.734375 C 1 -1.125 1 -1.75 1 -2.15625 C 1 -2.59375 1 -3.09375 1.09375 -3.4375 C 1.265625 -4.03125 1.75 -4.109375 1.984375 -4.109375 C 2.28125 -4.109375 2.703125 -3.96875 2.859375 -3.484375 C 2.953125 -3.140625 2.953125 -2.65625 2.953125 -2.15625 C 2.953125 -1.734375 2.953125 -1.078125 2.84375 -0.71875 C 2.671875 -0.15625 2.203125 -0.078125 1.984375 -0.078125 Z M 1.984375 -0.078125 "/>
</g>
<g id="glyph-0-1">
<path d="M 3.5 -1.21875 L 3.25 -1.21875 C 3.25 -1.125 3.171875 -0.703125 3.078125 -0.625 C 3.03125 -0.578125 2.515625 -0.578125 2.421875 -0.578125 L 1.203125 -0.578125 L 2.03125 -1.265625 C 2.25 -1.4375 2.828125 -1.859375 3.03125 -2.046875 C 3.234375 -2.25 3.5 -2.578125 3.5 -3.03125 C 3.5 -3.84375 2.765625 -4.328125 1.890625 -4.328125 C 1.046875 -4.328125 0.46875 -3.765625 0.46875 -3.15625 C 0.46875 -2.828125 0.75 -2.78125 0.8125 -2.78125 C 0.984375 -2.78125 1.171875 -2.90625 1.171875 -3.140625 C 1.171875 -3.28125 1.078125 -3.484375 0.796875 -3.484375 C 0.953125 -3.828125 1.34375 -4.0625 1.796875 -4.0625 C 2.46875 -4.0625 2.84375 -3.5625 2.84375 -3.03125 C 2.84375 -2.578125 2.53125 -2.09375 2.078125 -1.6875 L 0.546875 -0.265625 C 0.46875 -0.203125 0.46875 -0.203125 0.46875 0 L 3.296875 0 Z M 3.5 -1.21875 "/>
</g>
<g id="glyph-0-2">
<path d="M 3.671875 -1.0625 L 3.671875 -1.3125 L 2.90625 -1.3125 L 2.90625 -4.1875 C 2.90625 -4.34375 2.90625 -4.390625 2.75 -4.390625 C 2.625 -4.390625 2.609375 -4.375 2.546875 -4.296875 L 0.296875 -1.3125 L 0.296875 -1.0625 L 2.328125 -1.0625 L 2.328125 -0.546875 C 2.328125 -0.328125 2.328125 -0.25 1.78125 -0.25 L 1.59375 -0.25 L 1.59375 0 C 1.71875 0 2.328125 -0.03125 2.609375 -0.03125 C 2.90625 -0.03125 3.515625 0 3.640625 0 L 3.640625 -0.25 L 3.453125 -0.25 C 2.90625 -0.25 2.90625 -0.328125 2.90625 -0.546875 L 2.90625 -1.0625 Z M 2.359375 -3.671875 L 2.359375 -1.3125 L 0.578125 -1.3125 Z M 2.359375 -3.671875 "/>
</g>
<g id="glyph-0-3">
<path d="M 1.0625 -2.15625 C 1.0625 -2.46875 1.078125 -3.015625 1.3125 -3.421875 C 1.59375 -3.90625 2.015625 -4.109375 2.40625 -4.109375 C 2.5625 -4.109375 2.859375 -4.078125 3.015625 -3.90625 C 2.78125 -3.859375 2.734375 -3.6875 2.734375 -3.59375 C 2.734375 -3.421875 2.859375 -3.28125 3.046875 -3.28125 C 3.25 -3.28125 3.359375 -3.40625 3.359375 -3.59375 C 3.359375 -4 3.0625 -4.328125 2.40625 -4.328125 C 1.390625 -4.328125 0.40625 -3.4375 0.40625 -2.0625 C 0.40625 -0.484375 1.140625 0.140625 2 0.140625 C 2.25 0.140625 2.703125 0.09375 3.09375 -0.28125 C 3.296875 -0.5 3.5625 -0.75 3.5625 -1.328125 C 3.5625 -1.546875 3.53125 -1.96875 3.140625 -2.328125 C 2.90625 -2.546875 2.625 -2.765625 2.0625 -2.765625 C 1.609375 -2.765625 1.28125 -2.53125 1.0625 -2.15625 Z M 2 -0.09375 C 1.078125 -0.09375 1.078125 -1.21875 1.078125 -1.46875 C 1.078125 -2.03125 1.453125 -2.5625 2.03125 -2.5625 C 2.375 -2.5625 2.5625 -2.421875 2.71875 -2.21875 C 2.90625 -1.96875 2.90625 -1.671875 2.90625 -1.328125 C 2.90625 -0.875 2.890625 -0.65625 2.671875 -0.390625 C 2.515625 -0.203125 2.3125 -0.09375 2 -0.09375 Z M 2 -0.09375 "/>
</g>
<g id="glyph-0-4">
<path d="M 2.5 -2.34375 C 2.984375 -2.5625 3.34375 -2.875 3.34375 -3.34375 C 3.34375 -3.984375 2.671875 -4.328125 1.984375 -4.328125 C 1.25 -4.328125 0.625 -3.875 0.625 -3.21875 C 0.625 -2.828125 0.890625 -2.515625 1.15625 -2.34375 C 1.21875 -2.3125 1.375 -2.21875 1.4375 -2.1875 C 1.015625 -2.015625 0.40625 -1.65625 0.40625 -1 C 0.40625 -0.234375 1.21875 0.140625 1.96875 0.140625 C 2.84375 0.140625 3.5625 -0.390625 3.5625 -1.109375 C 3.5625 -1.546875 3.28125 -1.8125 3.1875 -1.921875 C 3.0625 -2.03125 2.734375 -2.21875 2.5 -2.34375 Z M 1.328125 -2.984375 C 1.3125 -3 0.984375 -3.171875 0.984375 -3.484375 C 0.984375 -3.90625 1.5 -4.109375 1.96875 -4.109375 C 2.484375 -4.109375 2.984375 -3.828125 2.984375 -3.34375 C 2.984375 -2.84375 2.4375 -2.578125 2.265625 -2.484375 Z M 1.703125 -2.046875 C 1.78125 -2.015625 2.46875 -1.625 2.640625 -1.53125 C 2.78125 -1.4375 3.140625 -1.25 3.140625 -0.875 C 3.140625 -0.359375 2.546875 -0.09375 1.984375 -0.09375 C 1.390625 -0.09375 0.828125 -0.453125 0.828125 -1 C 0.828125 -1.546875 1.34375 -1.921875 1.703125 -2.046875 Z M 1.703125 -2.046875 "/>
</g>
<g id="glyph-0-5">
<path d="M 2.328125 -4.125 C 2.328125 -4.328125 2.3125 -4.328125 2.109375 -4.328125 C 1.6875 -3.90625 1.015625 -3.90625 0.78125 -3.90625 L 0.78125 -3.65625 C 0.953125 -3.65625 1.390625 -3.65625 1.78125 -3.828125 L 1.78125 -0.546875 C 1.78125 -0.34375 1.78125 -0.25 1.109375 -0.25 L 0.828125 -0.25 L 0.828125 0 C 1.1875 -0.03125 1.6875 -0.03125 2.046875 -0.03125 C 2.421875 -0.03125 2.921875 -0.03125 3.28125 0 L 3.28125 -0.25 L 3 -0.25 C 2.328125 -0.25 2.328125 -0.34375 2.328125 -0.546875 Z M 2.328125 -4.125 "/>
</g>
<g id="glyph-1-0">
<path d="M 1.84375 -2.96875 L 2.609375 -2.96875 C 2.75 -2.96875 2.84375 -2.96875 2.84375 -3.125 C 2.84375 -3.234375 2.75 -3.234375 2.625 -3.234375 L 1.90625 -3.234375 L 2.1875 -4.34375 C 2.203125 -4.375 2.21875 -4.421875 2.21875 -4.453125 C 2.21875 -4.578125 2.109375 -4.6875 1.953125 -4.6875 C 1.765625 -4.6875 1.65625 -4.5625 1.609375 -4.359375 C 1.546875 -4.171875 1.65625 -4.53125 1.3125 -3.234375 L 0.5625 -3.234375 C 0.40625 -3.234375 0.3125 -3.234375 0.3125 -3.0625 C 0.3125 -2.96875 0.40625 -2.96875 0.546875 -2.96875 L 1.25 -2.96875 L 0.8125 -1.1875 C 0.765625 -1 0.703125 -0.734375 0.703125 -0.640625 C 0.703125 -0.1875 1.078125 0.078125 1.5 0.078125 C 2.328125 0.078125 2.8125 -0.96875 2.8125 -1.078125 C 2.8125 -1.171875 2.703125 -1.171875 2.6875 -1.171875 C 2.59375 -1.171875 2.59375 -1.15625 2.53125 -1.03125 C 2.3125 -0.5625 1.9375 -0.140625 1.515625 -0.140625 C 1.359375 -0.140625 1.265625 -0.234375 1.265625 -0.5 C 1.265625 -0.578125 1.296875 -0.734375 1.3125 -0.8125 Z M 1.84375 -2.96875 "/>
</g>
<g id="glyph-2-0">
<path d="M 2.28125 1.203125 C 1.6875 0.734375 1.46875 0.46875 1.265625 -0.09375 C 1.09375 -0.59375 1 -1.15625 1 -1.90625 C 1 -2.703125 1.109375 -3.3125 1.3125 -3.78125 C 1.515625 -4.25 1.734375 -4.515625 2.28125 -4.953125 L 2.21875 -5.0625 C 1.65625 -4.703125 1.4375 -4.515625 1.15625 -4.171875 C 0.625 -3.515625 0.359375 -2.765625 0.359375 -1.890625 C 0.359375 -0.9375 0.640625 -0.203125 1.296875 0.5625 C 1.609375 0.921875 1.796875 1.09375 2.1875 1.328125 Z M 2.28125 1.203125 "/>
</g>
<g id="glyph-2-1">
<path d="M 2.609375 -0.890625 C 2.609375 -1.265625 2.4375 -1.5 1.984375 -1.78125 L 1.171875 -2.25 C 0.953125 -2.375 0.84375 -2.5625 0.84375 -2.765625 C 0.84375 -3.078125 1.078125 -3.28125 1.421875 -3.28125 C 1.859375 -3.28125 2.078125 -3.03125 2.25 -2.359375 L 2.359375 -2.359375 L 2.328125 -3.375 L 2.25 -3.375 L 2.234375 -3.359375 C 2.171875 -3.3125 2.15625 -3.296875 2.125 -3.296875 C 2.078125 -3.296875 2.015625 -3.3125 1.921875 -3.359375 C 1.765625 -3.40625 1.59375 -3.4375 1.421875 -3.4375 C 0.796875 -3.4375 0.375 -3.0625 0.375 -2.515625 C 0.375 -2.09375 0.625 -1.8125 1.265625 -1.4375 L 1.6875 -1.1875 C 1.953125 -1.046875 2.078125 -0.859375 2.078125 -0.625 C 2.078125 -0.296875 1.84375 -0.09375 1.46875 -0.09375 C 0.9375 -0.09375 0.6875 -0.375 0.515625 -1.140625 L 0.390625 -1.140625 L 0.390625 0.03125 L 0.484375 0.03125 C 0.546875 -0.046875 0.5625 -0.0625 0.65625 -0.0625 C 0.75 -0.0625 0.828125 -0.046875 1 0 C 1.21875 0.046875 1.40625 0.078125 1.5625 0.078125 C 2.125 0.078125 2.609375 -0.359375 2.609375 -0.890625 Z M 2.609375 -0.890625 "/>
</g>
<g id="glyph-2-2">
<path d="M 2.140625 -1.859375 C 2.140625 -2.8125 1.859375 -3.546875 1.203125 -4.3125 C 0.890625 -4.671875 0.703125 -4.828125 0.3125 -5.0625 L 0.21875 -4.953125 C 0.8125 -4.484375 1.015625 -4.21875 1.234375 -3.65625 C 1.40625 -3.15625 1.5 -2.578125 1.5 -1.828125 C 1.5 -1.046875 1.390625 -0.421875 1.1875 0.03125 C 0.984375 0.5 0.75 0.765625 0.21875 1.203125 L 0.28125 1.328125 C 0.84375 0.96875 1.0625 0.765625 1.34375 0.421875 C 1.875 -0.21875 2.140625 -0.96875 2.140625 -1.859375 Z M 2.140625 -1.859375 "/>
</g>
<g id="glyph-3-0">
<path d="M -2.8125 -3.234375 C -2.78125 -3.03125 -2.625 -2.921875 -2.46875 -2.921875 C -2.296875 -2.921875 -2.234375 -3.0625 -2.234375 -3.171875 C -2.234375 -3.234375 -2.265625 -3.53125 -2.65625 -3.53125 C -3.140625 -3.53125 -3.3125 -2.984375 -3.3125 -2.53125 C -3.3125 -1.359375 -2.4375 -1.140625 -2.21875 -1.140625 C -1.9375 -1.140625 -1.75 -1.3125 -1.671875 -1.40625 C -1.515625 -1.609375 -1.484375 -1.734375 -1.390625 -2.25 C -1.359375 -2.421875 -1.28125 -2.890625 -0.90625 -2.890625 C -0.765625 -2.890625 -0.484375 -2.8125 -0.296875 -2.5 C -0.140625 -2.203125 -0.140625 -1.84375 -0.140625 -1.75 C -0.140625 -1.453125 -0.203125 -1.015625 -0.453125 -0.84375 C -0.484375 -1.09375 -0.671875 -1.265625 -0.875 -1.265625 C -1.0625 -1.265625 -1.15625 -1.125 -1.15625 -0.96875 C -1.15625 -0.75 -0.984375 -0.53125 -0.65625 -0.53125 C -0.203125 -0.53125 0.078125 -1.015625 0.078125 -1.734375 C 0.078125 -3.125 -0.875 -3.375 -1.15625 -3.375 C -1.859375 -3.375 -1.984375 -2.625 -2.046875 -2.34375 C -2.0625 -2.265625 -2.078125 -2.078125 -2.09375 -2.046875 C -2.15625 -1.765625 -2.3125 -1.625 -2.46875 -1.625 C -2.640625 -1.625 -2.84375 -1.765625 -2.953125 -1.921875 C -3.078125 -2.125 -3.09375 -2.390625 -3.09375 -2.515625 C -3.09375 -2.671875 -3.078125 -3.0625 -2.8125 -3.234375 Z M -2.8125 -3.234375 "/>
</g>
<g id="glyph-4-0">
<path d="M 1.203125 -2.28125 C 0.734375 -1.6875 0.46875 -1.46875 -0.09375 -1.265625 C -0.59375 -1.09375 -1.15625 -1 -1.90625 -1 C -2.703125 -1 -3.3125 -1.109375 -3.78125 -1.3125 C -4.25 -1.515625 -4.515625 -1.734375 -4.953125 -2.28125 L -5.0625 -2.21875 C -4.703125 -1.65625 -4.515625 -1.4375 -4.171875 -1.15625 C -3.515625 -0.625 -2.765625 -0.359375 -1.890625 -0.359375 C -0.9375 -0.359375 -0.203125 -0.640625 0.5625 -1.296875 C 0.921875 -1.609375 1.09375 -1.796875 1.328125 -2.1875 Z M 1.203125 -2.28125 "/>
</g>
<g id="glyph-4-1">
<path d="M 0 -5.8125 L -0.109375 -5.8125 L -0.125 -5.625 C -0.140625 -5.390625 -0.28125 -5.296875 -0.5625 -5.296875 L -2.109375 -5.296875 C -3 -5.296875 -3.453125 -5 -3.453125 -4.421875 C -3.453125 -3.984375 -3.25 -3.609375 -2.8125 -3.203125 C -3.25 -3.0625 -3.453125 -2.8125 -3.453125 -2.40625 C -3.453125 -2.078125 -3.34375 -1.875 -2.875 -1.25 L -3.4375 -1.25 L -3.453125 -1.1875 C -3.3125 -0.8125 -3.21875 -0.5625 -3.109375 -0.140625 L -2.984375 -0.140625 C -3 -0.234375 -3.015625 -0.296875 -3.015625 -0.375 C -3.015625 -0.578125 -2.890625 -0.640625 -2.53125 -0.640625 L -0.640625 -0.640625 C -0.234375 -0.640625 -0.125 -0.546875 -0.109375 -0.125 L 0 -0.125 L 0 -1.78125 L -0.109375 -1.78125 C -0.125 -1.390625 -0.203125 -1.28125 -0.5 -1.28125 L -2.625 -1.28125 C -2.625 -1.28125 -2.703125 -1.328125 -2.765625 -1.390625 C -2.9375 -1.578125 -3.0625 -1.890625 -3.0625 -2.15625 C -3.0625 -2.484375 -2.796875 -2.65625 -2.265625 -2.65625 L -0.640625 -2.65625 C -0.21875 -2.65625 -0.140625 -2.578125 -0.109375 -2.140625 L 0 -2.140625 L 0 -3.828125 L -0.109375 -3.828125 C -0.125 -3.390625 -0.25 -3.28125 -0.71875 -3.28125 L -2.609375 -3.28125 C -2.921875 -3.515625 -3.0625 -3.75 -3.0625 -4.109375 C -3.0625 -4.53125 -2.859375 -4.671875 -2.234375 -4.671875 L -0.65625 -4.671875 C -0.21875 -4.671875 -0.171875 -4.609375 -0.109375 -4.171875 L 0 -4.171875 Z M 0 -5.8125 "/>
</g>
<g id="glyph-4-2">
<path d="M -1.859375 -2.140625 C -2.8125 -2.140625 -3.546875 -1.859375 -4.3125 -1.203125 C -4.671875 -0.890625 -4.828125 -0.703125 -5.0625 -0.3125 L -4.953125 -0.21875 C -4.484375 -0.8125 -4.21875 -1.015625 -3.65625 -1.234375 C -3.15625 -1.40625 -2.578125 -1.5 -1.828125 -1.5 C -1.046875 -1.5 -0.421875 -1.390625 0.03125 -1.1875 C 0.5 -0.984375 0.765625 -0.75 1.203125 -0.21875 L 1.328125 -0.28125 C 0.96875 -0.84375 0.765625 -1.0625 0.421875 -1.34375 C -0.21875 -1.875 -0.96875 -2.140625 -1.859375 -2.140625 Z M -1.859375 -2.140625 "/>
</g>
<g id="glyph-5-0">
<path d="M 2.96875 -2.4375 C 2.78125 -2.40625 2.703125 -2.234375 2.703125 -2.140625 C 2.703125 -2.03125 2.78125 -1.921875 2.9375 -1.921875 C 3.0625 -1.921875 3.25 -2.015625 3.25 -2.296875 C 3.25 -2.734375 2.765625 -2.859375 2.34375 -2.859375 C 1.34375 -2.859375 1.109375 -2.203125 1.109375 -1.9375 C 1.109375 -1.40625 1.703125 -1.296875 1.875 -1.28125 C 2.359375 -1.1875 2.734375 -1.125 2.734375 -0.796875 C 2.734375 -0.65625 2.625 -0.421875 2.390625 -0.296875 C 2.140625 -0.15625 1.859375 -0.15625 1.671875 -0.15625 C 1.4375 -0.15625 1.046875 -0.171875 0.84375 -0.390625 C 1.078125 -0.421875 1.1875 -0.609375 1.1875 -0.765625 C 1.1875 -0.890625 1.09375 -1 0.921875 -1 C 0.75 -1 0.546875 -0.875 0.546875 -0.5625 C 0.546875 -0.203125 0.90625 0.0625 1.65625 0.0625 C 2.875 0.0625 3.140625 -0.6875 3.140625 -0.984375 C 3.140625 -1.203125 3.046875 -1.359375 2.90625 -1.484375 C 2.6875 -1.65625 2.453125 -1.703125 2.140625 -1.75 C 1.8125 -1.8125 1.515625 -1.859375 1.515625 -2.125 C 1.515625 -2.125 1.515625 -2.65625 2.328125 -2.65625 C 2.5 -2.65625 2.828125 -2.625 2.96875 -2.4375 Z M 2.96875 -2.4375 "/>
</g>
<g id="glyph-6-0">
<path d="M 3.296875 -3.265625 C 3.3125 -3.34375 3.3125 -3.34375 3.3125 -3.375 C 3.3125 -3.453125 3.25 -3.453125 3.171875 -3.453125 L 2.546875 -3.40625 C 2.46875 -3.40625 2.453125 -3.40625 2.4375 -3.375 C 2.40625 -3.359375 2.390625 -3.296875 2.390625 -3.265625 C 2.390625 -3.1875 2.484375 -3.1875 2.546875 -3.1875 C 2.546875 -3.1875 2.640625 -3.1875 2.71875 -3.171875 C 2.8125 -3.15625 2.8125 -3.140625 2.8125 -3.109375 C 2.8125 -3.078125 2.78125 -2.9375 2.75 -2.84375 L 2.515625 -1.90625 C 2.421875 -2.03125 2.234375 -2.203125 1.921875 -2.203125 C 1.21875 -2.203125 0.515625 -1.515625 0.515625 -0.8125 C 0.515625 -0.296875 0.890625 0.0625 1.390625 0.0625 C 1.796875 0.0625 2.125 -0.234375 2.1875 -0.296875 C 2.265625 -0.046875 2.546875 0.0625 2.765625 0.0625 C 2.96875 0.0625 3.109375 -0.0625 3.203125 -0.21875 C 3.34375 -0.421875 3.40625 -0.6875 3.40625 -0.71875 C 3.40625 -0.78125 3.328125 -0.78125 3.296875 -0.78125 C 3.21875 -0.78125 3.203125 -0.75 3.1875 -0.671875 C 3.09375 -0.3125 2.96875 -0.109375 2.796875 -0.109375 C 2.65625 -0.109375 2.59375 -0.21875 2.59375 -0.375 C 2.59375 -0.4375 2.59375 -0.484375 2.609375 -0.53125 Z M 2.21875 -0.65625 C 2.1875 -0.59375 2.1875 -0.578125 2.109375 -0.484375 C 1.921875 -0.265625 1.65625 -0.109375 1.40625 -0.109375 C 1.234375 -0.109375 0.96875 -0.203125 0.96875 -0.625 C 0.96875 -0.859375 1.09375 -1.375 1.265625 -1.640625 C 1.453125 -1.90625 1.71875 -2.03125 1.921875 -2.03125 C 2.140625 -2.03125 2.359375 -1.90625 2.4375 -1.59375 Z M 2.21875 -0.65625 "/>
</g>
<g id="glyph-6-1">
<path d="M 0.703125 0.578125 C 0.65625 0.71875 0.65625 0.75 0.4375 0.75 C 0.359375 0.75 0.28125 0.75 0.28125 0.875 C 0.28125 0.9375 0.3125 0.96875 0.359375 0.96875 C 0.421875 0.96875 0.515625 0.953125 0.59375 0.953125 C 0.671875 0.953125 0.765625 0.953125 0.84375 0.953125 C 0.953125 0.953125 1.046875 0.953125 1.140625 0.953125 C 1.21875 0.953125 1.328125 0.96875 1.421875 0.96875 C 1.484375 0.96875 1.546875 0.9375 1.546875 0.828125 C 1.546875 0.75 1.453125 0.75 1.390625 0.75 C 1.21875 0.75 1.109375 0.75 1.109375 0.6875 C 1.109375 0.65625 1.1875 0.34375 1.34375 -0.25 C 1.46875 -0.078125 1.671875 0.0625 1.9375 0.0625 C 2.640625 0.0625 3.34375 -0.640625 3.34375 -1.328125 C 3.34375 -1.828125 2.96875 -2.203125 2.46875 -2.203125 C 2.078125 -2.203125 1.78125 -1.953125 1.671875 -1.859375 C 1.578125 -2.125 1.28125 -2.203125 1.09375 -2.203125 C 0.921875 -2.203125 0.765625 -2.125 0.640625 -1.921875 C 0.515625 -1.71875 0.453125 -1.453125 0.453125 -1.4375 C 0.453125 -1.359375 0.53125 -1.359375 0.5625 -1.359375 C 0.640625 -1.359375 0.65625 -1.390625 0.671875 -1.46875 C 0.734375 -1.671875 0.828125 -2.03125 1.0625 -2.03125 C 1.234375 -2.03125 1.265625 -1.875 1.265625 -1.765625 C 1.265625 -1.703125 1.265625 -1.6875 1.25 -1.640625 Z M 1.65625 -1.484375 C 1.671875 -1.5625 1.671875 -1.578125 1.765625 -1.671875 C 1.953125 -1.890625 2.21875 -2.03125 2.453125 -2.03125 C 2.65625 -2.03125 2.890625 -1.90625 2.890625 -1.53125 C 2.890625 -1.3125 2.78125 -0.828125 2.640625 -0.59375 C 2.421875 -0.21875 2.125 -0.109375 1.9375 -0.109375 C 1.53125 -0.109375 1.421875 -0.515625 1.421875 -0.5625 C 1.421875 -0.578125 1.4375 -0.609375 1.4375 -0.640625 Z M 1.65625 -1.484375 "/>
</g>
<g id="glyph-6-2">
<path d="M 2.984375 -2.015625 C 3 -2.078125 3 -2.09375 3 -2.125 C 3 -2.1875 2.9375 -2.203125 2.921875 -2.203125 C 2.859375 -2.203125 2.625 -2 2.546875 -1.875 C 2.453125 -2.015625 2.265625 -2.203125 1.921875 -2.203125 C 1.234375 -2.203125 0.53125 -1.53125 0.53125 -0.8125 C 0.53125 -0.296875 0.90625 0.0625 1.390625 0.0625 C 1.703125 0.0625 1.953125 -0.09375 2.09375 -0.21875 C 2.015625 0.15625 1.890625 0.609375 1.890625 0.625 C 1.859375 0.703125 1.84375 0.734375 1.53125 0.75 C 1.4375 0.75 1.359375 0.75 1.359375 0.875 C 1.359375 0.90625 1.375 0.96875 1.453125 0.96875 C 1.53125 0.96875 1.640625 0.953125 1.734375 0.953125 C 1.828125 0.953125 1.921875 0.953125 2.03125 0.953125 C 2.125 0.953125 2.21875 0.953125 2.3125 0.953125 C 2.40625 0.953125 2.515625 0.96875 2.609375 0.96875 C 2.6875 0.96875 2.734375 0.9375 2.734375 0.828125 C 2.734375 0.75 2.65625 0.75 2.59375 0.75 C 2.421875 0.75 2.3125 0.75 2.3125 0.6875 C 2.3125 0.671875 2.3125 0.65625 2.34375 0.578125 Z M 2.203125 -0.65625 C 2.1875 -0.578125 2.1875 -0.5625 2.09375 -0.46875 C 1.875 -0.234375 1.609375 -0.109375 1.421875 -0.109375 C 1.25 -0.109375 0.984375 -0.203125 0.984375 -0.625 C 0.984375 -0.828125 1.078125 -1.296875 1.234375 -1.578125 C 1.390625 -1.84375 1.671875 -2.03125 1.921875 -2.03125 C 2.34375 -2.03125 2.4375 -1.625 2.4375 -1.59375 C 2.4375 -1.5625 2.4375 -1.53125 2.421875 -1.515625 Z M 2.203125 -0.65625 "/>
</g>
<g id="glyph-7-0">
<path d="M 1.96875 1.046875 C 1.453125 0.640625 1.28125 0.40625 1.09375 -0.078125 C 0.9375 -0.515625 0.875 -1 0.875 -1.65625 C 0.875 -2.34375 0.953125 -2.875 1.125 -3.28125 C 1.3125 -3.671875 1.515625 -3.90625 1.96875 -4.296875 L 1.921875 -4.390625 C 1.4375 -4.078125 1.234375 -3.90625 1 -3.609375 C 0.546875 -3.046875 0.3125 -2.40625 0.3125 -1.640625 C 0.3125 -0.8125 0.546875 -0.171875 1.125 0.484375 C 1.390625 0.796875 1.5625 0.9375 1.890625 1.15625 Z M 1.96875 1.046875 "/>
</g>
<g id="glyph-7-1">
<path d="M 3.859375 -1.171875 C 3.859375 -1.453125 3.734375 -1.71875 3.53125 -1.90625 C 3.34375 -2.078125 3.171875 -2.15625 2.75 -2.265625 C 3.078125 -2.34375 3.21875 -2.40625 3.375 -2.546875 C 3.53125 -2.6875 3.640625 -2.9375 3.640625 -3.203125 C 3.640625 -3.921875 3.0625 -4.296875 1.9375 -4.296875 L 0.109375 -4.296875 L 0.109375 -4.171875 C 0.65625 -4.140625 0.734375 -4.078125 0.734375 -3.59375 L 0.734375 -0.703125 C 0.734375 -0.234375 0.65625 -0.140625 0.109375 -0.125 L 0.109375 0 L 2.28125 0 C 2.78125 0 3.25 -0.140625 3.484375 -0.359375 C 3.71875 -0.5625 3.859375 -0.859375 3.859375 -1.171875 Z M 3.109375 -1.15625 C 3.109375 -0.8125 2.96875 -0.5625 2.703125 -0.40625 C 2.5 -0.296875 2.234375 -0.234375 1.8125 -0.234375 C 1.484375 -0.234375 1.390625 -0.296875 1.390625 -0.5 L 1.390625 -2.125 C 2.03125 -2.125 2.328125 -2.09375 2.5625 -1.984375 C 2.9375 -1.828125 3.109375 -1.578125 3.109375 -1.15625 Z M 2.96875 -3.171875 C 2.96875 -2.671875 2.625 -2.375 2.015625 -2.375 L 1.390625 -2.375 L 1.390625 -3.875 C 1.390625 -4 1.4375 -4.0625 1.546875 -4.0625 L 1.828125 -4.0625 C 2.578125 -4.0625 2.96875 -3.75 2.96875 -3.171875 Z M 2.96875 -3.171875 "/>
</g>
<g id="glyph-7-2">
<path d="M 2.875 -0.265625 L 2.875 -0.421875 C 2.765625 -0.34375 2.6875 -0.3125 2.59375 -0.3125 C 2.4375 -0.3125 2.390625 -0.390625 2.390625 -0.6875 L 2.390625 -1.953125 C 2.390625 -2.28125 2.359375 -2.46875 2.265625 -2.609375 C 2.125 -2.859375 1.859375 -2.984375 1.453125 -2.984375 C 1.125 -2.984375 0.8125 -2.90625 0.625 -2.75 C 0.46875 -2.609375 0.359375 -2.421875 0.359375 -2.265625 C 0.359375 -2.109375 0.484375 -1.984375 0.640625 -1.984375 C 0.796875 -1.984375 0.9375 -2.109375 0.9375 -2.25 C 0.9375 -2.28125 0.921875 -2.3125 0.921875 -2.359375 C 0.90625 -2.421875 0.90625 -2.46875 0.90625 -2.515625 C 0.90625 -2.6875 1.109375 -2.828125 1.375 -2.828125 C 1.6875 -2.828125 1.859375 -2.640625 1.859375 -2.296875 L 1.859375 -1.890625 C 0.859375 -1.5 0.75 -1.4375 0.46875 -1.203125 C 0.328125 -1.0625 0.234375 -0.84375 0.234375 -0.625 C 0.234375 -0.21875 0.515625 0.0625 0.921875 0.0625 C 1.203125 0.0625 1.46875 -0.078125 1.875 -0.40625 C 1.90625 -0.0625 2.015625 0.0625 2.28125 0.0625 C 2.515625 0.0625 2.640625 -0.015625 2.875 -0.265625 Z M 1.859375 -0.796875 C 1.859375 -0.59375 1.828125 -0.546875 1.703125 -0.453125 C 1.546875 -0.359375 1.359375 -0.3125 1.21875 -0.3125 C 1 -0.3125 0.8125 -0.53125 0.8125 -0.8125 L 0.8125 -0.84375 C 0.8125 -1.21875 1.078125 -1.453125 1.859375 -1.734375 Z M 1.859375 -0.796875 "/>
</g>
<g id="glyph-7-3">
<path d="M 2.265625 -0.765625 C 2.265625 -1.09375 2.109375 -1.3125 1.71875 -1.546875 L 1.015625 -1.953125 C 0.828125 -2.0625 0.734375 -2.21875 0.734375 -2.40625 C 0.734375 -2.671875 0.9375 -2.84375 1.234375 -2.84375 C 1.609375 -2.84375 1.796875 -2.625 1.953125 -2.046875 L 2.046875 -2.046875 L 2.015625 -2.921875 L 1.953125 -2.921875 L 1.9375 -2.90625 C 1.875 -2.859375 1.875 -2.859375 1.84375 -2.859375 C 1.8125 -2.859375 1.734375 -2.875 1.671875 -2.90625 C 1.53125 -2.953125 1.390625 -2.984375 1.234375 -2.984375 C 0.703125 -2.984375 0.328125 -2.65625 0.328125 -2.1875 C 0.328125 -1.8125 0.546875 -1.5625 1.09375 -1.25 L 1.46875 -1.03125 C 1.703125 -0.90625 1.8125 -0.75 1.8125 -0.546875 C 1.8125 -0.265625 1.59375 -0.078125 1.265625 -0.078125 C 0.8125 -0.078125 0.59375 -0.328125 0.4375 -0.984375 L 0.34375 -0.984375 L 0.34375 0.03125 L 0.421875 0.03125 C 0.46875 -0.03125 0.5 -0.046875 0.578125 -0.046875 C 0.640625 -0.046875 0.71875 -0.03125 0.875 0 C 1.046875 0.03125 1.21875 0.0625 1.359375 0.0625 C 1.84375 0.0625 2.265625 -0.3125 2.265625 -0.765625 Z M 2.265625 -0.765625 "/>
</g>
<g id="glyph-7-4">
<path d="M 2.75 -1.015625 L 2.65625 -1.0625 C 2.34375 -0.578125 2.0625 -0.390625 1.640625 -0.390625 C 1.28125 -0.390625 1.015625 -0.546875 0.828125 -0.90625 C 0.703125 -1.15625 0.640625 -1.390625 0.625 -1.796875 L 2.625 -1.796875 C 2.578125 -2.21875 2.515625 -2.40625 2.359375 -2.625 C 2.15625 -2.859375 1.859375 -2.984375 1.515625 -2.984375 C 0.71875 -2.984375 0.15625 -2.34375 0.15625 -1.390625 C 0.15625 -0.5 0.625 0.0625 1.375 0.0625 C 2 0.0625 2.484375 -0.3125 2.75 -1.015625 Z M 1.96875 -2.015625 L 0.640625 -2.015625 C 0.71875 -2.515625 0.9375 -2.75 1.328125 -2.75 C 1.734375 -2.75 1.890625 -2.578125 1.96875 -2.015625 Z M 1.96875 -2.015625 "/>
</g>
<g id="glyph-7-5">
<path d="M 1.671875 0 L 1.671875 -0.09375 C 1.25 -0.125 1.1875 -0.1875 1.1875 -0.546875 L 1.1875 -4.421875 L 1.15625 -4.4375 C 0.8125 -4.328125 0.578125 -4.265625 0.125 -4.15625 L 0.125 -4.046875 L 0.15625 -4.046875 C 0.234375 -4.0625 0.3125 -4.0625 0.359375 -4.0625 C 0.578125 -4.0625 0.640625 -3.96875 0.640625 -3.671875 L 0.640625 -0.5625 C 0.640625 -0.21875 0.546875 -0.125 0.140625 -0.09375 L 0.140625 0 Z M 1.671875 0 "/>
</g>
<g id="glyph-7-6">
<path d="M 1.640625 0 L 1.640625 -0.09375 C 1.21875 -0.125 1.15625 -0.1875 1.15625 -0.65625 L 1.15625 -2.96875 L 1.140625 -2.984375 L 0.125 -2.625 L 0.125 -2.53125 L 0.1875 -2.546875 C 0.265625 -2.546875 0.34375 -2.5625 0.40625 -2.5625 C 0.5625 -2.5625 0.625 -2.453125 0.625 -2.171875 L 0.625 -0.65625 C 0.625 -0.1875 0.546875 -0.125 0.109375 -0.09375 L 0.109375 0 Z M 1.21875 -3.828125 C 1.21875 -4.015625 1.078125 -4.171875 0.890625 -4.171875 C 0.703125 -4.171875 0.5625 -4.015625 0.5625 -3.828125 C 0.5625 -3.640625 0.703125 -3.5 0.890625 -3.5 C 1.078125 -3.5 1.21875 -3.640625 1.21875 -3.828125 Z M 1.21875 -3.828125 "/>
</g>
<g id="glyph-7-7">
<path d="M 3.15625 0 L 3.15625 -0.09375 C 2.828125 -0.125 2.75 -0.203125 2.75 -0.53125 L 2.75 -2.015625 C 2.75 -2.625 2.46875 -2.984375 1.984375 -2.984375 C 1.6875 -2.984375 1.484375 -2.875 1.046875 -2.46875 L 1.046875 -2.984375 L 1 -2.984375 C 0.6875 -2.875 0.46875 -2.796875 0.109375 -2.703125 L 0.109375 -2.59375 C 0.140625 -2.609375 0.203125 -2.609375 0.28125 -2.609375 C 0.46875 -2.609375 0.515625 -2.515625 0.515625 -2.203125 L 0.515625 -0.578125 C 0.515625 -0.21875 0.453125 -0.125 0.109375 -0.09375 L 0.109375 0 L 1.5 0 L 1.5 -0.09375 C 1.15625 -0.125 1.0625 -0.203125 1.0625 -0.4375 L 1.0625 -2.265625 C 1.375 -2.546875 1.515625 -2.625 1.734375 -2.625 C 2.046875 -2.625 2.203125 -2.4375 2.203125 -2 L 2.203125 -0.640625 C 2.203125 -0.234375 2.125 -0.125 1.796875 -0.09375 L 1.796875 0 Z M 3.15625 0 "/>
</g>
<g id="glyph-7-8">
<path d="M 1.859375 -1.609375 C 1.859375 -2.4375 1.609375 -3.0625 1.046875 -3.734375 C 0.78125 -4.046875 0.609375 -4.1875 0.265625 -4.390625 L 0.1875 -4.296875 C 0.703125 -3.875 0.890625 -3.65625 1.0625 -3.171875 C 1.21875 -2.734375 1.296875 -2.234375 1.296875 -1.59375 C 1.296875 -0.90625 1.203125 -0.375 1.03125 0.03125 C 0.84375 0.4375 0.65625 0.671875 0.1875 1.046875 L 0.25 1.15625 C 0.734375 0.84375 0.921875 0.671875 1.15625 0.375 C 1.625 -0.1875 1.859375 -0.84375 1.859375 -1.609375 Z M 1.859375 -1.609375 "/>
</g>
<g id="glyph-7-9">
<path d="M 5.609375 0 L 5.609375 -0.125 C 5.140625 -0.15625 5.046875 -0.25 5.046875 -0.703125 L 5.046875 -3.59375 C 5.046875 -4.0625 5.125 -4.140625 5.609375 -4.171875 L 5.609375 -4.296875 L 4.3125 -4.296875 L 2.875 -1.015625 L 1.375 -4.296875 L 0.09375 -4.296875 L 0.09375 -4.171875 C 0.625 -4.140625 0.703125 -4.0625 0.703125 -3.59375 L 0.703125 -0.953125 C 0.703125 -0.28125 0.625 -0.15625 0.078125 -0.125 L 0.078125 0 L 1.609375 0 L 1.609375 -0.125 C 1.109375 -0.15625 1 -0.296875 1 -0.953125 L 1 -3.578125 L 2.625 0 L 2.71875 0 L 4.375 -3.71875 L 4.375 -0.78125 C 4.375 -0.234375 4.296875 -0.15625 3.796875 -0.125 L 3.796875 0 Z M 5.609375 0 "/>
</g>
<g id="glyph-7-10">
<path d="M 2.046875 0 L 2.046875 -0.125 C 1.515625 -0.140625 1.40625 -0.234375 1.40625 -0.703125 L 1.40625 -3.59375 C 1.40625 -4.0625 1.5 -4.15625 2.046875 -4.171875 L 2.046875 -4.296875 L 0.109375 -4.296875 L 0.109375 -4.171875 C 0.671875 -4.140625 0.75 -4.078125 0.75 -3.59375 L 0.75 -0.703125 C 0.75 -0.21875 0.65625 -0.140625 0.109375 -0.125 L 0.109375 0 Z M 2.046875 0 "/>
</g>
<g id="glyph-7-11">
<path d="M 4.703125 0 L 4.703125 -0.125 C 4.359375 -0.125 4.265625 -0.1875 3.671875 -0.828125 L 2.171875 -2.453125 L 3.40625 -3.671875 C 3.84375 -4.09375 3.953125 -4.140625 4.390625 -4.171875 L 4.390625 -4.296875 L 2.6875 -4.296875 L 2.6875 -4.171875 C 2.765625 -4.171875 2.828125 -4.171875 2.859375 -4.171875 C 3.046875 -4.15625 3.125 -4.109375 3.125 -3.984375 C 3.125 -3.828125 2.984375 -3.640625 2.625 -3.3125 L 1.46875 -2.265625 L 1.46875 -3.59375 C 1.46875 -4.0625 1.546875 -4.140625 2.0625 -4.171875 L 2.0625 -4.296875 L 0.21875 -4.296875 L 0.21875 -4.171875 C 0.734375 -4.140625 0.8125 -4.0625 0.8125 -3.59375 L 0.8125 -0.78125 C 0.8125 -0.234375 0.734375 -0.15625 0.21875 -0.125 L 0.21875 0 L 2.046875 0 L 2.046875 -0.125 C 1.546875 -0.15625 1.46875 -0.234375 1.46875 -0.703125 L 1.46875 -1.921875 L 1.640625 -2.0625 L 2.328125 -1.375 C 2.828125 -0.890625 3.171875 -0.421875 3.171875 -0.265625 C 3.171875 -0.1875 3.078125 -0.140625 2.90625 -0.125 C 2.859375 -0.125 2.796875 -0.125 2.71875 -0.125 L 2.71875 0 Z M 4.703125 0 "/>
</g>
<g id="glyph-7-12">
<path d="M 4.578125 -4.171875 L 4.578125 -4.296875 L 3.078125 -4.296875 L 3.078125 -4.171875 C 3.578125 -4.140625 3.6875 -4 3.6875 -3.34375 L 3.6875 -1.59375 C 3.6875 -1.15625 3.640625 -0.90625 3.53125 -0.703125 C 3.359375 -0.390625 2.9375 -0.1875 2.453125 -0.1875 C 2 -0.1875 1.671875 -0.34375 1.5 -0.65625 C 1.390625 -0.859375 1.34375 -1.109375 1.34375 -1.515625 L 1.34375 -3.59375 C 1.34375 -4.0625 1.40625 -4.140625 1.9375 -4.171875 L 1.9375 -4.296875 L 0.09375 -4.296875 L 0.09375 -4.171875 C 0.609375 -4.140625 0.671875 -4.0625 0.671875 -3.59375 L 0.671875 -1.5625 C 0.671875 -0.4375 1.203125 0.09375 2.3125 0.09375 C 3.015625 0.09375 3.5 -0.140625 3.75 -0.578125 C 3.90625 -0.84375 3.96875 -1.15625 3.96875 -1.65625 L 3.96875 -3.34375 C 3.96875 -4.015625 4.046875 -4.109375 4.578125 -4.171875 Z M 4.578125 -4.171875 "/>
</g>
<g id="glyph-8-0">
<path d="M 2.734375 1.453125 C 2.015625 0.875 1.765625 0.5625 1.515625 -0.109375 C 1.3125 -0.71875 1.203125 -1.390625 1.203125 -2.296875 C 1.203125 -3.234375 1.328125 -3.984375 1.5625 -4.53125 C 1.8125 -5.09375 2.09375 -5.421875 2.734375 -5.9375 L 2.65625 -6.078125 C 1.984375 -5.65625 1.71875 -5.421875 1.390625 -5 C 0.75 -4.21875 0.4375 -3.328125 0.4375 -2.265625 C 0.4375 -1.125 0.765625 -0.25 1.5625 0.671875 C 1.921875 1.109375 2.15625 1.3125 2.625 1.59375 Z M 2.734375 1.453125 "/>
</g>
<g id="glyph-8-1">
<path d="M 3.984375 -0.359375 L 3.984375 -0.59375 C 3.828125 -0.46875 3.71875 -0.421875 3.578125 -0.421875 C 3.375 -0.421875 3.3125 -0.546875 3.3125 -0.9375 L 3.3125 -2.703125 C 3.3125 -3.15625 3.265625 -3.40625 3.140625 -3.625 C 2.953125 -3.953125 2.5625 -4.140625 2.015625 -4.140625 C 1.5625 -4.140625 1.125 -4.015625 0.875 -3.8125 C 0.640625 -3.625 0.5 -3.359375 0.5 -3.125 C 0.5 -2.921875 0.671875 -2.75 0.890625 -2.75 C 1.109375 -2.75 1.296875 -2.921875 1.296875 -3.125 C 1.296875 -3.15625 1.28125 -3.203125 1.28125 -3.265625 C 1.265625 -3.34375 1.25 -3.421875 1.25 -3.484375 C 1.25 -3.71875 1.53125 -3.921875 1.90625 -3.921875 C 2.34375 -3.921875 2.578125 -3.65625 2.578125 -3.171875 L 2.578125 -2.625 C 1.203125 -2.0625 1.046875 -2 0.65625 -1.65625 C 0.453125 -1.46875 0.328125 -1.171875 0.328125 -0.875 C 0.328125 -0.3125 0.71875 0.09375 1.28125 0.09375 C 1.671875 0.09375 2.046875 -0.09375 2.59375 -0.5625 C 2.640625 -0.09375 2.796875 0.09375 3.171875 0.09375 C 3.46875 0.09375 3.65625 -0.015625 3.984375 -0.359375 Z M 2.578125 -1.109375 C 2.578125 -0.828125 2.53125 -0.75 2.34375 -0.625 C 2.140625 -0.5 1.875 -0.4375 1.6875 -0.4375 C 1.375 -0.4375 1.125 -0.734375 1.125 -1.125 L 1.125 -1.15625 C 1.125 -1.6875 1.5 -2.015625 2.578125 -2.40625 Z M 2.578125 -1.109375 "/>
</g>
<g id="glyph-8-2">
<path d="M 2.5625 -2.21875 C 2.5625 -3.375 2.234375 -4.25 1.4375 -5.171875 C 1.078125 -5.59375 0.84375 -5.796875 0.375 -6.078125 L 0.265625 -5.9375 C 0.984375 -5.375 1.21875 -5.0625 1.46875 -4.390625 C 1.6875 -3.78125 1.796875 -3.09375 1.796875 -2.203125 C 1.796875 -1.265625 1.671875 -0.515625 1.4375 0.03125 C 1.171875 0.609375 0.90625 0.921875 0.265625 1.453125 L 0.34375 1.59375 C 1.015625 1.15625 1.28125 0.921875 1.609375 0.515625 C 2.25 -0.265625 2.5625 -1.171875 2.5625 -2.21875 Z M 2.5625 -2.21875 "/>
</g>
<g id="glyph-8-3">
<path d="M 5.34375 -1.625 C 5.34375 -2.015625 5.171875 -2.375 4.890625 -2.640625 C 4.625 -2.875 4.390625 -2.984375 3.796875 -3.125 C 4.265625 -3.25 4.453125 -3.34375 4.671875 -3.53125 C 4.890625 -3.71875 5.03125 -4.0625 5.03125 -4.421875 C 5.03125 -5.4375 4.234375 -5.953125 2.671875 -5.953125 L 0.15625 -5.953125 L 0.15625 -5.78125 C 0.90625 -5.734375 1.015625 -5.640625 1.015625 -4.984375 L 1.015625 -0.984375 C 1.015625 -0.3125 0.90625 -0.203125 0.15625 -0.171875 L 0.15625 0 L 3.15625 0 C 3.859375 0 4.5 -0.1875 4.828125 -0.5 C 5.15625 -0.78125 5.34375 -1.1875 5.34375 -1.625 Z M 4.296875 -1.609375 C 4.296875 -1.125 4.109375 -0.78125 3.75 -0.5625 C 3.46875 -0.40625 3.09375 -0.328125 2.5 -0.328125 C 2.0625 -0.328125 1.9375 -0.40625 1.9375 -0.703125 L 1.9375 -2.9375 C 2.8125 -2.9375 3.21875 -2.890625 3.546875 -2.75 C 4.0625 -2.53125 4.296875 -2.171875 4.296875 -1.609375 Z M 4.109375 -4.390625 C 4.109375 -3.6875 3.640625 -3.296875 2.796875 -3.296875 L 1.9375 -3.296875 L 1.9375 -5.359375 C 1.9375 -5.546875 2 -5.625 2.140625 -5.625 L 2.53125 -5.625 C 3.5625 -5.625 4.109375 -5.1875 4.109375 -4.390625 Z M 4.109375 -4.390625 "/>
</g>
<g id="glyph-8-4">
<path d="M 3.125 -1.0625 C 3.125 -1.515625 2.921875 -1.8125 2.375 -2.140625 L 1.40625 -2.703125 C 1.15625 -2.859375 1.015625 -3.078125 1.015625 -3.328125 C 1.015625 -3.6875 1.296875 -3.9375 1.703125 -3.9375 C 2.21875 -3.9375 2.5 -3.640625 2.703125 -2.828125 L 2.828125 -2.828125 L 2.796875 -4.046875 L 2.703125 -4.046875 L 2.6875 -4.03125 C 2.59375 -3.96875 2.59375 -3.953125 2.5625 -3.953125 C 2.5 -3.953125 2.40625 -3.984375 2.3125 -4.015625 C 2.125 -4.09375 1.921875 -4.125 1.703125 -4.125 C 0.96875 -4.125 0.453125 -3.6875 0.453125 -3.03125 C 0.453125 -2.515625 0.75 -2.171875 1.515625 -1.734375 L 2.03125 -1.4375 C 2.34375 -1.25 2.5 -1.03125 2.5 -0.75 C 2.5 -0.359375 2.21875 -0.109375 1.75 -0.109375 C 1.140625 -0.109375 0.8125 -0.453125 0.609375 -1.375 L 0.46875 -1.375 L 0.46875 0.03125 L 0.578125 0.03125 C 0.640625 -0.046875 0.6875 -0.078125 0.796875 -0.078125 C 0.890625 -0.078125 0.984375 -0.046875 1.203125 0 C 1.453125 0.046875 1.6875 0.09375 1.875 0.09375 C 2.5625 0.09375 3.125 -0.4375 3.125 -1.0625 Z M 3.125 -1.0625 "/>
</g>
<g id="glyph-8-5">
<path d="M 3.8125 -1.40625 L 3.671875 -1.46875 C 3.234375 -0.796875 2.859375 -0.53125 2.28125 -0.53125 C 1.78125 -0.53125 1.40625 -0.765625 1.140625 -1.25 C 0.96875 -1.609375 0.890625 -1.921875 0.875 -2.5 L 3.640625 -2.5 C 3.578125 -3.078125 3.484375 -3.34375 3.265625 -3.625 C 2.984375 -3.953125 2.578125 -4.140625 2.109375 -4.140625 C 0.984375 -4.140625 0.21875 -3.234375 0.21875 -1.921875 C 0.21875 -0.6875 0.875 0.09375 1.90625 0.09375 C 2.765625 0.09375 3.4375 -0.4375 3.8125 -1.40625 Z M 2.734375 -2.78125 L 0.890625 -2.78125 C 0.984375 -3.484375 1.296875 -3.8125 1.84375 -3.8125 C 2.390625 -3.8125 2.609375 -3.5625 2.734375 -2.78125 Z M 2.734375 -2.78125 "/>
</g>
<g id="glyph-8-6">
<path d="M 2.3125 0 L 2.3125 -0.140625 C 1.734375 -0.171875 1.640625 -0.265625 1.640625 -0.75 L 1.640625 -6.125 L 1.609375 -6.140625 C 1.140625 -6 0.796875 -5.90625 0.171875 -5.75 L 0.171875 -5.609375 L 0.21875 -5.609375 C 0.328125 -5.609375 0.4375 -5.625 0.5 -5.625 C 0.796875 -5.625 0.875 -5.5 0.875 -5.078125 L 0.875 -0.78125 C 0.875 -0.296875 0.75 -0.1875 0.1875 -0.140625 L 0.1875 0 Z M 2.3125 0 "/>
</g>
<g id="glyph-8-7">
<path d="M 2.28125 0 L 2.28125 -0.140625 C 1.6875 -0.1875 1.609375 -0.265625 1.609375 -0.921875 L 1.609375 -4.109375 L 1.578125 -4.140625 L 0.1875 -3.640625 L 0.1875 -3.515625 L 0.25 -3.515625 C 0.359375 -3.53125 0.484375 -3.546875 0.5625 -3.546875 C 0.78125 -3.546875 0.859375 -3.40625 0.859375 -3 L 0.859375 -0.921875 C 0.859375 -0.265625 0.765625 -0.171875 0.140625 -0.140625 L 0.140625 0 Z M 1.6875 -5.3125 C 1.6875 -5.5625 1.5 -5.765625 1.234375 -5.765625 C 0.984375 -5.765625 0.78125 -5.5625 0.78125 -5.3125 C 0.78125 -5.046875 0.984375 -4.84375 1.234375 -4.84375 C 1.5 -4.84375 1.6875 -5.046875 1.6875 -5.3125 Z M 1.6875 -5.3125 "/>
</g>
<g id="glyph-8-8">
<path d="M 4.359375 0 L 4.359375 -0.140625 C 3.921875 -0.1875 3.8125 -0.28125 3.8125 -0.734375 L 3.8125 -2.796875 C 3.8125 -3.640625 3.421875 -4.140625 2.75 -4.140625 C 2.34375 -4.140625 2.0625 -3.984375 1.453125 -3.40625 L 1.453125 -4.125 L 1.390625 -4.140625 C 0.9375 -3.984375 0.640625 -3.875 0.140625 -3.734375 L 0.140625 -3.578125 C 0.203125 -3.609375 0.28125 -3.625 0.390625 -3.625 C 0.640625 -3.625 0.71875 -3.484375 0.71875 -3.046875 L 0.71875 -0.8125 C 0.71875 -0.296875 0.625 -0.171875 0.15625 -0.140625 L 0.15625 0 L 2.0625 0 L 2.0625 -0.140625 C 1.609375 -0.171875 1.46875 -0.28125 1.46875 -0.609375 L 1.46875 -3.125 C 1.90625 -3.53125 2.109375 -3.640625 2.40625 -3.640625 C 2.84375 -3.640625 3.0625 -3.359375 3.0625 -2.765625 L 3.0625 -0.890625 C 3.0625 -0.328125 2.9375 -0.171875 2.5 -0.140625 L 2.5 0 Z M 4.359375 0 "/>
</g>
<g id="glyph-8-9">
<path d="M 4.21875 -2.1875 C 4.21875 -3.296875 3.53125 -4.140625 2.625 -4.140625 C 2.078125 -4.140625 1.5625 -3.8125 1.375 -3.375 L 1.375 -6.125 L 1.328125 -6.140625 C 0.953125 -6.015625 0.71875 -5.9375 0.28125 -5.828125 L 0.03125 -5.75 L 0.03125 -5.609375 C 0.078125 -5.609375 0.109375 -5.609375 0.1875 -5.609375 C 0.546875 -5.609375 0.625 -5.53125 0.625 -5.15625 L 0.625 -0.484375 C 0.625 -0.203125 1.390625 0.09375 2.109375 0.09375 C 3.296875 0.09375 4.21875 -0.90625 4.21875 -2.1875 Z M 3.421875 -1.765625 C 3.421875 -0.78125 2.984375 -0.203125 2.25 -0.203125 C 1.78125 -0.203125 1.375 -0.40625 1.375 -0.625 L 1.375 -2.890625 C 1.375 -3.25 1.796875 -3.578125 2.265625 -3.578125 C 2.96875 -3.578125 3.421875 -2.875 3.421875 -1.765625 Z M 3.421875 -1.765625 "/>
</g>
<g id="glyph-8-10">
<path d="M 7.765625 0 L 7.765625 -0.171875 C 7.109375 -0.21875 6.984375 -0.34375 6.984375 -0.984375 L 6.984375 -4.984375 C 6.984375 -5.609375 7.09375 -5.734375 7.765625 -5.78125 L 7.765625 -5.953125 L 5.96875 -5.953125 L 3.984375 -1.40625 L 1.90625 -5.953125 L 0.125 -5.953125 L 0.125 -5.78125 C 0.859375 -5.734375 0.984375 -5.640625 0.984375 -4.984375 L 0.984375 -1.328125 C 0.984375 -0.390625 0.859375 -0.21875 0.109375 -0.171875 L 0.109375 0 L 2.21875 0 L 2.21875 -0.171875 C 1.53125 -0.203125 1.375 -0.40625 1.375 -1.328125 L 1.375 -4.953125 L 3.640625 0 L 3.765625 0 L 6.0625 -5.15625 L 6.0625 -1.078125 C 6.0625 -0.328125 5.953125 -0.21875 5.25 -0.171875 L 5.25 0 Z M 7.765625 0 "/>
</g>
<g id="glyph-8-11">
<path d="M 2.828125 0 L 2.828125 -0.171875 C 2.09375 -0.203125 1.953125 -0.328125 1.953125 -0.984375 L 1.953125 -4.984375 C 1.953125 -5.640625 2.078125 -5.75 2.828125 -5.78125 L 2.828125 -5.953125 L 0.15625 -5.953125 L 0.15625 -5.78125 C 0.921875 -5.734375 1.03125 -5.640625 1.03125 -4.984375 L 1.03125 -0.984375 C 1.03125 -0.3125 0.921875 -0.203125 0.15625 -0.171875 L 0.15625 0 Z M 2.828125 0 "/>
</g>
<g id="glyph-8-12">
<path d="M 6.5 0 L 6.5 -0.171875 C 6.03125 -0.1875 5.90625 -0.265625 5.09375 -1.140625 L 3 -3.390625 L 4.703125 -5.078125 C 5.3125 -5.671875 5.46875 -5.734375 6.078125 -5.78125 L 6.078125 -5.953125 L 3.71875 -5.953125 L 3.71875 -5.78125 C 3.828125 -5.78125 3.921875 -5.78125 3.953125 -5.78125 C 4.21875 -5.765625 4.328125 -5.6875 4.328125 -5.515625 C 4.328125 -5.3125 4.125 -5.046875 3.625 -4.578125 L 2.03125 -3.125 L 2.03125 -4.984375 C 2.03125 -5.640625 2.140625 -5.734375 2.859375 -5.78125 L 2.859375 -5.953125 L 0.3125 -5.953125 L 0.3125 -5.78125 C 1.015625 -5.734375 1.109375 -5.609375 1.109375 -4.984375 L 1.109375 -1.078125 C 1.109375 -0.328125 1.015625 -0.21875 0.3125 -0.171875 L 0.3125 0 L 2.84375 0 L 2.84375 -0.171875 C 2.140625 -0.21875 2.03125 -0.328125 2.03125 -0.984375 L 2.03125 -2.65625 L 2.265625 -2.859375 L 3.21875 -1.90625 C 3.90625 -1.234375 4.390625 -0.59375 4.390625 -0.375 C 4.390625 -0.25 4.265625 -0.1875 4.015625 -0.1875 C 3.96875 -0.1875 3.875 -0.1875 3.765625 -0.171875 L 3.765625 0 Z M 6.5 0 "/>
</g>
<g id="glyph-8-13">
<path d="M 6.34375 -5.78125 L 6.34375 -5.953125 L 4.25 -5.953125 L 4.25 -5.78125 C 4.953125 -5.734375 5.109375 -5.53125 5.109375 -4.640625 L 5.109375 -2.203125 C 5.109375 -1.59375 5.046875 -1.25 4.890625 -0.984375 C 4.65625 -0.546875 4.078125 -0.265625 3.40625 -0.265625 C 2.765625 -0.265625 2.328125 -0.484375 2.078125 -0.90625 C 1.921875 -1.203125 1.859375 -1.53125 1.859375 -2.09375 L 1.859375 -4.984375 C 1.859375 -5.625 1.953125 -5.71875 2.671875 -5.78125 L 2.671875 -5.953125 L 0.125 -5.953125 L 0.125 -5.78125 C 0.84375 -5.734375 0.9375 -5.640625 0.9375 -4.984375 L 0.9375 -2.171875 C 0.9375 -0.609375 1.671875 0.125 3.1875 0.125 C 4.171875 0.125 4.84375 -0.1875 5.203125 -0.796875 C 5.421875 -1.171875 5.5 -1.59375 5.5 -2.28125 L 5.5 -4.640625 C 5.5 -5.546875 5.609375 -5.703125 6.34375 -5.78125 Z M 6.34375 -5.78125 "/>
</g>
</g>
<clipPath id="clip-0">
<path clip-rule="nonzero" d="M 27.394531 113 L 241.082031 113 L 241.082031 113.925781 L 27.394531 113.925781 Z M 27.394531 113 "/>
</clipPath>
<clipPath id="clip-1">
<path clip-rule="nonzero" d="M 27.394531 62 L 241.082031 62 L 241.082031 113.925781 L 27.394531 113.925781 Z M 27.394531 62 "/>
</clipPath>
<clipPath id="clip-2">
<path clip-rule="nonzero" d="M 304.835938 113 L 518.523438 113 L 518.523438 113.925781 L 304.835938 113.925781 Z M 304.835938 113 "/>
</clipPath>
<clipPath id="clip-3">
<path clip-rule="nonzero" d="M 304.835938 2.855469 L 518.523438 2.855469 L 518.523438 113.925781 L 304.835938 113.925781 Z M 304.835938 2.855469 "/>
</clipPath>
</defs>
<path fill="none" stroke-width="0.3985" stroke-linecap="butt" stroke-linejoin="miter" stroke="rgb(87.5%, 87.5%, 87.5%)" stroke-opacity="1" stroke-miterlimit="10" d="M -0.00146875 0.00121875 L -0.00146875 111.071531 M 30.525875 0.00121875 L 30.525875 111.071531 M 61.053219 0.00121875 L 61.053219 111.071531 M 91.580562 0.00121875 L 91.580562 111.071531 M 122.107906 0.00121875 L 122.107906 111.071531 M 152.63525 0.00121875 L 152.63525 111.071531 M 183.162594 0.00121875 L 183.162594 111.071531 M 213.686031 0.00121875 L 213.686031 111.071531 " transform="matrix(1, 0, 0, -1, 27.396, 113.927)"/>
<path fill="none" stroke-width="0.3985" stroke-linecap="butt" stroke-linejoin="miter" stroke="rgb(87.5%, 87.5%, 87.5%)" stroke-opacity="1" stroke-miterlimit="10" d="M -0.00146875 0.00121875 L 213.686031 0.00121875 M -0.00146875 29.618406 L 213.686031 29.618406 M -0.00146875 59.2395 L 213.686031 59.2395 M -0.00146875 88.856688 L 213.686031 88.856688 " transform="matrix(1, 0, 0, -1, 27.396, 113.927)"/>
<path fill="none" stroke-width="0.19925" stroke-linecap="butt" stroke-linejoin="miter" stroke="rgb(50%, 50%, 50%)" stroke-opacity="1" stroke-miterlimit="10" d="M -0.00146875 0.00121875 L -0.00146875 4.251219 M 30.525875 0.00121875 L 30.525875 4.251219 M 61.053219 0.00121875 L 61.053219 4.251219 M 91.580562 0.00121875 L 91.580562 4.251219 M 122.107906 0.00121875 L 122.107906 4.251219 M 152.63525 0.00121875 L 152.63525 4.251219 M 183.162594 0.00121875 L 183.162594 4.251219 M 213.686031 0.00121875 L 213.686031 4.251219 M -0.00146875 111.071531 L -0.00146875 106.821531 M 30.525875 111.071531 L 30.525875 106.821531 M 61.053219 111.071531 L 61.053219 106.821531 M 91.580562 111.071531 L 91.580562 106.821531 M 122.107906 111.071531 L 122.107906 106.821531 M 152.63525 111.071531 L 152.63525 106.821531 M 183.162594 111.071531 L 183.162594 106.821531 M 213.686031 111.071531 L 213.686031 106.821531 " transform="matrix(1, 0, 0, -1, 27.396, 113.927)"/>
<path fill="none" stroke-width="0.19925" stroke-linecap="butt" stroke-linejoin="miter" stroke="rgb(50%, 50%, 50%)" stroke-opacity="1" stroke-miterlimit="10" d="M -0.00146875 0.00121875 L 4.252437 0.00121875 M -0.00146875 29.618406 L 4.252437 29.618406 M -0.00146875 59.2395 L 4.252437 59.2395 M -0.00146875 88.856688 L 4.252437 88.856688 M 213.686031 0.00121875 L 209.436031 0.00121875 M 213.686031 29.618406 L 209.436031 29.618406 M 213.686031 59.2395 L 209.436031 59.2395 M 213.686031 88.856688 L 209.436031 88.856688 " transform="matrix(1, 0, 0, -1, 27.396, 113.927)"/>
<path fill="none" stroke-width="0.79701" stroke-linecap="butt" stroke-linejoin="miter" stroke="rgb(0%, 0%, 0%)" stroke-opacity="1" stroke-miterlimit="10" d="M -0.00146875 0.00121875 L -0.00146875 111.071531 L 213.686031 111.071531 L 213.686031 0.00121875 Z M -0.00146875 0.00121875 " transform="matrix(1, 0, 0, -1, 27.396, 113.927)"/>
<g fill="rgb(0%, 0%, 0%)" fill-opacity="1">
<use xlink:href="#glyph-0-0" x="25.41" y="121.815"/>
</g>
<g fill="rgb(0%, 0%, 0%)" fill-opacity="1">
<use xlink:href="#glyph-0-1" x="55.937" y="121.815"/>
</g>
<g fill="rgb(0%, 0%, 0%)" fill-opacity="1">
<use xlink:href="#glyph-0-2" x="86.463" y="121.815"/>
</g>
<g fill="rgb(0%, 0%, 0%)" fill-opacity="1">
<use xlink:href="#glyph-0-3" x="116.99" y="121.815"/>
</g>
<g fill="rgb(0%, 0%, 0%)" fill-opacity="1">
<use xlink:href="#glyph-0-4" x="147.517" y="121.815"/>
</g>
<g fill="rgb(0%, 0%, 0%)" fill-opacity="1">
<use xlink:href="#glyph-0-5" x="176.058" y="121.815"/>
<use xlink:href="#glyph-0-0" x="180.0295" y="121.815"/>
</g>
<g fill="rgb(0%, 0%, 0%)" fill-opacity="1">
<use xlink:href="#glyph-0-5" x="206.585" y="121.815"/>
<use xlink:href="#glyph-0-1" x="210.5565" y="121.815"/>
</g>
<g fill="rgb(0%, 0%, 0%)" fill-opacity="1">
<use xlink:href="#glyph-0-5" x="237.111" y="121.815"/>
<use xlink:href="#glyph-0-2" x="241.0825" y="121.815"/>
</g>
<g fill="rgb(0%, 0%, 0%)" fill-opacity="1">
<use xlink:href="#glyph-0-0" x="19.725" y="116.021"/>
</g>
<g fill="rgb(0%, 0%, 0%)" fill-opacity="1">
<use xlink:href="#glyph-0-1" x="15.753" y="86.402"/>
<use xlink:href="#glyph-0-0" x="19.7245" y="86.402"/>
</g>
<g fill="rgb(0%, 0%, 0%)" fill-opacity="1">
<use xlink:href="#glyph-0-2" x="15.753" y="56.782"/>
<use xlink:href="#glyph-0-0" x="19.7245" y="56.782"/>
</g>
<g fill="rgb(0%, 0%, 0%)" fill-opacity="1">
<use xlink:href="#glyph-0-3" x="15.753" y="27.163"/>
<use xlink:href="#glyph-0-0" x="19.7245" y="27.163"/>
</g>
<g clip-path="url(#clip-0)">
<path fill="none" stroke-width="0.79701" stroke-linecap="butt" stroke-linejoin="miter" stroke="rgb(100%, 54.098511%, 68.199158%)" stroke-opacity="1" stroke-dasharray="2.98883 2.98883" stroke-miterlimit="10" d="M -0.00146875 0.00121875 L 213.686031 0.00121875 " transform="matrix(1, 0, 0, -1, 27.396, 113.927)"/>
</g>
<g clip-path="url(#clip-1)">
<path fill="none" stroke-width="1.99255" stroke-linecap="butt" stroke-linejoin="miter" stroke="rgb(31.799316%, 51.799011%, 69.799805%)" stroke-opacity="1" stroke-miterlimit="10" d="M -0.00146875 0.00121875 L 1.525875 0.591063 L 3.053219 1.184813 L 4.580562 1.774656 L 6.104 2.360594 L 7.631344 2.946531 L 9.158687 3.524656 L 10.686031 4.098875 L 12.209469 4.665281 L 13.736812 5.223875 L 15.264156 5.774656 L 16.7915 6.321531 L 18.314937 6.856688 L 19.842281 7.380125 L 21.369625 7.899656 L 22.896969 8.403563 L 24.420406 8.899656 L 25.94775 9.384031 L 27.475094 9.860594 L 28.998531 10.321531 L 30.525875 10.774656 L 32.053219 11.216063 L 33.580562 11.641844 L 35.104 12.059813 L 36.631344 12.466063 L 38.158687 12.860594 L 39.686031 13.2395 L 41.209469 13.610594 L 42.736812 13.969969 L 44.264156 14.317625 L 45.7915 14.653563 L 47.314937 14.977781 L 48.842281 15.290281 L 50.369625 15.594969 L 51.896969 15.884031 L 53.420406 16.165281 L 54.94775 16.438719 L 56.475094 16.696531 L 58.002437 16.946531 L 59.525875 17.188719 L 61.053219 17.419188 L 62.580562 17.641844 L 64.107906 17.852781 L 65.631344 18.055906 L 67.158687 18.251219 L 68.686031 18.438719 L 70.213375 18.6145 L 71.736812 18.786375 L 73.264156 18.946531 L 74.7915 19.102781 L 76.318844 19.251219 L 77.842281 19.391844 L 79.369625 19.524656 L 80.896969 19.653563 L 82.420406 19.774656 L 83.94775 19.891844 L 85.475094 20.001219 L 87.002437 20.106688 L 88.525875 20.204344 L 90.053219 20.298094 L 91.580562 20.387938 L 93.107906 20.473875 L 94.631344 20.552 L 96.158687 20.630125 L 97.686031 20.704344 L 99.213375 20.77075 L 100.736812 20.837156 L 102.264156 20.899656 L 103.7915 20.95825 L 105.318844 21.012938 L 106.842281 21.063719 L 108.369625 21.1145 L 111.424312 21.20825 L 112.94775 21.251219 L 114.475094 21.294188 L 116.002437 21.33325 L 117.529781 21.368406 L 119.053219 21.403563 L 122.107906 21.473875 L 123.63525 21.505125 L 125.158687 21.536375 L 126.686031 21.563719 L 128.213375 21.594969 L 129.740719 21.622313 L 131.264156 21.649656 L 134.318844 21.704344 L 135.842281 21.731688 L 137.369625 21.755125 L 138.896969 21.782469 L 140.424312 21.805906 L 141.94775 21.83325 L 143.475094 21.856688 L 145.002437 21.884031 L 146.529781 21.907469 L 148.053219 21.934813 L 149.580562 21.95825 L 152.63525 22.012938 L 154.158687 22.040281 L 158.740719 22.122313 L 160.264156 22.149656 L 161.7915 22.180906 L 163.318844 22.20825 L 164.846187 22.2395 L 166.369625 22.27075 L 167.896969 22.302 L 169.424312 22.337156 L 170.951656 22.368406 L 172.475094 22.403563 L 175.529781 22.473875 L 177.057125 22.512938 L 178.580562 22.548094 L 181.63525 22.626219 L 183.162594 22.669188 L 184.686031 22.70825 L 187.740719 22.794188 L 189.264156 22.841063 L 190.7915 22.884031 L 193.846187 22.977781 L 195.369625 23.028563 L 196.896969 23.075438 L 198.424312 23.126219 L 199.951656 23.180906 L 201.475094 23.231688 L 206.057125 23.39575 L 207.580562 23.454344 L 210.63525 23.571531 L 212.162594 23.634031 L 213.686031 23.696531 " transform="matrix(1, 0, 0, -1, 27.396, 113.927)"/>
</g>
<g fill="rgb(0%, 0%, 0%)" fill-opacity="1">
<use xlink:href="#glyph-1-0" x="127.728" y="134.083"/>
</g>
<g fill="rgb(0%, 0%, 0%)" fill-opacity="1">
<use xlink:href="#glyph-2-0" x="132.84" y="134.083"/>
<use xlink:href="#glyph-2-1" x="135.3375" y="134.083"/>
<use xlink:href="#glyph-2-2" x="138.255" y="134.083"/>
</g>
<g fill="rgb(0%, 0%, 0%)" fill-opacity="1">
<use xlink:href="#glyph-3-0" x="7.226" y="66.765"/>
</g>
<g fill="rgb(0%, 0%, 0%)" fill-opacity="1">
<use xlink:href="#glyph-4-0" x="7.226" y="60.846"/>
<use xlink:href="#glyph-4-1" x="7.226" y="58.3485"/>
<use xlink:href="#glyph-4-2" x="7.226" y="52.5135"/>
</g>
<path fill-rule="nonzero" fill="rgb(100%, 100%, 100%)" fill-opacity="0.9" d="M 31.871094 27.617188 L 100.617188 27.617188 L 100.617188 5.273438 L 31.871094 5.273438 Z M 31.871094 27.617188 "/>
<path fill="none" stroke-width="0.79701" stroke-linecap="butt" stroke-linejoin="miter" stroke="rgb(100%, 54.098511%, 68.199158%)" stroke-opacity="1" stroke-dasharray="2.98883 2.98883" stroke-miterlimit="10" d="M 0.00046875 0.0016875 L 17.008281 0.0016875 " transform="matrix(1, 0, 0, -1, 35.855, 11.447)"/>
<g fill="rgb(0%, 0%, 0%)" fill-opacity="0.9">
<use xlink:href="#glyph-5-0" x="69.911" y="12.059"/>
</g>
<g fill="rgb(0%, 0%, 0%)" fill-opacity="0.9">
<use xlink:href="#glyph-6-0" x="73.71" y="13.28"/>
<use xlink:href="#glyph-6-1" x="77.391181" y="13.28"/>
</g>
<path fill="none" stroke-width="1.99255" stroke-linecap="butt" stroke-linejoin="miter" stroke="rgb(31.799316%, 51.799011%, 69.799805%)" stroke-opacity="1" stroke-miterlimit="10" d="M 0.00046875 0.001 L 17.008281 0.001 " transform="matrix(1, 0, 0, -1, 35.855, 20.626)"/>
<g fill="rgb(0%, 0%, 0%)" fill-opacity="0.9">
<use xlink:href="#glyph-5-0" x="55.852" y="22.058"/>
</g>
<g fill="rgb(0%, 0%, 0%)" fill-opacity="0.9">
<use xlink:href="#glyph-6-2" x="59.651" y="23.142"/>
</g>
<g fill="rgb(0%, 0%, 0%)" fill-opacity="0.9">
<use xlink:href="#glyph-6-1" x="63.103041" y="23.142"/>
</g>
<g fill="rgb(0%, 0%, 0%)" fill-opacity="0.9">
<use xlink:href="#glyph-7-0" x="68.92" y="22.058"/>
<use xlink:href="#glyph-7-1" x="71.0845" y="22.058"/>
<use xlink:href="#glyph-7-2" x="75.42" y="22.058"/>
<use xlink:href="#glyph-7-3" x="78.306" y="22.058"/>
<use xlink:href="#glyph-7-4" x="80.8345" y="22.058"/>
<use xlink:href="#glyph-7-5" x="83.7205" y="22.058"/>
<use xlink:href="#glyph-7-6" x="85.5275" y="22.058"/>
<use xlink:href="#glyph-7-7" x="87.3345" y="22.058"/>
<use xlink:href="#glyph-7-4" x="90.5845" y="22.058"/>
<use xlink:href="#glyph-7-8" x="93.4705" y="22.058"/>
</g>
<g fill="rgb(0%, 0%, 0%)" fill-opacity="1">
<use xlink:href="#glyph-8-0" x="101.987" y="154.716"/>
<use xlink:href="#glyph-8-1" x="104.984" y="154.716"/>
<use xlink:href="#glyph-8-2" x="108.98" y="154.716"/>
</g>
<g fill="rgb(0%, 0%, 0%)" fill-opacity="1">
<use xlink:href="#glyph-8-3" x="114.227" y="154.716"/>
<use xlink:href="#glyph-8-1" x="120.23" y="154.716"/>
<use xlink:href="#glyph-8-4" x="124.226" y="154.716"/>
<use xlink:href="#glyph-8-5" x="127.727" y="154.716"/>
<use xlink:href="#glyph-8-6" x="131.723" y="154.716"/>
<use xlink:href="#glyph-8-7" x="134.225" y="154.716"/>
<use xlink:href="#glyph-8-8" x="136.727" y="154.716"/>
<use xlink:href="#glyph-8-5" x="141.227" y="154.716"/>
</g>
<path fill="none" stroke-width="0.3985" stroke-linecap="butt" stroke-linejoin="miter" stroke="rgb(87.5%, 87.5%, 87.5%)" stroke-opacity="1" stroke-miterlimit="10" d="M -0.0000625 0.00121875 L -0.0000625 111.071531 M 30.527281 0.00121875 L 30.527281 111.071531 M 61.054625 0.00121875 L 61.054625 111.071531 M 91.581969 0.00121875 L 91.581969 111.071531 M 122.105406 0.00121875 L 122.105406 111.071531 M 152.63275 0.00121875 L 152.63275 111.071531 M 183.160094 0.00121875 L 183.160094 111.071531 M 213.687437 0.00121875 L 213.687437 111.071531 " transform="matrix(1, 0, 0, -1, 304.836, 113.927)"/>
<path fill="none" stroke-width="0.3985" stroke-linecap="butt" stroke-linejoin="miter" stroke="rgb(87.5%, 87.5%, 87.5%)" stroke-opacity="1" stroke-miterlimit="10" d="M -0.0000625 0.00121875 L 213.687437 0.00121875 M -0.0000625 29.618406 L 213.687437 29.618406 M -0.0000625 59.2395 L 213.687437 59.2395 M -0.0000625 88.856688 L 213.687437 88.856688 " transform="matrix(1, 0, 0, -1, 304.836, 113.927)"/>
<path fill="none" stroke-width="0.19925" stroke-linecap="butt" stroke-linejoin="miter" stroke="rgb(50%, 50%, 50%)" stroke-opacity="1" stroke-miterlimit="10" d="M -0.0000625 0.00121875 L -0.0000625 4.251219 M 30.527281 0.00121875 L 30.527281 4.251219 M 61.054625 0.00121875 L 61.054625 4.251219 M 91.581969 0.00121875 L 91.581969 4.251219 M 122.105406 0.00121875 L 122.105406 4.251219 M 152.63275 0.00121875 L 152.63275 4.251219 M 183.160094 0.00121875 L 183.160094 4.251219 M 213.687437 0.00121875 L 213.687437 4.251219 M -0.0000625 111.071531 L -0.0000625 106.821531 M 30.527281 111.071531 L 30.527281 106.821531 M 61.054625 111.071531 L 61.054625 106.821531 M 91.581969 111.071531 L 91.581969 106.821531 M 122.105406 111.071531 L 122.105406 106.821531 M 152.63275 111.071531 L 152.63275 106.821531 M 183.160094 111.071531 L 183.160094 106.821531 M 213.687437 111.071531 L 213.687437 106.821531 " transform="matrix(1, 0, 0, -1, 304.836, 113.927)"/>
<path fill="none" stroke-width="0.19925" stroke-linecap="butt" stroke-linejoin="miter" stroke="rgb(50%, 50%, 50%)" stroke-opacity="1" stroke-miterlimit="10" d="M -0.0000625 0.00121875 L 4.253844 0.00121875 M -0.0000625 29.618406 L 4.253844 29.618406 M -0.0000625 59.2395 L 4.253844 59.2395 M -0.0000625 88.856688 L 4.253844 88.856688 M 213.687437 0.00121875 L 209.433531 0.00121875 M 213.687437 29.618406 L 209.433531 29.618406 M 213.687437 59.2395 L 209.433531 59.2395 M 213.687437 88.856688 L 209.433531 88.856688 " transform="matrix(1, 0, 0, -1, 304.836, 113.927)"/>
<path fill="none" stroke-width="0.79701" stroke-linecap="butt" stroke-linejoin="miter" stroke="rgb(0%, 0%, 0%)" stroke-opacity="1" stroke-miterlimit="10" d="M -0.0000625 0.00121875 L -0.0000625 111.071531 L 213.687437 111.071531 L 213.687437 0.00121875 Z M -0.0000625 0.00121875 " transform="matrix(1, 0, 0, -1, 304.836, 113.927)"/>
<g fill="rgb(0%, 0%, 0%)" fill-opacity="1">
<use xlink:href="#glyph-0-0" x="302.85" y="121.815"/>
</g>
<g fill="rgb(0%, 0%, 0%)" fill-opacity="1">
<use xlink:href="#glyph-0-1" x="333.377" y="121.815"/>
</g>
<g fill="rgb(0%, 0%, 0%)" fill-opacity="1">
<use xlink:href="#glyph-0-2" x="363.903" y="121.815"/>
</g>
<g fill="rgb(0%, 0%, 0%)" fill-opacity="1">
<use xlink:href="#glyph-0-3" x="394.43" y="121.815"/>
</g>
<g fill="rgb(0%, 0%, 0%)" fill-opacity="1">
<use xlink:href="#glyph-0-4" x="424.957" y="121.815"/>
</g>
<g fill="rgb(0%, 0%, 0%)" fill-opacity="1">
<use xlink:href="#glyph-0-5" x="453.498" y="121.815"/>
<use xlink:href="#glyph-0-0" x="457.4695" y="121.815"/>
</g>
<g fill="rgb(0%, 0%, 0%)" fill-opacity="1">
<use xlink:href="#glyph-0-5" x="484.025" y="121.815"/>
<use xlink:href="#glyph-0-1" x="487.9965" y="121.815"/>
</g>
<g fill="rgb(0%, 0%, 0%)" fill-opacity="1">
<use xlink:href="#glyph-0-5" x="514.551" y="121.815"/>
<use xlink:href="#glyph-0-2" x="518.5225" y="121.815"/>
</g>
<g fill="rgb(0%, 0%, 0%)" fill-opacity="1">
<use xlink:href="#glyph-0-0" x="297.165" y="116.021"/>
</g>
<g fill="rgb(0%, 0%, 0%)" fill-opacity="1">
<use xlink:href="#glyph-0-1" x="293.193" y="86.402"/>
<use xlink:href="#glyph-0-0" x="297.1645" y="86.402"/>
</g>
<g fill="rgb(0%, 0%, 0%)" fill-opacity="1">
<use xlink:href="#glyph-0-2" x="293.193" y="56.782"/>
<use xlink:href="#glyph-0-0" x="297.1645" y="56.782"/>
</g>
<g fill="rgb(0%, 0%, 0%)" fill-opacity="1">
<use xlink:href="#glyph-0-3" x="293.193" y="27.163"/>
<use xlink:href="#glyph-0-0" x="297.1645" y="27.163"/>
</g>
<g clip-path="url(#clip-2)">
<path fill="none" stroke-width="0.79701" stroke-linecap="butt" stroke-linejoin="miter" stroke="rgb(100%, 54.098511%, 68.199158%)" stroke-opacity="1" stroke-dasharray="2.98883 2.98883" stroke-miterlimit="10" d="M -0.0000625 0.00121875 L 213.687437 0.00121875 " transform="matrix(1, 0, 0, -1, 304.836, 113.927)"/>
</g>
<g clip-path="url(#clip-3)">
<path fill="none" stroke-width="1.99255" stroke-linecap="butt" stroke-linejoin="miter" stroke="rgb(17.999268%, 68.598938%, 31.399536%)" stroke-opacity="1" stroke-miterlimit="10" d="M -0.0000625 0.00121875 L 1.527281 0.591063 L 3.050719 1.184813 L 4.578062 1.778563 L 6.105406 2.368406 L 7.63275 2.962156 L 9.156187 3.555906 L 10.683531 4.14575 L 13.738219 5.33325 L 15.261656 5.923094 L 18.316344 7.110594 L 19.843687 7.700438 L 21.367125 8.294188 L 22.894469 8.884031 L 25.949156 10.071531 L 27.472594 10.661375 L 30.527281 11.848875 L 32.054625 12.438719 L 33.578062 13.032469 L 35.105406 13.626219 L 36.63275 14.216063 L 38.160094 14.809813 L 39.683531 15.403563 L 41.210875 15.993406 L 44.265562 17.180906 L 45.789 17.77075 L 48.843687 18.95825 L 50.371031 19.548094 L 51.894469 20.141844 L 53.421812 20.735594 L 54.949156 21.325438 L 56.4765 21.919188 L 57.999937 22.509031 L 61.054625 23.696531 L 62.578062 24.286375 L 65.63275 25.473875 L 67.160094 26.063719 L 68.683531 26.657469 L 70.210875 27.251219 L 71.738219 27.841063 L 73.265562 28.434813 L 74.789 29.028563 L 76.316344 29.618406 L 79.371031 30.805906 L 80.894469 31.39575 L 83.949156 32.58325 L 85.4765 33.173094 L 86.999937 33.766844 L 88.527281 34.360594 L 90.054625 34.950438 L 91.581969 35.544188 L 93.105406 36.134031 L 96.160094 37.321531 L 97.687437 37.911375 L 99.210875 38.505125 L 100.738219 39.098875 L 102.265562 39.688719 L 103.792906 40.282469 L 105.316344 40.876219 L 106.843687 41.466063 L 109.898375 42.653563 L 111.421812 43.243406 L 114.4765 44.430906 L 115.999937 45.02075 L 119.054625 46.20825 L 120.581969 46.798094 L 122.105406 47.391844 L 123.63275 47.981688 L 126.687437 49.169188 L 128.210875 49.759031 L 131.265562 50.946531 L 132.792906 51.536375 L 134.316344 52.130125 L 135.843687 52.723875 L 137.371031 53.313719 L 138.898375 53.907469 L 140.421812 54.501219 L 141.949156 55.091063 L 145.003844 56.278563 L 146.527281 56.868406 L 149.581969 58.055906 L 151.109312 58.64575 L 152.63275 59.2395 L 154.160094 59.83325 L 155.687437 60.423094 L 157.214781 61.016844 L 158.738219 61.606688 L 161.792906 62.794188 L 163.32025 63.384031 L 164.843687 63.977781 L 166.371031 64.571531 L 167.898375 65.161375 L 169.421812 65.755125 L 170.949156 66.348875 L 172.4765 66.938719 L 174.003844 67.532469 L 175.527281 68.126219 L 177.054625 68.716063 L 180.109312 69.903563 L 181.63275 70.493406 L 184.687437 71.680906 L 186.214781 72.27075 L 187.738219 72.8645 L 189.265562 73.45825 L 190.792906 74.048094 L 192.32025 74.641844 L 193.843687 75.231688 L 196.898375 76.419188 L 198.425719 77.009031 L 199.949156 77.602781 L 201.4765 78.196531 L 203.003844 78.786375 L 204.531187 79.380125 L 206.054625 79.973875 L 207.581969 80.563719 L 210.636656 81.751219 L 212.160094 82.341063 L 213.687437 82.934813 " transform="matrix(1, 0, 0, -1, 304.836, 113.927)"/>
</g>
<g fill="rgb(0%, 0%, 0%)" fill-opacity="1">
<use xlink:href="#glyph-1-0" x="405.168" y="134.083"/>
</g>
<g fill="rgb(0%, 0%, 0%)" fill-opacity="1">
<use xlink:href="#glyph-2-0" x="410.28" y="134.083"/>
<use xlink:href="#glyph-2-1" x="412.7775" y="134.083"/>
<use xlink:href="#glyph-2-2" x="415.695" y="134.083"/>
</g>
<g fill="rgb(0%, 0%, 0%)" fill-opacity="1">
<use xlink:href="#glyph-3-0" x="284.666" y="66.766"/>
</g>
<g fill="rgb(0%, 0%, 0%)" fill-opacity="1">
<use xlink:href="#glyph-4-0" x="284.666" y="60.847"/>
<use xlink:href="#glyph-4-1" x="284.666" y="58.3495"/>
<use xlink:href="#glyph-4-2" x="284.666" y="52.5145"/>
</g>
<path fill-rule="nonzero" fill="rgb(100%, 100%, 100%)" fill-opacity="0.9" d="M 309.308594 27.574219 L 373 27.574219 L 373 5.273438 L 309.308594 5.273438 Z M 309.308594 27.574219 "/>
<path fill="none" stroke-width="0.79701" stroke-linecap="butt" stroke-linejoin="miter" stroke="rgb(100%, 54.098511%, 68.199158%)" stroke-opacity="1" stroke-dasharray="2.98883 2.98883" stroke-miterlimit="10" d="M 0.000875 0.0016875 L 17.008687 0.0016875 " transform="matrix(1, 0, 0, -1, 313.296, 11.447)"/>
<g fill="rgb(0%, 0%, 0%)" fill-opacity="0.9">
<use xlink:href="#glyph-5-0" x="344.822" y="12.059"/>
</g>
<g fill="rgb(0%, 0%, 0%)" fill-opacity="0.9">
<use xlink:href="#glyph-6-0" x="348.622" y="13.28"/>
<use xlink:href="#glyph-6-1" x="352.303181" y="13.28"/>
</g>
<path fill="none" stroke-width="1.99255" stroke-linecap="butt" stroke-linejoin="miter" stroke="rgb(17.999268%, 68.598938%, 31.399536%)" stroke-opacity="1" stroke-miterlimit="10" d="M 0.000875 0.0014375 L 17.008687 0.0014375 " transform="matrix(1, 0, 0, -1, 313.296, 20.603)"/>
<g fill="rgb(0%, 0%, 0%)" fill-opacity="0.9">
<use xlink:href="#glyph-5-0" x="333.292" y="22.013"/>
</g>
<g fill="rgb(0%, 0%, 0%)" fill-opacity="0.9">
<use xlink:href="#glyph-6-2" x="337.092" y="23.097"/>
</g>
<g fill="rgb(0%, 0%, 0%)" fill-opacity="0.9">
<use xlink:href="#glyph-6-1" x="340.544041" y="23.097"/>
</g>
<g fill="rgb(0%, 0%, 0%)" fill-opacity="0.9">
<use xlink:href="#glyph-7-0" x="346.36" y="22.013"/>
<use xlink:href="#glyph-7-9" x="348.5245" y="22.013"/>
<use xlink:href="#glyph-7-10" x="354.303" y="22.013"/>
<use xlink:href="#glyph-7-11" x="356.4675" y="22.013"/>
<use xlink:href="#glyph-7-12" x="361.1605" y="22.013"/>
<use xlink:href="#glyph-7-8" x="365.8535" y="22.013"/>
</g>
<g fill="rgb(0%, 0%, 0%)" fill-opacity="1">
<use xlink:href="#glyph-8-0" x="382.676" y="154.716"/>
<use xlink:href="#glyph-8-9" x="385.673" y="154.716"/>
<use xlink:href="#glyph-8-2" x="390.173" y="154.716"/>
</g>
<g fill="rgb(0%, 0%, 0%)" fill-opacity="1">
<use xlink:href="#glyph-8-10" x="395.42" y="154.716"/>
<use xlink:href="#glyph-8-11" x="403.421" y="154.716"/>
<use xlink:href="#glyph-8-12" x="406.418" y="154.716"/>
<use xlink:href="#glyph-8-13" x="412.916" y="154.716"/>
</g>
</svg>
