<?xml version="1.0" encoding="UTF-8"?>
<svg xmlns="http://www.w3.org/2000/svg" xmlns:xlink="http://www.w3.org/1999/xlink" width="294pt" height="78pt" viewBox="0 0 294 78">
<defs>
<clipPath id="clip-0">
<path clip-rule="nonzero" d="M 2.160156 3 L 292 3 L 292 75.9375 L 2.160156 75.9375 Z M 2.160156 3 "/>
</clipPath>
<clipPath id="clip-1">
<path clip-rule="nonzero" d="M 2.160156 74 L 292.492188 74 L 292.492188 75.9375 L 2.160156 75.9375 Z M 2.160156 74 "/>
</clipPath>
<clipPath id="clip-2">
<path clip-rule="nonzero" d="M 2.160156 2.457031 L 292.492188 2.457031 L 292.492188 4 L 2.160156 4 Z M 2.160156 2.457031 "/>
</clipPath>
<clipPath id="clip-3">
<path clip-rule="nonzero" d="M 2.160156 38 L 292.492188 38 L 292.492188 40 L 2.160156 40 Z M 2.160156 38 "/>
</clipPath>
<clipPath id="clip-4">
<path clip-rule="nonzero" d="M 2.160156 2.457031 L 292.492188 2.457031 L 292.492188 75.9375 L 2.160156 75.9375 Z M 2.160156 2.457031 "/>
</clipPath>
</defs>
<g clip-path="url(#clip-0)">
<path fill-rule="nonzero" fill="rgb(94.898987%, 96.099854%, 97.999573%)" fill-opacity="1" d="M 2.757812 75.339844 L 2.757812 3.054688 L 291.898438 3.054688 L 291.898438 75.339844 Z M 2.757812 75.339844 "/>
</g>
<g clip-path="url(#clip-1)">
<path fill="none" stroke-width="1.19553" stroke-linecap="butt" stroke-linejoin="miter" stroke="rgb(31.799316%, 51.799011%, 69.799805%)" stroke-opacity="1" stroke-miterlimit="10" d="M -0.0011875 -36.142844 L 289.139437 -36.142844 " transform="matrix(1, 0, 0, -1, 2.759, 39.197)"/>
</g>
<g clip-path="url(#clip-2)">
<path fill="none" stroke-width="1.19553" stroke-linecap="butt" stroke-linejoin="miter" stroke="rgb(31.799316%, 51.799011%, 69.799805%)" stroke-opacity="1" stroke-miterlimit="10" d="M -0.0011875 36.142313 L 289.139437 36.142313 " transform="matrix(1, 0, 0, -1, 2.759, 39.197)"/>
</g>
<g clip-path="url(#clip-3)">
<path fill="none" stroke-width="0.3985" stroke-linecap="butt" stroke-linejoin="miter" stroke="rgb(31.799316%, 51.799011%, 69.799805%)" stroke-opacity="1" stroke-dasharray="2.98883 2.98883" stroke-miterlimit="10" d="M -0.0011875 0.0016875 L 289.139437 0.0016875 " transform="matrix(1, 0, 0, -1, 2.759, 39.197)"/>
</g>
<path fill-rule="nonzero" fill="rgb(100%, 82.351685%, 54.902649%)" fill-opacity="1" stroke-width="0.79701" stroke-linecap="butt" stroke-linejoin="miter" stroke="rgb(90.194702%, 39.216614%, 39.216614%)" stroke-opacity="1" stroke-miterlimit="10" d="M 108.4285 12.048563 L 108.4285 24.095438 L 127.701937 24.095438 L 127.701937 12.048563 Z M 108.4285 12.048563 " transform="matrix(1, 0, 0, -1, 2.759, 39.197)"/>
<path fill-rule="nonzero" fill="rgb(100%, 82.351685%, 54.902649%)" fill-opacity="1" stroke-width="0.79701" stroke-linecap="butt" stroke-linejoin="miter" stroke="rgb(90.194702%, 39.216614%, 39.216614%)" stroke-opacity="1" stroke-miterlimit="10" d="M 139.752719 -21.685812 L 139.752719 -9.638937 L 159.026156 -9.638937 L 159.026156 -21.685812 Z M 139.752719 -21.685812 " transform="matrix(1, 0, 0, -1, 2.759, 39.197)"/>
<path fill-rule="nonzero" fill="rgb(100%, 82.351685%, 54.902649%)" fill-opacity="1" stroke-width="0.79701" stroke-linecap="butt" stroke-linejoin="miter" stroke="rgb(90.194702%, 39.216614%, 39.216614%)" stroke-opacity="1" stroke-miterlimit="10" d="M 180.713656 4.818094 L 180.713656 16.864969 L 199.987094 16.864969 L 199.987094 4.818094 Z M 180.713656 4.818094 " transform="matrix(1, 0, 0, -1, 2.759, 39.197)"/>
<path fill-rule="nonzero" fill="rgb(100%, 82.351685%, 54.902649%)" fill-opacity="1" stroke-width="0.79701" stroke-linecap="butt" stroke-linejoin="miter" stroke="rgb(90.194702%, 39.216614%, 39.216614%)" stroke-opacity="1" stroke-miterlimit="10" d="M 72.283969 -16.8655 L 72.283969 -4.818625 L 91.561312 -4.818625 L 91.561312 -16.8655 Z M 72.283969 -16.8655 " transform="matrix(1, 0, 0, -1, 2.759, 39.197)"/>
<path fill-rule="nonzero" fill="rgb(93.136597%, 57.450867%, 57.450867%)" fill-opacity="1" stroke-width="0.79701" stroke-linecap="butt" stroke-linejoin="miter" stroke="rgb(90.194702%, 39.216614%, 39.216614%)" stroke-opacity="1" stroke-miterlimit="10" d="M 228.901156 2.407938 L 228.901156 16.864969 L 243.358187 16.864969 L 243.358187 2.407938 Z M 228.901156 2.407938 " transform="matrix(1, 0, 0, -1, 2.759, 39.197)"/>
<path fill-rule="nonzero" fill="rgb(93.136597%, 57.450867%, 57.450867%)" fill-opacity="1" stroke-width="0.79701" stroke-linecap="butt" stroke-linejoin="miter" stroke="rgb(90.194702%, 39.216614%, 39.216614%)" stroke-opacity="1" stroke-miterlimit="10" d="M 228.901156 -16.8655 L 228.901156 -2.408469 L 243.358187 -2.408469 L 243.358187 -16.8655 Z M 228.901156 -16.8655 " transform="matrix(1, 0, 0, -1, 2.759, 39.197)"/>
<g clip-path="url(#clip-4)">
<path fill="none" stroke-width="1.19553" stroke-linecap="butt" stroke-linejoin="miter" stroke="rgb(83.499146%, 32.199097%, 46.299744%)" stroke-opacity="1" stroke-miterlimit="10" d="M 7.229281 0.0016875 C 7.229281 0.0016875 37.491 -4.053 48.190219 -7.228781 C 58.889437 -10.404562 74.3035 -23.224875 84.330844 -22.888937 C 94.362094 -22.556906 110.444125 -11.170187 120.475375 -4.818625 C 130.502719 1.532938 146.588656 22.888406 156.616 22.888406 C 166.64725 22.888406 182.729281 1.532938 192.760531 -4.818625 C 202.787875 -11.170187 216.533969 -22.556906 228.901156 -22.888937 C 241.27225 -23.224875 281.912875 -7.228781 281.912875 -7.228781 " transform="matrix(1, 0, 0, -1, 2.759, 39.197)"/>
</g>
<path fill-rule="nonzero" fill="rgb(31.765747%, 51.763916%, 69.802856%)" fill-opacity="1" stroke-width="0.3985" stroke-linecap="butt" stroke-linejoin="miter" stroke="rgb(31.765747%, 51.763916%, 69.802856%)" stroke-opacity="1" stroke-miterlimit="10" d="M 7.229281 -4.818625 L 7.229281 4.818094 L 21.686312 4.818094 L 21.686312 -4.818625 Z M 7.229281 -4.818625 " transform="matrix(1, 0, 0, -1, 2.759, 39.197)"/>
<path fill-rule="nonzero" fill="rgb(83.499146%, 32.199097%, 46.299744%)" fill-opacity="1" d="M 287.210938 46.425781 C 287.210938 45.023438 286.074219 43.886719 284.671875 43.886719 C 283.265625 43.886719 282.128906 45.023438 282.128906 46.425781 C 282.128906 47.828125 283.265625 48.964844 284.671875 48.964844 C 286.074219 48.964844 287.210938 47.828125 287.210938 46.425781 Z M 287.210938 46.425781 "/>
</svg>
