<?xml version="1.0" encoding="UTF-8"?>
<svg xmlns="http://www.w3.org/2000/svg" xmlns:xlink="http://www.w3.org/1999/xlink" width="499pt" height="162pt" viewBox="0 0 499 162">
<defs>
<g>
<g id="glyph-0-0">
<path d="M 3.578125 -2.078125 C 3.578125 -2.546875 3.578125 -4.328125 1.984375 -4.328125 C 0.390625 -4.328125 0.390625 -2.546875 0.390625 -2.078125 C 0.390625 -1.609375 0.390625 0.140625 1.984375 0.140625 C 3.578125 0.140625 3.578125 -1.609375 3.578125 -2.078125 Z M 1.984375 -0.078125 C 1.703125 -0.078125 1.265625 -0.203125 1.109375 -0.734375 C 1 -1.125 1 -1.75 1 -2.15625 C 1 -2.59375 1 -3.09375 1.09375 -3.4375 C 1.265625 -4.03125 1.75 -4.109375 1.984375 -4.109375 C 2.28125 -4.109375 2.703125 -3.96875 2.859375 -3.484375 C 2.953125 -3.140625 2.953125 -2.65625 2.953125 -2.15625 C 2.953125 -1.734375 2.953125 -1.078125 2.84375 -0.71875 C 2.671875 -0.15625 2.203125 -0.078125 1.984375 -0.078125 Z M 1.984375 -0.078125 "/>
</g>
<g id="glyph-0-1">
<path d="M 3.5 -1.21875 L 3.25 -1.21875 C 3.25 -1.125 3.171875 -0.703125 3.078125 -0.625 C 3.03125 -0.578125 2.515625 -0.578125 2.421875 -0.578125 L 1.203125 -0.578125 L 2.03125 -1.265625 C 2.25 -1.4375 2.828125 -1.859375 3.03125 -2.046875 C 3.234375 -2.25 3.5 -2.578125 3.5 -3.03125 C 3.5 -3.84375 2.765625 -4.328125 1.890625 -4.328125 C 1.046875 -4.328125 0.46875 -3.765625 0.46875 -3.15625 C 0.46875 -2.828125 0.75 -2.78125 0.8125 -2.78125 C 0.984375 -2.78125 1.171875 -2.90625 1.171875 -3.140625 C 1.171875 -3.28125 1.078125 -3.484375 0.796875 -3.484375 C 0.953125 -3.828125 1.34375 -4.0625 1.796875 -4.0625 C 2.46875 -4.0625 2.84375 -3.5625 2.84375 -3.03125 C 2.84375 -2.578125 2.53125 -2.09375 2.078125 -1.6875 L 0.546875 -0.265625 C 0.46875 -0.203125 0.46875 -0.203125 0.46875 0 L 3.296875 0 Z M 3.5 -1.21875 "/>
</g>
<g id="glyph-0-2">
<path d="M 3.671875 -1.0625 L 3.671875 -1.3125 L 2.90625 -1.3125 L 2.90625 -4.1875 C 2.90625 -4.34375 2.90625 -4.390625 2.75 -4.390625 C 2.625 -4.390625 2.609375 -4.375 2.546875 -4.296875 L 0.296875 -1.3125 L 0.296875 -1.0625 L 2.328125 -1.0625 L 2.328125 -0.546875 C 2.328125 -0.328125 2.328125 -0.25 1.78125 -0.25 L 1.59375 -0.25 L 1.59375 0 C 1.71875 0 2.328125 -0.03125 2.609375 -0.03125 C 2.90625 -0.03125 3.515625 0 3.640625 0 L 3.640625 -0.25 L 3.453125 -0.25 C 2.90625 -0.25 2.90625 -0.328125 2.90625 -0.546875 L 2.90625 -1.0625 Z M 2.359375 -3.671875 L 2.359375 -1.3125 L 0.578125 -1.3125 Z M 2.359375 -3.671875 "/>
</g>
<g id="glyph-0-3">
<path d="M 1.0625 -2.15625 C 1.0625 -2.46875 1.078125 -3.015625 1.3125 -3.421875 C 1.59375 -3.90625 2.015625 -4.109375 2.40625 -4.109375 C 2.5625 -4.109375 2.859375 -4.078125 3.015625 -3.90625 C 2.78125 -3.859375 2.734375 -3.6875 2.734375 -3.59375 C 2.734375 -3.421875 2.859375 -3.28125 3.046875 -3.28125 C 3.25 -3.28125 3.359375 -3.40625 3.359375 -3.59375 C 3.359375 -4 3.0625 -4.328125 2.40625 -4.328125 C 1.390625 -4.328125 0.40625 -3.4375 0.40625 -2.0625 C 0.40625 -0.484375 1.140625 0.140625 2 0.140625 C 2.25 0.140625 2.703125 0.09375 3.09375 -0.28125 C 3.296875 -0.5 3.5625 -0.75 3.5625 -1.328125 C 3.5625 -1.546875 3.53125 -1.96875 3.140625 -2.328125 C 2.90625 -2.546875 2.625 -2.765625 2.0625 -2.765625 C 1.609375 -2.765625 1.28125 -2.53125 1.0625 -2.15625 Z M 2 -0.09375 C 1.078125 -0.09375 1.078125 -1.21875 1.078125 -1.46875 C 1.078125 -2.03125 1.453125 -2.5625 2.03125 -2.5625 C 2.375 -2.5625 2.5625 -2.421875 2.71875 -2.21875 C 2.90625 -1.96875 2.90625 -1.671875 2.90625 -1.328125 C 2.90625 -0.875 2.890625 -0.65625 2.671875 -0.390625 C 2.515625 -0.203125 2.3125 -0.09375 2 -0.09375 Z M 2 -0.09375 "/>
</g>
<g id="glyph-0-4">
<path d="M 2.5 -2.34375 C 2.984375 -2.5625 3.34375 -2.875 3.34375 -3.34375 C 3.34375 -3.984375 2.671875 -4.328125 1.984375 -4.328125 C 1.25 -4.328125 0.625 -3.875 0.625 -3.21875 C 0.625 -2.828125 0.890625 -2.515625 1.15625 -2.34375 C 1.21875 -2.3125 1.375 -2.21875 1.4375 -2.1875 C 1.015625 -2.015625 0.40625 -1.65625 0.40625 -1 C 0.40625 -0.234375 1.21875 0.140625 1.96875 0.140625 C 2.84375 0.140625 3.5625 -0.390625 3.5625 -1.109375 C 3.5625 -1.546875 3.28125 -1.8125 3.1875 -1.921875 C 3.0625 -2.03125 2.734375 -2.21875 2.5 -2.34375 Z M 1.328125 -2.984375 C 1.3125 -3 0.984375 -3.171875 0.984375 -3.484375 C 0.984375 -3.90625 1.5 -4.109375 1.96875 -4.109375 C 2.484375 -4.109375 2.984375 -3.828125 2.984375 -3.34375 C 2.984375 -2.84375 2.4375 -2.578125 2.265625 -2.484375 Z M 1.703125 -2.046875 C 1.78125 -2.015625 2.46875 -1.625 2.640625 -1.53125 C 2.78125 -1.4375 3.140625 -1.25 3.140625 -0.875 C 3.140625 -0.359375 2.546875 -0.09375 1.984375 -0.09375 C 1.390625 -0.09375 0.828125 -0.453125 0.828125 -1 C 0.828125 -1.546875 1.34375 -1.921875 1.703125 -2.046875 Z M 1.703125 -2.046875 "/>
</g>
<g id="glyph-0-5">
<path d="M 2.328125 -4.125 C 2.328125 -4.328125 2.3125 -4.328125 2.109375 -4.328125 C 1.6875 -3.90625 1.015625 -3.90625 0.78125 -3.90625 L 0.78125 -3.65625 C 0.953125 -3.65625 1.390625 -3.65625 1.78125 -3.828125 L 1.78125 -0.546875 C 1.78125 -0.34375 1.78125 -0.25 1.109375 -0.25 L 0.828125 -0.25 L 0.828125 0 C 1.1875 -0.03125 1.6875 -0.03125 2.046875 -0.03125 C 2.421875 -0.03125 2.921875 -0.03125 3.28125 0 L 3.28125 -0.25 L 3 -0.25 C 2.328125 -0.25 2.328125 -0.34375 2.328125 -0.546875 Z M 2.328125 -4.125 "/>
</g>
<g id="glyph-1-0">
<path d="M 1.84375 -2.96875 L 2.609375 -2.96875 C 2.75 -2.96875 2.84375 -2.96875 2.84375 -3.125 C 2.84375 -3.234375 2.75 -3.234375 2.625 -3.234375 L 1.90625 -3.234375 L 2.1875 -4.34375 C 2.203125 -4.375 2.21875 -4.421875 2.21875 -4.453125 C 2.21875 -4.578125 2.109375 -4.6875 1.953125 -4.6875 C 1.765625 -4.6875 1.65625 -4.5625 1.609375 -4.359375 C 1.546875 -4.171875 1.65625 -4.53125 1.3125 -3.234375 L 0.5625 -3.234375 C 0.40625 -3.234375 0.3125 -3.234375 0.3125 -3.0625 C 0.3125 -2.96875 0.40625 -2.96875 0.546875 -2.96875 L 1.25 -2.96875 L 0.8125 -1.1875 C 0.765625 -1 0.703125 -0.734375 0.703125 -0.640625 C 0.703125 -0.1875 1.078125 0.078125 1.5 0.078125 C 2.328125 0.078125 2.8125 -0.96875 2.8125 -1.078125 C 2.8125 -1.171875 2.703125 -1.171875 2.6875 -1.171875 C 2.59375 -1.171875 2.59375 -1.15625 2.53125 -1.03125 C 2.3125 -0.5625 1.9375 -0.140625 1.515625 -0.140625 C 1.359375 -0.140625 1.265625 -0.234375 1.265625 -0.5 C 1.265625 -0.578125 1.296875 -0.734375 1.3125 -0.8125 Z M 1.84375 -2.96875 "/>
</g>
<g id="glyph-2-0">
<path d="M 2.28125 1.203125 C 1.6875 0.734375 1.46875 0.46875 1.265625 -0.09375 C 1.09375 -0.59375 1 -1.15625 1 -1.90625 C 1 -2.703125 1.109375 -3.3125 1.3125 -3.78125 C 1.515625 -4.25 1.734375 -4.515625 2.28125 -4.953125 L 2.21875 -5.0625 C 1.65625 -4.703125 1.4375 -4.515625 1.15625 -4.171875 C 0.625 -3.515625 0.359375 -2.765625 0.359375 -1.890625 C 0.359375 -0.9375 0.640625 -0.203125 1.296875 0.5625 C 1.609375 0.921875 1.796875 1.09375 2.1875 1.328125 Z M 2.28125 1.203125 "/>
</g>
<g id="glyph-2-1">
<path d="M 2.609375 -0.890625 C 2.609375 -1.265625 2.4375 -1.5 1.984375 -1.78125 L 1.171875 -2.25 C 0.953125 -2.375 0.84375 -2.5625 0.84375 -2.765625 C 0.84375 -3.078125 1.078125 -3.28125 1.421875 -3.28125 C 1.859375 -3.28125 2.078125 -3.03125 2.25 -2.359375 L 2.359375 -2.359375 L 2.328125 -3.375 L 2.25 -3.375 L 2.234375 -3.359375 C 2.171875 -3.3125 2.15625 -3.296875 2.125 -3.296875 C 2.078125 -3.296875 2.015625 -3.3125 1.921875 -3.359375 C 1.765625 -3.40625 1.59375 -3.4375 1.421875 -3.4375 C 0.796875 -3.4375 0.375 -3.0625 0.375 -2.515625 C 0.375 -2.09375 0.625 -1.8125 1.265625 -1.4375 L 1.6875 -1.1875 C 1.953125 -1.046875 2.078125 -0.859375 2.078125 -0.625 C 2.078125 -0.296875 1.84375 -0.09375 1.46875 -0.09375 C 0.9375 -0.09375 0.6875 -0.375 0.515625 -1.140625 L 0.390625 -1.140625 L 0.390625 0.03125 L 0.484375 0.03125 C 0.546875 -0.046875 0.5625 -0.0625 0.65625 -0.0625 C 0.75 -0.0625 0.828125 -0.046875 1 0 C 1.21875 0.046875 1.40625 0.078125 1.5625 0.078125 C 2.125 0.078125 2.609375 -0.359375 2.609375 -0.890625 Z M 2.609375 -0.890625 "/>
</g>
<g id="glyph-2-2">
<path d="M 2.140625 -1.859375 C 2.140625 -2.8125 1.859375 -3.546875 1.203125 -4.3125 C 0.890625 -4.671875 0.703125 -4.828125 0.3125 -5.0625 L 0.21875 -4.953125 C 0.8125 -4.484375 1.015625 -4.21875 1.234375 -3.65625 C 1.40625 -3.15625 1.5 -2.578125 1.5 -1.828125 C 1.5 -1.046875 1.390625 -0.421875 1.1875 0.03125 C 0.984375 0.5 0.75 0.765625 0.21875 1.203125 L 0.28125 1.328125 C 0.84375 0.96875 1.0625 0.765625 1.34375 0.421875 C 1.875 -0.21875 2.140625 -0.96875 2.140625 -1.859375 Z M 2.140625 -1.859375 "/>
</g>
<g id="glyph-3-0">
<path d="M -2.8125 -3.234375 C -2.78125 -3.03125 -2.625 -2.921875 -2.46875 -2.921875 C -2.296875 -2.921875 -2.234375 -3.0625 -2.234375 -3.171875 C -2.234375 -3.234375 -2.265625 -3.53125 -2.65625 -3.53125 C -3.140625 -3.53125 -3.3125 -2.984375 -3.3125 -2.53125 C -3.3125 -1.359375 -2.4375 -1.140625 -2.21875 -1.140625 C -1.9375 -1.140625 -1.75 -1.3125 -1.671875 -1.40625 C -1.515625 -1.609375 -1.484375 -1.734375 -1.390625 -2.25 C -1.359375 -2.421875 -1.28125 -2.890625 -0.90625 -2.890625 C -0.765625 -2.890625 -0.484375 -2.8125 -0.296875 -2.5 C -0.140625 -2.203125 -0.140625 -1.84375 -0.140625 -1.75 C -0.140625 -1.453125 -0.203125 -1.015625 -0.453125 -0.84375 C -0.484375 -1.09375 -0.671875 -1.265625 -0.875 -1.265625 C -1.0625 -1.265625 -1.15625 -1.125 -1.15625 -0.96875 C -1.15625 -0.75 -0.984375 -0.53125 -0.65625 -0.53125 C -0.203125 -0.53125 0.078125 -1.015625 0.078125 -1.734375 C 0.078125 -3.125 -0.875 -3.375 -1.15625 -3.375 C -1.859375 -3.375 -1.984375 -2.625 -2.046875 -2.34375 C -2.0625 -2.265625 -2.078125 -2.078125 -2.09375 -2.046875 C -2.15625 -1.765625 -2.3125 -1.625 -2.46875 -1.625 C -2.640625 -1.625 -2.84375 -1.765625 -2.953125 -1.921875 C -3.078125 -2.125 -3.09375 -2.390625 -3.09375 -2.515625 C -3.09375 -2.671875 -3.078125 -3.0625 -2.8125 -3.234375 Z M -2.8125 -3.234375 "/>
</g>
<g id="glyph-4-0">
<path d="M 1.203125 -2.28125 C 0.734375 -1.6875 0.46875 -1.46875 -0.09375 -1.265625 C -0.59375 -1.09375 -1.15625 -1 -1.90625 -1 C -2.703125 -1 -3.3125 -1.109375 -3.78125 -1.3125 C -4.25 -1.515625 -4.515625 -1.734375 -4.953125 -2.28125 L -5.0625 -2.21875 C -4.703125 -1.65625 -4.515625 -1.4375 -4.171875 -1.15625 C -3.515625 -0.625 -2.765625 -0.359375 -1.890625 -0.359375 C -0.9375 -0.359375 -0.203125 -0.640625 0.5625 -1.296875 C 0.921875 -1.609375 1.09375 -1.796875 1.328125 -2.1875 Z M 1.203125 -2.28125 "/>
</g>
<g id="glyph-4-1">
<path d="M 0 -5.8125 L -0.109375 -5.8125 L -0.125 -5.625 C -0.140625 -5.390625 -0.28125 -5.296875 -0.5625 -5.296875 L -2.109375 -5.296875 C -3 -5.296875 -3.453125 -5 -3.453125 -4.421875 C -3.453125 -3.984375 -3.25 -3.609375 -2.8125 -3.203125 C -3.25 -3.0625 -3.453125 -2.8125 -3.453125 -2.40625 C -3.453125 -2.078125 -3.34375 -1.875 -2.875 -1.25 L -3.4375 -1.25 L -3.453125 -1.1875 C -3.3125 -0.8125 -3.21875 -0.5625 -3.109375 -0.140625 L -2.984375 -0.140625 C -3 -0.234375 -3.015625 -0.296875 -3.015625 -0.375 C -3.015625 -0.578125 -2.890625 -0.640625 -2.53125 -0.640625 L -0.640625 -0.640625 C -0.234375 -0.640625 -0.125 -0.546875 -0.109375 -0.125 L 0 -0.125 L 0 -1.78125 L -0.109375 -1.78125 C -0.125 -1.390625 -0.203125 -1.28125 -0.5 -1.28125 L -2.625 -1.28125 C -2.625 -1.28125 -2.703125 -1.328125 -2.765625 -1.390625 C -2.9375 -1.578125 -3.0625 -1.890625 -3.0625 -2.15625 C -3.0625 -2.484375 -2.796875 -2.65625 -2.265625 -2.65625 L -0.640625 -2.65625 C -0.21875 -2.65625 -0.140625 -2.578125 -0.109375 -2.140625 L 0 -2.140625 L 0 -3.828125 L -0.109375 -3.828125 C -0.125 -3.390625 -0.25 -3.28125 -0.71875 -3.28125 L -2.609375 -3.28125 C -2.921875 -3.515625 -3.0625 -3.75 -3.0625 -4.109375 C -3.0625 -4.53125 -2.859375 -4.671875 -2.234375 -4.671875 L -0.65625 -4.671875 C -0.21875 -4.671875 -0.171875 -4.609375 -0.109375 -4.171875 L 0 -4.171875 Z M 0 -5.8125 "/>
</g>
<g id="glyph-4-2">
<path d="M -1.859375 -2.140625 C -2.8125 -2.140625 -3.546875 -1.859375 -4.3125 -1.203125 C -4.671875 -0.890625 -4.828125 -0.703125 -5.0625 -0.3125 L -4.953125 -0.21875 C -4.484375 -0.8125 -4.21875 -1.015625 -3.65625 -1.234375 C -3.15625 -1.40625 -2.578125 -1.5 -1.828125 -1.5 C -1.046875 -1.5 -0.421875 -1.390625 0.03125 -1.1875 C 0.5 -0.984375 0.765625 -0.75 1.203125 -0.21875 L 1.328125 -0.28125 C 0.96875 -0.84375 0.765625 -1.0625 0.421875 -1.34375 C -0.21875 -1.875 -0.96875 -2.140625 -1.859375 -2.140625 Z M -1.859375 -2.140625 "/>
</g>
<g id="glyph-5-0">
<path d="M 2.96875 -2.4375 C 2.78125 -2.40625 2.703125 -2.234375 2.703125 -2.140625 C 2.703125 -2.03125 2.78125 -1.921875 2.9375 -1.921875 C 3.0625 -1.921875 3.25 -2.015625 3.25 -2.296875 C 3.25 -2.734375 2.765625 -2.859375 2.34375 -2.859375 C 1.34375 -2.859375 1.109375 -2.203125 1.109375 -1.9375 C 1.109375 -1.40625 1.703125 -1.296875 1.875 -1.28125 C 2.359375 -1.1875 2.734375 -1.125 2.734375 -0.796875 C 2.734375 -0.65625 2.625 -0.421875 2.390625 -0.296875 C 2.140625 -0.15625 1.859375 -0.15625 1.671875 -0.15625 C 1.4375 -0.15625 1.046875 -0.171875 0.84375 -0.390625 C 1.078125 -0.421875 1.1875 -0.609375 1.1875 -0.765625 C 1.1875 -0.890625 1.09375 -1 0.921875 -1 C 0.75 -1 0.546875 -0.875 0.546875 -0.5625 C 0.546875 -0.203125 0.90625 0.0625 1.65625 0.0625 C 2.875 0.0625 3.140625 -0.6875 3.140625 -0.984375 C 3.140625 -1.203125 3.046875 -1.359375 2.90625 -1.484375 C 2.6875 -1.65625 2.453125 -1.703125 2.140625 -1.75 C 1.8125 -1.8125 1.515625 -1.859375 1.515625 -2.125 C 1.515625 -2.125 1.515625 -2.65625 2.328125 -2.65625 C 2.5 -2.65625 2.828125 -2.625 2.96875 -2.4375 Z M 2.96875 -2.4375 "/>
</g>
<g id="glyph-6-0">
<path d="M 3.296875 -3.265625 C 3.3125 -3.34375 3.3125 -3.34375 3.3125 -3.375 C 3.3125 -3.453125 3.25 -3.453125 3.171875 -3.453125 L 2.546875 -3.40625 C 2.46875 -3.40625 2.453125 -3.40625 2.4375 -3.375 C 2.40625 -3.359375 2.390625 -3.296875 2.390625 -3.265625 C 2.390625 -3.1875 2.484375 -3.1875 2.546875 -3.1875 C 2.546875 -3.1875 2.640625 -3.1875 2.71875 -3.171875 C 2.8125 -3.15625 2.8125 -3.140625 2.8125 -3.109375 C 2.8125 -3.078125 2.78125 -2.9375 2.75 -2.84375 L 2.515625 -1.90625 C 2.421875 -2.03125 2.234375 -2.203125 1.921875 -2.203125 C 1.21875 -2.203125 0.515625 -1.515625 0.515625 -0.8125 C 0.515625 -0.296875 0.890625 0.0625 1.390625 0.0625 C 1.796875 0.0625 2.125 -0.234375 2.1875 -0.296875 C 2.265625 -0.046875 2.546875 0.0625 2.765625 0.0625 C 2.96875 0.0625 3.109375 -0.0625 3.203125 -0.21875 C 3.34375 -0.421875 3.40625 -0.6875 3.40625 -0.71875 C 3.40625 -0.78125 3.328125 -0.78125 3.296875 -0.78125 C 3.21875 -0.78125 3.203125 -0.75 3.1875 -0.671875 C 3.09375 -0.3125 2.96875 -0.109375 2.796875 -0.109375 C 2.65625 -0.109375 2.59375 -0.21875 2.59375 -0.375 C 2.59375 -0.4375 2.59375 -0.484375 2.609375 -0.53125 Z M 2.21875 -0.65625 C 2.1875 -0.59375 2.1875 -0.578125 2.109375 -0.484375 C 1.921875 -0.265625 1.65625 -0.109375 1.40625 -0.109375 C 1.234375 -0.109375 0.96875 -0.203125 0.96875 -0.625 C 0.96875 -0.859375 1.09375 -1.375 1.265625 -1.640625 C 1.453125 -1.90625 1.71875 -2.03125 1.921875 -2.03125 C 2.140625 -2.03125 2.359375 -1.90625 2.4375 -1.59375 Z M 2.21875 -0.65625 "/>
</g>
<g id="glyph-6-1">
<path d="M 0.703125 0.578125 C 0.65625 0.71875 0.65625 0.75 0.4375 0.75 C 0.359375 0.75 0.28125 0.75 0.28125 0.875 C 0.28125 0.9375 0.3125 0.96875 0.359375 0.96875 C 0.421875 0.96875 0.515625 0.953125 0.59375 0.953125 C 0.671875 0.953125 0.765625 0.953125 0.84375 0.953125 C 0.953125 0.953125 1.046875 0.953125 1.140625 0.953125 C 1.21875 0.953125 1.328125 0.96875 1.421875 0.96875 C 1.484375 0.96875 1.546875 0.9375 1.546875 0.828125 C 1.546875 0.75 1.453125 0.75 1.390625 0.75 C 1.21875 0.75 1.109375 0.75 1.109375 0.6875 C 1.109375 0.65625 1.1875 0.34375 1.34375 -0.25 C 1.46875 -0.078125 1.671875 0.0625 1.9375 0.0625 C 2.640625 0.0625 3.34375 -0.640625 3.34375 -1.328125 C 3.34375 -1.828125 2.96875 -2.203125 2.46875 -2.203125 C 2.078125 -2.203125 1.78125 -1.953125 1.671875 -1.859375 C 1.578125 -2.125 1.28125 -2.203125 1.09375 -2.203125 C 0.921875 -2.203125 0.765625 -2.125 0.640625 -1.921875 C 0.515625 -1.71875 0.453125 -1.453125 0.453125 -1.4375 C 0.453125 -1.359375 0.53125 -1.359375 0.5625 -1.359375 C 0.640625 -1.359375 0.65625 -1.390625 0.671875 -1.46875 C 0.734375 -1.671875 0.828125 -2.03125 1.0625 -2.03125 C 1.234375 -2.03125 1.265625 -1.875 1.265625 -1.765625 C 1.265625 -1.703125 1.265625 -1.6875 1.25 -1.640625 Z M 1.65625 -1.484375 C 1.671875 -1.5625 1.671875 -1.578125 1.765625 -1.671875 C 1.953125 -1.890625 2.21875 -2.03125 2.453125 -2.03125 C 2.65625 -2.03125 2.890625 -1.90625 2.890625 -1.53125 C 2.890625 -1.3125 2.78125 -0.828125 2.640625 -0.59375 C 2.421875 -0.21875 2.125 -0.109375 1.9375 -0.109375 C 1.53125 -0.109375 1.421875 -0.515625 1.421875 -0.5625 C 1.421875 -0.578125 1.4375 -0.609375 1.4375 -0.640625 Z M 1.65625 -1.484375 "/>
</g>
<g id="glyph-6-2">
<path d="M 2.984375 -2.015625 C 3 -2.078125 3 -2.09375 3 -2.125 C 3 -2.1875 2.9375 -2.203125 2.921875 -2.203125 C 2.859375 -2.203125 2.625 -2 2.546875 -1.875 C 2.453125 -2.015625 2.265625 -2.203125 1.921875 -2.203125 C 1.234375 -2.203125 0.53125 -1.53125 0.53125 -0.8125 C 0.53125 -0.296875 0.90625 0.0625 1.390625 0.0625 C 1.703125 0.0625 1.953125 -0.09375 2.09375 -0.21875 C 2.015625 0.15625 1.890625 0.609375 1.890625 0.625 C 1.859375 0.703125 1.84375 0.734375 1.53125 0.75 C 1.4375 0.75 1.359375 0.75 1.359375 0.875 C 1.359375 0.90625 1.375 0.96875 1.453125 0.96875 C 1.53125 0.96875 1.640625 0.953125 1.734375 0.953125 C 1.828125 0.953125 1.921875 0.953125 2.03125 0.953125 C 2.125 0.953125 2.21875 0.953125 2.3125 0.953125 C 2.40625 0.953125 2.515625 0.96875 2.609375 0.96875 C 2.6875 0.96875 2.734375 0.9375 2.734375 0.828125 C 2.734375 0.75 2.65625 0.75 2.59375 0.75 C 2.421875 0.75 2.3125 0.75 2.3125 0.6875 C 2.3125 0.671875 2.3125 0.65625 2.34375 0.578125 Z M 2.203125 -0.65625 C 2.1875 -0.578125 2.1875 -0.5625 2.09375 -0.46875 C 1.875 -0.234375 1.609375 -0.109375 1.421875 -0.109375 C 1.25 -0.109375 0.984375 -0.203125 0.984375 -0.625 C 0.984375 -0.828125 1.078125 -1.296875 1.234375 -1.578125 C 1.390625 -1.84375 1.671875 -2.03125 1.921875 -2.03125 C 2.34375 -2.03125 2.4375 -1.625 2.4375 -1.59375 C 2.4375 -1.5625 2.4375 -1.53125 2.421875 -1.515625 Z M 2.203125 -0.65625 "/>
</g>
<g id="glyph-7-0">
<path d="M 1.96875 1.046875 C 1.453125 0.640625 1.28125 0.40625 1.09375 -0.078125 C 0.9375 -0.515625 0.875 -1 0.875 -1.65625 C 0.875 -2.34375 0.953125 -2.875 1.125 -3.28125 C 1.3125 -3.671875 1.515625 -3.90625 1.96875 -4.296875 L 1.921875 -4.390625 C 1.4375 -4.078125 1.234375 -3.90625 1 -3.609375 C 0.546875 -3.046875 0.3125 -2.40625 0.3125 -1.640625 C 0.3125 -0.8125 0.546875 -0.171875 1.125 0.484375 C 1.390625 0.796875 1.5625 0.9375 1.890625 1.15625 Z M 1.96875 1.046875 "/>
</g>
<g id="glyph-7-1">
<path d="M 3.859375 -1.171875 C 3.859375 -1.453125 3.734375 -1.71875 3.53125 -1.90625 C 3.34375 -2.078125 3.171875 -2.15625 2.75 -2.265625 C 3.078125 -2.34375 3.21875 -2.40625 3.375 -2.546875 C 3.53125 -2.6875 3.640625 -2.9375 3.640625 -3.203125 C 3.640625 -3.921875 3.0625 -4.296875 1.9375 -4.296875 L 0.109375 -4.296875 L 0.109375 -4.171875 C 0.65625 -4.140625 0.734375 -4.078125 0.734375 -3.59375 L 0.734375 -0.703125 C 0.734375 -0.234375 0.65625 -0.140625 0.109375 -0.125 L 0.109375 0 L 2.28125 0 C 2.78125 0 3.25 -0.140625 3.484375 -0.359375 C 3.71875 -0.5625 3.859375 -0.859375 3.859375 -1.171875 Z M 3.109375 -1.15625 C 3.109375 -0.8125 2.96875 -0.5625 2.703125 -0.40625 C 2.5 -0.296875 2.234375 -0.234375 1.8125 -0.234375 C 1.484375 -0.234375 1.390625 -0.296875 1.390625 -0.5 L 1.390625 -2.125 C 2.03125 -2.125 2.328125 -2.09375 2.5625 -1.984375 C 2.9375 -1.828125 3.109375 -1.578125 3.109375 -1.15625 Z M 2.96875 -3.171875 C 2.96875 -2.671875 2.625 -2.375 2.015625 -2.375 L 1.390625 -2.375 L 1.390625 -3.875 C 1.390625 -4 1.4375 -4.0625 1.546875 -4.0625 L 1.828125 -4.0625 C 2.578125 -4.0625 2.96875 -3.75 2.96875 -3.171875 Z M 2.96875 -3.171875 "/>
</g>
<g id="glyph-7-2">
<path d="M 2.875 -0.265625 L 2.875 -0.421875 C 2.765625 -0.34375 2.6875 -0.3125 2.59375 -0.3125 C 2.4375 -0.3125 2.390625 -0.390625 2.390625 -0.6875 L 2.390625 -1.953125 C 2.390625 -2.28125 2.359375 -2.46875 2.265625 -2.609375 C 2.125 -2.859375 1.859375 -2.984375 1.453125 -2.984375 C 1.125 -2.984375 0.8125 -2.90625 0.625 -2.75 C 0.46875 -2.609375 0.359375 -2.421875 0.359375 -2.265625 C 0.359375 -2.109375 0.484375 -1.984375 0.640625 -1.984375 C 0.796875 -1.984375 0.9375 -2.109375 0.9375 -2.25 C 0.9375 -2.28125 0.921875 -2.3125 0.921875 -2.359375 C 0.90625 -2.421875 0.90625 -2.46875 0.90625 -2.515625 C 0.90625 -2.6875 1.109375 -2.828125 1.375 -2.828125 C 1.6875 -2.828125 1.859375 -2.640625 1.859375 -2.296875 L 1.859375 -1.890625 C 0.859375 -1.5 0.75 -1.4375 0.46875 -1.203125 C 0.328125 -1.0625 0.234375 -0.84375 0.234375 -0.625 C 0.234375 -0.21875 0.515625 0.0625 0.921875 0.0625 C 1.203125 0.0625 1.46875 -0.078125 1.875 -0.40625 C 1.90625 -0.0625 2.015625 0.0625 2.28125 0.0625 C 2.515625 0.0625 2.640625 -0.015625 2.875 -0.265625 Z M 1.859375 -0.796875 C 1.859375 -0.59375 1.828125 -0.546875 1.703125 -0.453125 C 1.546875 -0.359375 1.359375 -0.3125 1.21875 -0.3125 C 1 -0.3125 0.8125 -0.53125 0.8125 -0.8125 L 0.8125 -0.84375 C 0.8125 -1.21875 1.078125 -1.453125 1.859375 -1.734375 Z M 1.859375 -0.796875 "/>
</g>
<g id="glyph-7-3">
<path d="M 2.265625 -0.765625 C 2.265625 -1.09375 2.109375 -1.3125 1.71875 -1.546875 L 1.015625 -1.953125 C 0.828125 -2.0625 0.734375 -2.21875 0.734375 -2.40625 C 0.734375 -2.671875 0.9375 -2.84375 1.234375 -2.84375 C 1.609375 -2.84375 1.796875 -2.625 1.953125 -2.046875 L 2.046875 -2.046875 L 2.015625 -2.921875 L 1.953125 -2.921875 L 1.9375 -2.90625 C 1.875 -2.859375 1.875 -2.859375 1.84375 -2.859375 C 1.8125 -2.859375 1.734375 -2.875 1.671875 -2.90625 C 1.53125 -2.953125 1.390625 -2.984375 1.234375 -2.984375 C 0.703125 -2.984375 0.328125 -2.65625 0.328125 -2.1875 C 0.328125 -1.8125 0.546875 -1.5625 1.09375 -1.25 L 1.46875 -1.03125 C 1.703125 -0.90625 1.8125 -0.75 1.8125 -0.546875 C 1.8125 -0.265625 1.59375 -0.078125 1.265625 -0.078125 C 0.8125 -0.078125 0.59375 -0.328125 0.4375 -0.984375 L 0.34375 -0.984375 L 0.34375 0.03125 L 0.421875 0.03125 C 0.46875 -0.03125 0.5 -0.046875 0.578125 -0.046875 C 0.640625 -0.046875 0.71875 -0.03125 0.875 0 C 1.046875 0.03125 1.21875 0.0625 1.359375 0.0625 C 1.84375 0.0625 2.265625 -0.3125 2.265625 -0.765625 Z M 2.265625 -0.765625 "/>
</g>
<g id="glyph-7-4">
<path d="M 2.75 -1.015625 L 2.65625 -1.0625 C 2.34375 -0.578125 2.0625 -0.390625 1.640625 -0.390625 C 1.28125 -0.390625 1.015625 -0.546875 0.828125 -0.90625 C 0.703125 -1.15625 0.640625 -1.390625 0.625 -1.796875 L 2.625 -1.796875 C 2.578125 -2.21875 2.515625 -2.40625 2.359375 -2.625 C 2.15625 -2.859375 1.859375 -2.984375 1.515625 -2.984375 C 0.71875 -2.984375 0.15625 -2.34375 0.15625 -1.390625 C 0.15625 -0.5 0.625 0.0625 1.375 0.0625 C 2 0.0625 2.484375 -0.3125 2.75 -1.015625 Z M 1.96875 -2.015625 L 0.640625 -2.015625 C 0.71875 -2.515625 0.9375 -2.75 1.328125 -2.75 C 1.734375 -2.75 1.890625 -2.578125 1.96875 -2.015625 Z M 1.96875 -2.015625 "/>
</g>
<g id="glyph-7-5">
<path d="M 1.671875 0 L 1.671875 -0.09375 C 1.25 -0.125 1.1875 -0.1875 1.1875 -0.546875 L 1.1875 -4.421875 L 1.15625 -4.4375 C 0.8125 -4.328125 0.578125 -4.265625 0.125 -4.15625 L 0.125 -4.046875 L 0.15625 -4.046875 C 0.234375 -4.0625 0.3125 -4.0625 0.359375 -4.0625 C 0.578125 -4.0625 0.640625 -3.96875 0.640625 -3.671875 L 0.640625 -0.5625 C 0.640625 -0.21875 0.546875 -0.125 0.140625 -0.09375 L 0.140625 0 Z M 1.671875 0 "/>
</g>
<g id="glyph-7-6">
<path d="M 1.640625 0 L 1.640625 -0.09375 C 1.21875 -0.125 1.15625 -0.1875 1.15625 -0.65625 L 1.15625 -2.96875 L 1.140625 -2.984375 L 0.125 -2.625 L 0.125 -2.53125 L 0.1875 -2.546875 C 0.265625 -2.546875 0.34375 -2.5625 0.40625 -2.5625 C 0.5625 -2.5625 0.625 -2.453125 0.625 -2.171875 L 0.625 -0.65625 C 0.625 -0.1875 0.546875 -0.125 0.109375 -0.09375 L 0.109375 0 Z M 1.21875 -3.828125 C 1.21875 -4.015625 1.078125 -4.171875 0.890625 -4.171875 C 0.703125 -4.171875 0.5625 -4.015625 0.5625 -3.828125 C 0.5625 -3.640625 0.703125 -3.5 0.890625 -3.5 C 1.078125 -3.5 1.21875 -3.640625 1.21875 -3.828125 Z M 1.21875 -3.828125 "/>
</g>
<g id="glyph-7-7">
<path d="M 3.15625 0 L 3.15625 -0.09375 C 2.828125 -0.125 2.75 -0.203125 2.75 -0.53125 L 2.75 -2.015625 C 2.75 -2.625 2.46875 -2.984375 1.984375 -2.984375 C 1.6875 -2.984375 1.484375 -2.875 1.046875 -2.46875 L 1.046875 -2.984375 L 1 -2.984375 C 0.6875 -2.875 0.46875 -2.796875 0.109375 -2.703125 L 0.109375 -2.59375 C 0.140625 -2.609375 0.203125 -2.609375 0.28125 -2.609375 C 0.46875 -2.609375 0.515625 -2.515625 0.515625 -2.203125 L 0.515625 -0.578125 C 0.515625 -0.21875 0.453125 -0.125 0.109375 -0.09375 L 0.109375 0 L 1.5 0 L 1.5 -0.09375 C 1.15625 -0.125 1.0625 -0.203125 1.0625 -0.4375 L 1.0625 -2.265625 C 1.375 -2.546875 1.515625 -2.625 1.734375 -2.625 C 2.046875 -2.625 2.203125 -2.4375 2.203125 -2 L 2.203125 -0.640625 C 2.203125 -0.234375 2.125 -0.125 1.796875 -0.09375 L 1.796875 0 Z M 3.15625 0 "/>
</g>
<g id="glyph-7-8">
<path d="M 1.859375 -1.609375 C 1.859375 -2.4375 1.609375 -3.0625 1.046875 -3.734375 C 0.78125 -4.046875 0.609375 -4.1875 0.265625 -4.390625 L 0.1875 -4.296875 C 0.703125 -3.875 0.890625 -3.65625 1.0625 -3.171875 C 1.21875 -2.734375 1.296875 -2.234375 1.296875 -1.59375 C 1.296875 -0.90625 1.203125 -0.375 1.03125 0.03125 C 0.84375 0.4375 0.65625 0.671875 0.1875 1.046875 L 0.25 1.15625 C 0.734375 0.84375 0.921875 0.671875 1.15625 0.375 C 1.625 -0.1875 1.859375 -0.84375 1.859375 -1.609375 Z M 1.859375 -1.609375 "/>
</g>
<g id="glyph-8-0">
<path d="M 3.640625 1.921875 C 2.671875 1.171875 2.34375 0.75 2.015625 -0.140625 C 1.734375 -0.9375 1.609375 -1.859375 1.609375 -3.046875 C 1.609375 -4.296875 1.75 -5.28125 2.078125 -6.03125 C 2.421875 -6.765625 2.765625 -7.203125 3.640625 -7.890625 L 3.53125 -8.078125 C 2.640625 -7.5 2.28125 -7.203125 1.84375 -6.640625 C 0.984375 -5.609375 0.578125 -4.40625 0.578125 -3.015625 C 0.578125 -1.5 1.015625 -0.328125 2.0625 0.890625 C 2.5625 1.46875 2.875 1.734375 3.484375 2.109375 Z M 3.640625 1.921875 "/>
</g>
<g id="glyph-8-1">
<path d="M 5.28125 -0.484375 L 5.28125 -0.78125 C 5.078125 -0.625 4.9375 -0.5625 4.75 -0.5625 C 4.484375 -0.5625 4.40625 -0.734375 4.40625 -1.25 L 4.40625 -3.578125 C 4.40625 -4.203125 4.34375 -4.53125 4.171875 -4.8125 C 3.921875 -5.265625 3.40625 -5.5 2.671875 -5.5 C 2.0625 -5.5 1.5 -5.328125 1.15625 -5.0625 C 0.859375 -4.8125 0.671875 -4.453125 0.671875 -4.15625 C 0.671875 -3.890625 0.890625 -3.640625 1.1875 -3.640625 C 1.46875 -3.640625 1.71875 -3.890625 1.71875 -4.140625 C 1.71875 -4.203125 1.703125 -4.25 1.703125 -4.34375 C 1.671875 -4.453125 1.65625 -4.546875 1.65625 -4.625 C 1.65625 -4.953125 2.046875 -5.21875 2.515625 -5.21875 C 3.109375 -5.21875 3.4375 -4.859375 3.4375 -4.21875 L 3.4375 -3.484375 C 1.59375 -2.75 1.390625 -2.65625 0.875 -2.203125 C 0.609375 -1.953125 0.4375 -1.546875 0.4375 -1.15625 C 0.4375 -0.40625 0.953125 0.125 1.703125 0.125 C 2.21875 0.125 2.71875 -0.125 3.4375 -0.75 C 3.5 -0.125 3.71875 0.125 4.203125 0.125 C 4.609375 0.125 4.859375 -0.03125 5.28125 -0.484375 Z M 3.4375 -1.46875 C 3.4375 -1.09375 3.375 -0.984375 3.125 -0.84375 C 2.828125 -0.671875 2.5 -0.578125 2.25 -0.578125 C 1.828125 -0.578125 1.5 -0.984375 1.5 -1.5 L 1.5 -1.546875 C 1.5 -2.25 1.984375 -2.671875 3.4375 -3.203125 Z M 3.4375 -1.46875 "/>
</g>
<g id="glyph-8-2">
<path d="M 3.40625 -2.953125 C 3.40625 -4.484375 2.96875 -5.640625 1.90625 -6.859375 C 1.421875 -7.4375 1.109375 -7.703125 0.484375 -8.078125 L 0.34375 -7.890625 C 1.296875 -7.140625 1.625 -6.71875 1.953125 -5.828125 C 2.25 -5.015625 2.375 -4.109375 2.375 -2.921875 C 2.375 -1.671875 2.21875 -0.6875 1.90625 0.046875 C 1.5625 0.796875 1.203125 1.234375 0.34375 1.921875 L 0.453125 2.109375 C 1.34375 1.546875 1.703125 1.234375 2.140625 0.6875 C 2.984375 -0.359375 3.40625 -1.546875 3.40625 -2.953125 Z M 3.40625 -2.953125 "/>
</g>
<g id="glyph-8-3">
<path d="M 7.09375 -2.15625 C 7.09375 -2.671875 6.875 -3.15625 6.5 -3.5 C 6.140625 -3.828125 5.828125 -3.96875 5.046875 -4.15625 C 5.671875 -4.3125 5.921875 -4.4375 6.203125 -4.6875 C 6.5 -4.953125 6.6875 -5.390625 6.6875 -5.875 C 6.6875 -7.21875 5.625 -7.90625 3.546875 -7.90625 L 0.203125 -7.90625 L 0.203125 -7.6875 C 1.203125 -7.625 1.34375 -7.5 1.34375 -6.609375 L 1.34375 -1.296875 C 1.34375 -0.421875 1.1875 -0.265625 0.203125 -0.234375 L 0.203125 0 L 4.203125 0 C 5.125 0 5.96875 -0.25 6.421875 -0.65625 C 6.84375 -1.046875 7.09375 -1.578125 7.09375 -2.15625 Z M 5.71875 -2.140625 C 5.71875 -1.5 5.46875 -1.03125 4.984375 -0.75 C 4.609375 -0.53125 4.109375 -0.4375 3.328125 -0.4375 C 2.734375 -0.4375 2.5625 -0.546875 2.5625 -0.9375 L 2.5625 -3.890625 C 3.734375 -3.890625 4.28125 -3.84375 4.703125 -3.65625 C 5.390625 -3.375 5.71875 -2.890625 5.71875 -2.140625 Z M 5.46875 -5.828125 C 5.46875 -4.90625 4.828125 -4.375 3.703125 -4.375 L 2.5625 -4.375 L 2.5625 -7.109375 C 2.5625 -7.359375 2.65625 -7.46875 2.828125 -7.46875 L 3.359375 -7.46875 C 4.734375 -7.46875 5.46875 -6.890625 5.46875 -5.828125 Z M 5.46875 -5.828125 "/>
</g>
<g id="glyph-8-4">
<path d="M 4.15625 -1.40625 C 4.15625 -2.015625 3.890625 -2.40625 3.15625 -2.828125 L 1.859375 -3.59375 C 1.53125 -3.796875 1.34375 -4.09375 1.34375 -4.40625 C 1.34375 -4.90625 1.71875 -5.21875 2.265625 -5.21875 C 2.953125 -5.21875 3.3125 -4.828125 3.578125 -3.75 L 3.765625 -3.75 L 3.71875 -5.375 L 3.578125 -5.375 L 3.5625 -5.359375 C 3.453125 -5.265625 3.4375 -5.265625 3.390625 -5.265625 C 3.328125 -5.265625 3.203125 -5.28125 3.078125 -5.34375 C 2.828125 -5.4375 2.546875 -5.484375 2.265625 -5.484375 C 1.28125 -5.484375 0.609375 -4.890625 0.609375 -4.015625 C 0.609375 -3.34375 0.984375 -2.875 2.015625 -2.296875 L 2.703125 -1.90625 C 3.125 -1.65625 3.328125 -1.375 3.328125 -1 C 3.328125 -0.484375 2.9375 -0.140625 2.328125 -0.140625 C 1.5 -0.140625 1.09375 -0.59375 0.8125 -1.8125 L 0.625 -1.8125 L 0.625 0.046875 L 0.78125 0.046875 C 0.859375 -0.078125 0.90625 -0.09375 1.046875 -0.09375 C 1.1875 -0.09375 1.3125 -0.078125 1.609375 0 C 1.9375 0.078125 2.234375 0.125 2.484375 0.125 C 3.390625 0.125 4.15625 -0.578125 4.15625 -1.40625 Z M 4.15625 -1.40625 "/>
</g>
<g id="glyph-8-5">
<path d="M 5.0625 -1.875 L 4.875 -1.953125 C 4.296875 -1.046875 3.796875 -0.703125 3.03125 -0.703125 C 2.359375 -0.703125 1.859375 -1.015625 1.515625 -1.65625 C 1.28125 -2.125 1.1875 -2.546875 1.15625 -3.3125 L 4.84375 -3.3125 C 4.75 -4.09375 4.625 -4.4375 4.328125 -4.8125 C 3.96875 -5.25 3.421875 -5.5 2.796875 -5.5 C 1.3125 -5.5 0.296875 -4.296875 0.296875 -2.5625 C 0.296875 -0.90625 1.15625 0.125 2.53125 0.125 C 3.6875 0.125 4.5625 -0.578125 5.0625 -1.875 Z M 3.625 -3.6875 L 1.1875 -3.6875 C 1.3125 -4.640625 1.71875 -5.0625 2.453125 -5.0625 C 3.171875 -5.0625 3.46875 -4.734375 3.625 -3.6875 Z M 3.625 -3.6875 "/>
</g>
<g id="glyph-8-6">
<path d="M 3.078125 0 L 3.078125 -0.171875 C 2.3125 -0.234375 2.171875 -0.34375 2.171875 -1 L 2.171875 -8.140625 L 2.125 -8.15625 C 1.5 -7.953125 1.046875 -7.84375 0.234375 -7.640625 L 0.234375 -7.453125 L 0.296875 -7.453125 C 0.4375 -7.453125 0.578125 -7.46875 0.671875 -7.46875 C 1.046875 -7.46875 1.171875 -7.296875 1.171875 -6.734375 L 1.171875 -1.046875 C 1.171875 -0.390625 1 -0.234375 0.25 -0.171875 L 0.25 0 Z M 3.078125 0 "/>
</g>
<g id="glyph-8-7">
<path d="M 3.03125 0 L 3.03125 -0.171875 C 2.234375 -0.234375 2.140625 -0.359375 2.140625 -1.21875 L 2.140625 -5.46875 L 2.09375 -5.5 L 0.234375 -4.84375 L 0.234375 -4.65625 L 0.328125 -4.671875 C 0.484375 -4.703125 0.640625 -4.703125 0.734375 -4.703125 C 1.03125 -4.703125 1.140625 -4.515625 1.140625 -4 L 1.140625 -1.21875 C 1.140625 -0.359375 1.015625 -0.234375 0.1875 -0.171875 L 0.1875 0 Z M 2.25 -7.046875 C 2.25 -7.390625 1.984375 -7.65625 1.640625 -7.65625 C 1.296875 -7.65625 1.03125 -7.390625 1.03125 -7.046875 C 1.03125 -6.703125 1.296875 -6.4375 1.640625 -6.4375 C 1.984375 -6.4375 2.25 -6.703125 2.25 -7.046875 Z M 2.25 -7.046875 "/>
</g>
<g id="glyph-8-8">
<path d="M 5.796875 0 L 5.796875 -0.171875 C 5.21875 -0.234375 5.0625 -0.375 5.0625 -0.96875 L 5.0625 -3.703125 C 5.0625 -4.828125 4.546875 -5.5 3.65625 -5.5 C 3.109375 -5.5 2.734375 -5.296875 1.921875 -4.53125 L 1.921875 -5.46875 L 1.84375 -5.5 C 1.25 -5.28125 0.84375 -5.15625 0.1875 -4.953125 L 0.1875 -4.75 C 0.265625 -4.796875 0.375 -4.8125 0.515625 -4.8125 C 0.84375 -4.8125 0.953125 -4.625 0.953125 -4.046875 L 0.953125 -1.078125 C 0.953125 -0.390625 0.828125 -0.234375 0.21875 -0.171875 L 0.21875 0 L 2.75 0 L 2.75 -0.171875 C 2.140625 -0.234375 1.953125 -0.375 1.953125 -0.796875 L 1.953125 -4.15625 C 2.53125 -4.703125 2.796875 -4.84375 3.1875 -4.84375 C 3.78125 -4.84375 4.0625 -4.46875 4.0625 -3.6875 L 4.0625 -1.1875 C 4.0625 -0.4375 3.90625 -0.234375 3.3125 -0.171875 L 3.3125 0 Z M 5.796875 0 "/>
</g>
<g id="glyph-8-9">
<path d="M 5.59375 -2.90625 C 5.59375 -4.375 4.6875 -5.5 3.484375 -5.5 C 2.765625 -5.5 2.0625 -5.0625 1.828125 -4.484375 L 1.828125 -8.140625 L 1.765625 -8.15625 C 1.265625 -7.984375 0.9375 -7.890625 0.375 -7.734375 L 0.03125 -7.640625 L 0.03125 -7.453125 C 0.109375 -7.453125 0.15625 -7.453125 0.234375 -7.453125 C 0.71875 -7.453125 0.828125 -7.34375 0.828125 -6.84375 L 0.828125 -0.640625 C 0.828125 -0.28125 1.84375 0.125 2.796875 0.125 C 4.375 0.125 5.59375 -1.1875 5.59375 -2.90625 Z M 4.546875 -2.359375 C 4.546875 -1.03125 3.96875 -0.265625 2.984375 -0.265625 C 2.359375 -0.265625 1.828125 -0.53125 1.828125 -0.84375 L 1.828125 -3.84375 C 1.828125 -4.3125 2.390625 -4.75 3.015625 -4.75 C 3.9375 -4.75 4.546875 -3.8125 4.546875 -2.359375 Z M 4.546875 -2.359375 "/>
</g>
<g id="glyph-8-10">
<path d="M 10.3125 0 L 10.3125 -0.234375 C 9.4375 -0.28125 9.28125 -0.453125 9.28125 -1.296875 L 9.28125 -6.609375 C 9.28125 -7.453125 9.4375 -7.609375 10.3125 -7.6875 L 10.3125 -7.90625 L 7.9375 -7.90625 L 5.296875 -1.875 L 2.53125 -7.90625 L 0.171875 -7.90625 L 0.171875 -7.6875 C 1.140625 -7.625 1.296875 -7.484375 1.296875 -6.609375 L 1.296875 -1.75 C 1.296875 -0.53125 1.140625 -0.296875 0.140625 -0.234375 L 0.140625 0 L 2.953125 0 L 2.953125 -0.234375 C 2.03125 -0.28125 1.828125 -0.546875 1.828125 -1.75 L 1.828125 -6.578125 L 4.828125 0 L 5 0 L 8.0625 -6.84375 L 8.0625 -1.4375 C 8.0625 -0.4375 7.90625 -0.28125 6.96875 -0.234375 L 6.96875 0 Z M 10.3125 0 "/>
</g>
<g id="glyph-8-11">
<path d="M 3.765625 0 L 3.765625 -0.234375 C 2.78125 -0.265625 2.59375 -0.4375 2.59375 -1.296875 L 2.59375 -6.609375 C 2.59375 -7.484375 2.765625 -7.640625 3.765625 -7.6875 L 3.765625 -7.90625 L 0.21875 -7.90625 L 0.21875 -7.6875 C 1.234375 -7.625 1.375 -7.5 1.375 -6.609375 L 1.375 -1.296875 C 1.375 -0.40625 1.21875 -0.265625 0.21875 -0.234375 L 0.21875 0 Z M 3.765625 0 "/>
</g>
<g id="glyph-8-12">
<path d="M 8.640625 0 L 8.640625 -0.234375 C 8.015625 -0.234375 7.859375 -0.359375 6.765625 -1.515625 L 3.984375 -4.5 L 6.25 -6.75 C 7.0625 -7.53125 7.25 -7.625 8.0625 -7.6875 L 8.0625 -7.90625 L 4.9375 -7.90625 L 4.9375 -7.6875 C 5.078125 -7.671875 5.203125 -7.671875 5.25 -7.671875 C 5.609375 -7.65625 5.75 -7.546875 5.75 -7.3125 C 5.75 -7.046875 5.46875 -6.6875 4.8125 -6.078125 L 2.703125 -4.15625 L 2.703125 -6.609375 C 2.703125 -7.484375 2.828125 -7.609375 3.796875 -7.6875 L 3.796875 -7.90625 L 0.40625 -7.90625 L 0.40625 -7.6875 C 1.34375 -7.609375 1.484375 -7.453125 1.484375 -6.609375 L 1.484375 -1.4375 C 1.484375 -0.4375 1.34375 -0.28125 0.40625 -0.234375 L 0.40625 0 L 3.78125 0 L 3.78125 -0.234375 C 2.84375 -0.28125 2.703125 -0.4375 2.703125 -1.296875 L 2.703125 -3.53125 L 3.015625 -3.796875 L 4.28125 -2.53125 C 5.1875 -1.640625 5.828125 -0.78125 5.828125 -0.5 C 5.828125 -0.328125 5.671875 -0.25 5.328125 -0.234375 C 5.265625 -0.234375 5.140625 -0.234375 5 -0.234375 L 5 0 Z M 8.640625 0 "/>
</g>
<g id="glyph-8-13">
<path d="M 8.421875 -7.6875 L 8.421875 -7.90625 L 5.65625 -7.90625 L 5.65625 -7.6875 C 6.59375 -7.609375 6.78125 -7.34375 6.78125 -6.15625 L 6.78125 -2.921875 C 6.78125 -2.109375 6.6875 -1.65625 6.5 -1.296875 C 6.1875 -0.734375 5.421875 -0.359375 4.515625 -0.359375 C 3.671875 -0.359375 3.078125 -0.640625 2.765625 -1.203125 C 2.546875 -1.59375 2.46875 -2.03125 2.46875 -2.78125 L 2.46875 -6.609375 C 2.46875 -7.46875 2.59375 -7.609375 3.546875 -7.6875 L 3.546875 -7.90625 L 0.171875 -7.90625 L 0.171875 -7.6875 C 1.109375 -7.609375 1.25 -7.484375 1.25 -6.609375 L 1.25 -2.875 C 1.25 -0.8125 2.21875 0.171875 4.25 0.171875 C 5.546875 0.171875 6.4375 -0.25 6.90625 -1.0625 C 7.203125 -1.5625 7.296875 -2.109375 7.296875 -3.03125 L 7.296875 -6.15625 C 7.296875 -7.375 7.453125 -7.5625 8.421875 -7.6875 Z M 8.421875 -7.6875 "/>
</g>
<g id="glyph-9-0">
<path d="M 3.578125 -2.078125 C 3.578125 -2.546875 3.578125 -4.328125 1.984375 -4.328125 C 0.390625 -4.328125 0.390625 -2.546875 0.390625 -2.078125 C 0.390625 -1.609375 0.390625 0.140625 1.984375 0.140625 C 3.578125 0.140625 3.578125 -1.609375 3.578125 -2.078125 Z M 1.984375 -0.078125 C 1.703125 -0.078125 1.265625 -0.203125 1.109375 -0.734375 C 1 -1.125 1 -1.75 1 -2.15625 C 1 -2.59375 1 -3.09375 1.09375 -3.4375 C 1.265625 -4.03125 1.75 -4.109375 1.984375 -4.109375 C 2.28125 -4.109375 2.703125 -3.96875 2.859375 -3.484375 C 2.953125 -3.140625 2.953125 -2.65625 2.953125 -2.15625 C 2.953125 -1.734375 2.953125 -1.078125 2.84375 -0.71875 C 2.671875 -0.15625 2.203125 -0.078125 1.984375 -0.078125 Z M 1.984375 -0.078125 "/>
</g>
<g id="glyph-9-1">
<path d="M 3.5 -1.21875 L 3.25 -1.21875 C 3.25 -1.125 3.171875 -0.703125 3.078125 -0.625 C 3.03125 -0.578125 2.515625 -0.578125 2.421875 -0.578125 L 1.203125 -0.578125 L 2.03125 -1.265625 C 2.25 -1.4375 2.828125 -1.859375 3.03125 -2.046875 C 3.234375 -2.25 3.5 -2.578125 3.5 -3.03125 C 3.5 -3.84375 2.765625 -4.328125 1.890625 -4.328125 C 1.046875 -4.328125 0.46875 -3.765625 0.46875 -3.15625 C 0.46875 -2.828125 0.75 -2.78125 0.8125 -2.78125 C 0.984375 -2.78125 1.171875 -2.90625 1.171875 -3.140625 C 1.171875 -3.28125 1.078125 -3.484375 0.796875 -3.484375 C 0.953125 -3.828125 1.34375 -4.0625 1.796875 -4.0625 C 2.46875 -4.0625 2.84375 -3.5625 2.84375 -3.03125 C 2.84375 -2.578125 2.53125 -2.09375 2.078125 -1.6875 L 0.546875 -0.265625 C 0.46875 -0.203125 0.46875 -0.203125 0.46875 0 L 3.296875 0 Z M 3.5 -1.21875 "/>
</g>
<g id="glyph-9-2">
<path d="M 3.671875 -1.0625 L 3.671875 -1.3125 L 2.90625 -1.3125 L 2.90625 -4.1875 C 2.90625 -4.34375 2.90625 -4.390625 2.75 -4.390625 C 2.625 -4.390625 2.609375 -4.375 2.546875 -4.296875 L 0.296875 -1.3125 L 0.296875 -1.0625 L 2.328125 -1.0625 L 2.328125 -0.546875 C 2.328125 -0.328125 2.328125 -0.25 1.78125 -0.25 L 1.59375 -0.25 L 1.59375 0 C 1.71875 0 2.328125 -0.03125 2.609375 -0.03125 C 2.90625 -0.03125 3.515625 0 3.640625 0 L 3.640625 -0.25 L 3.453125 -0.25 C 2.90625 -0.25 2.90625 -0.328125 2.90625 -0.546875 L 2.90625 -1.0625 Z M 2.359375 -3.671875 L 2.359375 -1.3125 L 0.578125 -1.3125 Z M 2.359375 -3.671875 "/>
</g>
<g id="glyph-9-3">
<path d="M 1.0625 -2.15625 C 1.0625 -2.46875 1.078125 -3.015625 1.3125 -3.421875 C 1.59375 -3.90625 2.015625 -4.109375 2.40625 -4.109375 C 2.5625 -4.109375 2.859375 -4.078125 3.015625 -3.90625 C 2.78125 -3.859375 2.734375 -3.6875 2.734375 -3.59375 C 2.734375 -3.421875 2.859375 -3.28125 3.046875 -3.28125 C 3.25 -3.28125 3.359375 -3.40625 3.359375 -3.59375 C 3.359375 -4 3.0625 -4.328125 2.40625 -4.328125 C 1.390625 -4.328125 0.40625 -3.4375 0.40625 -2.0625 C 0.40625 -0.484375 1.140625 0.140625 2 0.140625 C 2.25 0.140625 2.703125 0.09375 3.09375 -0.28125 C 3.296875 -0.5 3.5625 -0.75 3.5625 -1.328125 C 3.5625 -1.546875 3.53125 -1.96875 3.140625 -2.328125 C 2.90625 -2.546875 2.625 -2.765625 2.0625 -2.765625 C 1.609375 -2.765625 1.28125 -2.53125 1.0625 -2.15625 Z M 2 -0.09375 C 1.078125 -0.09375 1.078125 -1.21875 1.078125 -1.46875 C 1.078125 -2.03125 1.453125 -2.5625 2.03125 -2.5625 C 2.375 -2.5625 2.5625 -2.421875 2.71875 -2.21875 C 2.90625 -1.96875 2.90625 -1.671875 2.90625 -1.328125 C 2.90625 -0.875 2.890625 -0.65625 2.671875 -0.390625 C 2.515625 -0.203125 2.3125 -0.09375 2 -0.09375 Z M 2 -0.09375 "/>
</g>
<g id="glyph-9-4">
<path d="M 2.5 -2.34375 C 2.984375 -2.5625 3.34375 -2.875 3.34375 -3.34375 C 3.34375 -3.984375 2.671875 -4.328125 1.984375 -4.328125 C 1.25 -4.328125 0.625 -3.875 0.625 -3.21875 C 0.625 -2.828125 0.890625 -2.515625 1.15625 -2.34375 C 1.21875 -2.3125 1.375 -2.21875 1.4375 -2.1875 C 1.015625 -2.015625 0.40625 -1.65625 0.40625 -1 C 0.40625 -0.234375 1.21875 0.140625 1.96875 0.140625 C 2.84375 0.140625 3.5625 -0.390625 3.5625 -1.109375 C 3.5625 -1.546875 3.28125 -1.8125 3.1875 -1.921875 C 3.0625 -2.03125 2.734375 -2.21875 2.5 -2.34375 Z M 1.328125 -2.984375 C 1.3125 -3 0.984375 -3.171875 0.984375 -3.484375 C 0.984375 -3.90625 1.5 -4.109375 1.96875 -4.109375 C 2.484375 -4.109375 2.984375 -3.828125 2.984375 -3.34375 C 2.984375 -2.84375 2.4375 -2.578125 2.265625 -2.484375 Z M 1.703125 -2.046875 C 1.78125 -2.015625 2.46875 -1.625 2.640625 -1.53125 C 2.78125 -1.4375 3.140625 -1.25 3.140625 -0.875 C 3.140625 -0.359375 2.546875 -0.09375 1.984375 -0.09375 C 1.390625 -0.09375 0.828125 -0.453125 0.828125 -1 C 0.828125 -1.546875 1.34375 -1.921875 1.703125 -2.046875 Z M 1.703125 -2.046875 "/>
</g>
<g id="glyph-9-5">
<path d="M 2.328125 -4.125 C 2.328125 -4.328125 2.3125 -4.328125 2.109375 -4.328125 C 1.6875 -3.90625 1.015625 -3.90625 0.78125 -3.90625 L 0.78125 -3.65625 C 0.953125 -3.65625 1.390625 -3.65625 1.78125 -3.828125 L 1.78125 -0.546875 C 1.78125 -0.34375 1.78125 -0.25 1.109375 -0.25 L 0.828125 -0.25 L 0.828125 0 C 1.1875 -0.03125 1.6875 -0.03125 2.046875 -0.03125 C 2.421875 -0.03125 2.921875 -0.03125 3.28125 0 L 3.28125 -0.25 L 3 -0.25 C 2.328125 -0.25 2.328125 -0.34375 2.328125 -0.546875 Z M 2.328125 -4.125 "/>
</g>
<g id="glyph-10-0">
<path d="M 1.84375 -2.96875 L 2.609375 -2.96875 C 2.75 -2.96875 2.84375 -2.96875 2.84375 -3.125 C 2.84375 -3.234375 2.75 -3.234375 2.625 -3.234375 L 1.90625 -3.234375 L 2.1875 -4.34375 C 2.203125 -4.375 2.21875 -4.421875 2.21875 -4.453125 C 2.21875 -4.578125 2.109375 -4.6875 1.953125 -4.6875 C 1.765625 -4.6875 1.65625 -4.5625 1.609375 -4.359375 C 1.546875 -4.171875 1.65625 -4.53125 1.3125 -3.234375 L 0.5625 -3.234375 C 0.40625 -3.234375 0.3125 -3.234375 0.3125 -3.0625 C 0.3125 -2.96875 0.40625 -2.96875 0.546875 -2.96875 L 1.25 -2.96875 L 0.8125 -1.1875 C 0.765625 -1 0.703125 -0.734375 0.703125 -0.640625 C 0.703125 -0.1875 1.078125 0.078125 1.5 0.078125 C 2.328125 0.078125 2.8125 -0.96875 2.8125 -1.078125 C 2.8125 -1.171875 2.703125 -1.171875 2.6875 -1.171875 C 2.59375 -1.171875 2.59375 -1.15625 2.53125 -1.03125 C 2.3125 -0.5625 1.9375 -0.140625 1.515625 -0.140625 C 1.359375 -0.140625 1.265625 -0.234375 1.265625 -0.5 C 1.265625 -0.578125 1.296875 -0.734375 1.3125 -0.8125 Z M 1.84375 -2.96875 "/>
</g>
<g id="glyph-11-0">
<path d="M 2.28125 1.203125 C 1.6875 0.734375 1.46875 0.46875 1.265625 -0.09375 C 1.09375 -0.59375 1 -1.15625 1 -1.90625 C 1 -2.703125 1.109375 -3.3125 1.3125 -3.78125 C 1.515625 -4.25 1.734375 -4.515625 2.28125 -4.953125 L 2.21875 -5.0625 C 1.65625 -4.703125 1.4375 -4.515625 1.15625 -4.171875 C 0.625 -3.515625 0.359375 -2.765625 0.359375 -1.890625 C 0.359375 -0.9375 0.640625 -0.203125 1.296875 0.5625 C 1.609375 0.921875 1.796875 1.09375 2.1875 1.328125 Z M 2.28125 1.203125 "/>
</g>
<g id="glyph-11-1">
<path d="M 2.609375 -0.890625 C 2.609375 -1.265625 2.4375 -1.5 1.984375 -1.78125 L 1.171875 -2.25 C 0.953125 -2.375 0.84375 -2.5625 0.84375 -2.765625 C 0.84375 -3.078125 1.078125 -3.28125 1.421875 -3.28125 C 1.859375 -3.28125 2.078125 -3.03125 2.25 -2.359375 L 2.359375 -2.359375 L 2.328125 -3.375 L 2.25 -3.375 L 2.234375 -3.359375 C 2.171875 -3.3125 2.15625 -3.296875 2.125 -3.296875 C 2.078125 -3.296875 2.015625 -3.3125 1.921875 -3.359375 C 1.765625 -3.40625 1.59375 -3.4375 1.421875 -3.4375 C 0.796875 -3.4375 0.375 -3.0625 0.375 -2.515625 C 0.375 -2.09375 0.625 -1.8125 1.265625 -1.4375 L 1.6875 -1.1875 C 1.953125 -1.046875 2.078125 -0.859375 2.078125 -0.625 C 2.078125 -0.296875 1.84375 -0.09375 1.46875 -0.09375 C 0.9375 -0.09375 0.6875 -0.375 0.515625 -1.140625 L 0.390625 -1.140625 L 0.390625 0.03125 L 0.484375 0.03125 C 0.546875 -0.046875 0.5625 -0.0625 0.65625 -0.0625 C 0.75 -0.0625 0.828125 -0.046875 1 0 C 1.21875 0.046875 1.40625 0.078125 1.5625 0.078125 C 2.125 0.078125 2.609375 -0.359375 2.609375 -0.890625 Z M 2.609375 -0.890625 "/>
</g>
<g id="glyph-11-2">
<path d="M 2.140625 -1.859375 C 2.140625 -2.8125 1.859375 -3.546875 1.203125 -4.3125 C 0.890625 -4.671875 0.703125 -4.828125 0.3125 -5.0625 L 0.21875 -4.953125 C 0.8125 -4.484375 1.015625 -4.21875 1.234375 -3.65625 C 1.40625 -3.15625 1.5 -2.578125 1.5 -1.828125 C 1.5 -1.046875 1.390625 -0.421875 1.1875 0.03125 C 0.984375 0.5 0.75 0.765625 0.21875 1.203125 L 0.28125 1.328125 C 0.84375 0.96875 1.0625 0.765625 1.34375 0.421875 C 1.875 -0.21875 2.140625 -0.96875 2.140625 -1.859375 Z M 2.140625 -1.859375 "/>
</g>
<g id="glyph-12-0">
<path d="M -2.8125 -3.234375 C -2.78125 -3.03125 -2.625 -2.921875 -2.46875 -2.921875 C -2.296875 -2.921875 -2.234375 -3.0625 -2.234375 -3.171875 C -2.234375 -3.234375 -2.265625 -3.53125 -2.65625 -3.53125 C -3.140625 -3.53125 -3.3125 -2.984375 -3.3125 -2.53125 C -3.3125 -1.359375 -2.4375 -1.140625 -2.21875 -1.140625 C -1.9375 -1.140625 -1.75 -1.3125 -1.671875 -1.40625 C -1.515625 -1.609375 -1.484375 -1.734375 -1.390625 -2.25 C -1.359375 -2.421875 -1.28125 -2.890625 -0.90625 -2.890625 C -0.765625 -2.890625 -0.484375 -2.8125 -0.296875 -2.5 C -0.140625 -2.203125 -0.140625 -1.84375 -0.140625 -1.75 C -0.140625 -1.453125 -0.203125 -1.015625 -0.453125 -0.84375 C -0.484375 -1.09375 -0.671875 -1.265625 -0.875 -1.265625 C -1.0625 -1.265625 -1.15625 -1.125 -1.15625 -0.96875 C -1.15625 -0.75 -0.984375 -0.53125 -0.65625 -0.53125 C -0.203125 -0.53125 0.078125 -1.015625 0.078125 -1.734375 C 0.078125 -3.125 -0.875 -3.375 -1.15625 -3.375 C -1.859375 -3.375 -1.984375 -2.625 -2.046875 -2.34375 C -2.0625 -2.265625 -2.078125 -2.078125 -2.09375 -2.046875 C -2.15625 -1.765625 -2.3125 -1.625 -2.46875 -1.625 C -2.640625 -1.625 -2.84375 -1.765625 -2.953125 -1.921875 C -3.078125 -2.125 -3.09375 -2.390625 -3.09375 -2.515625 C -3.09375 -2.671875 -3.078125 -3.0625 -2.8125 -3.234375 Z M -2.8125 -3.234375 "/>
</g>
<g id="glyph-13-0">
<path d="M 1.203125 -2.28125 C 0.734375 -1.6875 0.46875 -1.46875 -0.09375 -1.265625 C -0.59375 -1.09375 -1.15625 -1 -1.90625 -1 C -2.703125 -1 -3.3125 -1.109375 -3.78125 -1.3125 C -4.25 -1.515625 -4.515625 -1.734375 -4.953125 -2.28125 L -5.0625 -2.21875 C -4.703125 -1.65625 -4.515625 -1.4375 -4.171875 -1.15625 C -3.515625 -0.625 -2.765625 -0.359375 -1.890625 -0.359375 C -0.9375 -0.359375 -0.203125 -0.640625 0.5625 -1.296875 C 0.921875 -1.609375 1.09375 -1.796875 1.328125 -2.1875 Z M 1.203125 -2.28125 "/>
</g>
<g id="glyph-13-1">
<path d="M 0 -5.8125 L -0.109375 -5.8125 L -0.125 -5.625 C -0.140625 -5.390625 -0.28125 -5.296875 -0.5625 -5.296875 L -2.109375 -5.296875 C -3 -5.296875 -3.453125 -5 -3.453125 -4.421875 C -3.453125 -3.984375 -3.25 -3.609375 -2.8125 -3.203125 C -3.25 -3.0625 -3.453125 -2.8125 -3.453125 -2.40625 C -3.453125 -2.078125 -3.34375 -1.875 -2.875 -1.25 L -3.4375 -1.25 L -3.453125 -1.1875 C -3.3125 -0.8125 -3.21875 -0.5625 -3.109375 -0.140625 L -2.984375 -0.140625 C -3 -0.234375 -3.015625 -0.296875 -3.015625 -0.375 C -3.015625 -0.578125 -2.890625 -0.640625 -2.53125 -0.640625 L -0.640625 -0.640625 C -0.234375 -0.640625 -0.125 -0.546875 -0.109375 -0.125 L 0 -0.125 L 0 -1.78125 L -0.109375 -1.78125 C -0.125 -1.390625 -0.203125 -1.28125 -0.5 -1.28125 L -2.625 -1.28125 C -2.625 -1.28125 -2.703125 -1.328125 -2.765625 -1.390625 C -2.9375 -1.578125 -3.0625 -1.890625 -3.0625 -2.15625 C -3.0625 -2.484375 -2.796875 -2.65625 -2.265625 -2.65625 L -0.640625 -2.65625 C -0.21875 -2.65625 -0.140625 -2.578125 -0.109375 -2.140625 L 0 -2.140625 L 0 -3.828125 L -0.109375 -3.828125 C -0.125 -3.390625 -0.25 -3.28125 -0.71875 -3.28125 L -2.609375 -3.28125 C -2.921875 -3.515625 -3.0625 -3.75 -3.0625 -4.109375 C -3.0625 -4.53125 -2.859375 -4.671875 -2.234375 -4.671875 L -0.65625 -4.671875 C -0.21875 -4.671875 -0.171875 -4.609375 -0.109375 -4.171875 L 0 -4.171875 Z M 0 -5.8125 "/>
</g>
<g id="glyph-13-2">
<path d="M -1.859375 -2.140625 C -2.8125 -2.140625 -3.546875 -1.859375 -4.3125 -1.203125 C -4.671875 -0.890625 -4.828125 -0.703125 -5.0625 -0.3125 L -4.953125 -0.21875 C -4.484375 -0.8125 -4.21875 -1.015625 -3.65625 -1.234375 C -3.15625 -1.40625 -2.578125 -1.5 -1.828125 -1.5 C -1.046875 -1.5 -0.421875 -1.390625 0.03125 -1.1875 C 0.5 -0.984375 0.765625 -0.75 1.203125 -0.21875 L 1.328125 -0.28125 C 0.96875 -0.84375 0.765625 -1.0625 0.421875 -1.34375 C -0.21875 -1.875 -0.96875 -2.140625 -1.859375 -2.140625 Z M -1.859375 -2.140625 "/>
</g>
<g id="glyph-14-0">
<path d="M 2.96875 -2.4375 C 2.78125 -2.40625 2.703125 -2.234375 2.703125 -2.140625 C 2.703125 -2.03125 2.78125 -1.921875 2.9375 -1.921875 C 3.0625 -1.921875 3.25 -2.015625 3.25 -2.296875 C 3.25 -2.734375 2.765625 -2.859375 2.34375 -2.859375 C 1.34375 -2.859375 1.109375 -2.203125 1.109375 -1.9375 C 1.109375 -1.40625 1.703125 -1.296875 1.875 -1.28125 C 2.359375 -1.1875 2.734375 -1.125 2.734375 -0.796875 C 2.734375 -0.65625 2.625 -0.421875 2.390625 -0.296875 C 2.140625 -0.15625 1.859375 -0.15625 1.671875 -0.15625 C 1.4375 -0.15625 1.046875 -0.171875 0.84375 -0.390625 C 1.078125 -0.421875 1.1875 -0.609375 1.1875 -0.765625 C 1.1875 -0.890625 1.09375 -1 0.921875 -1 C 0.75 -1 0.546875 -0.875 0.546875 -0.5625 C 0.546875 -0.203125 0.90625 0.0625 1.65625 0.0625 C 2.875 0.0625 3.140625 -0.6875 3.140625 -0.984375 C 3.140625 -1.203125 3.046875 -1.359375 2.90625 -1.484375 C 2.6875 -1.65625 2.453125 -1.703125 2.140625 -1.75 C 1.8125 -1.8125 1.515625 -1.859375 1.515625 -2.125 C 1.515625 -2.125 1.515625 -2.65625 2.328125 -2.65625 C 2.5 -2.65625 2.828125 -2.625 2.96875 -2.4375 Z M 2.96875 -2.4375 "/>
</g>
<g id="glyph-15-0">
<path d="M 3.296875 -3.265625 C 3.3125 -3.34375 3.3125 -3.34375 3.3125 -3.375 C 3.3125 -3.453125 3.25 -3.453125 3.171875 -3.453125 L 2.546875 -3.40625 C 2.46875 -3.40625 2.453125 -3.40625 2.4375 -3.375 C 2.40625 -3.359375 2.390625 -3.296875 2.390625 -3.265625 C 2.390625 -3.1875 2.484375 -3.1875 2.546875 -3.1875 C 2.546875 -3.1875 2.640625 -3.1875 2.71875 -3.171875 C 2.8125 -3.15625 2.8125 -3.140625 2.8125 -3.109375 C 2.8125 -3.078125 2.78125 -2.9375 2.75 -2.84375 L 2.515625 -1.90625 C 2.421875 -2.03125 2.234375 -2.203125 1.921875 -2.203125 C 1.21875 -2.203125 0.515625 -1.515625 0.515625 -0.8125 C 0.515625 -0.296875 0.890625 0.0625 1.390625 0.0625 C 1.796875 0.0625 2.125 -0.234375 2.1875 -0.296875 C 2.265625 -0.046875 2.546875 0.0625 2.765625 0.0625 C 2.96875 0.0625 3.109375 -0.0625 3.203125 -0.21875 C 3.34375 -0.421875 3.40625 -0.6875 3.40625 -0.71875 C 3.40625 -0.78125 3.328125 -0.78125 3.296875 -0.78125 C 3.21875 -0.78125 3.203125 -0.75 3.1875 -0.671875 C 3.09375 -0.3125 2.96875 -0.109375 2.796875 -0.109375 C 2.65625 -0.109375 2.59375 -0.21875 2.59375 -0.375 C 2.59375 -0.4375 2.59375 -0.484375 2.609375 -0.53125 Z M 2.21875 -0.65625 C 2.1875 -0.59375 2.1875 -0.578125 2.109375 -0.484375 C 1.921875 -0.265625 1.65625 -0.109375 1.40625 -0.109375 C 1.234375 -0.109375 0.96875 -0.203125 0.96875 -0.625 C 0.96875 -0.859375 1.09375 -1.375 1.265625 -1.640625 C 1.453125 -1.90625 1.71875 -2.03125 1.921875 -2.03125 C 2.140625 -2.03125 2.359375 -1.90625 2.4375 -1.59375 Z M 2.21875 -0.65625 "/>
</g>
<g id="glyph-15-1">
<path d="M 0.703125 0.578125 C 0.65625 0.71875 0.65625 0.75 0.4375 0.75 C 0.359375 0.75 0.28125 0.75 0.28125 0.875 C 0.28125 0.9375 0.3125 0.96875 0.359375 0.96875 C 0.421875 0.96875 0.515625 0.953125 0.59375 0.953125 C 0.671875 0.953125 0.765625 0.953125 0.84375 0.953125 C 0.953125 0.953125 1.046875 0.953125 1.140625 0.953125 C 1.21875 0.953125 1.328125 0.96875 1.421875 0.96875 C 1.484375 0.96875 1.546875 0.9375 1.546875 0.828125 C 1.546875 0.75 1.453125 0.75 1.390625 0.75 C 1.21875 0.75 1.109375 0.75 1.109375 0.6875 C 1.109375 0.65625 1.1875 0.34375 1.34375 -0.25 C 1.46875 -0.078125 1.671875 0.0625 1.9375 0.0625 C 2.640625 0.0625 3.34375 -0.640625 3.34375 -1.328125 C 3.34375 -1.828125 2.96875 -2.203125 2.46875 -2.203125 C 2.078125 -2.203125 1.78125 -1.953125 1.671875 -1.859375 C 1.578125 -2.125 1.28125 -2.203125 1.09375 -2.203125 C 0.921875 -2.203125 0.765625 -2.125 0.640625 -1.921875 C 0.515625 -1.71875 0.453125 -1.453125 0.453125 -1.4375 C 0.453125 -1.359375 0.53125 -1.359375 0.5625 -1.359375 C 0.640625 -1.359375 0.65625 -1.390625 0.671875 -1.46875 C 0.734375 -1.671875 0.828125 -2.03125 1.0625 -2.03125 C 1.234375 -2.03125 1.265625 -1.875 1.265625 -1.765625 C 1.265625 -1.703125 1.265625 -1.6875 1.25 -1.640625 Z M 1.65625 -1.484375 C 1.671875 -1.5625 1.671875 -1.578125 1.765625 -1.671875 C 1.953125 -1.890625 2.21875 -2.03125 2.453125 -2.03125 C 2.65625 -2.03125 2.890625 -1.90625 2.890625 -1.53125 C 2.890625 -1.3125 2.78125 -0.828125 2.640625 -0.59375 C 2.421875 -0.21875 2.125 -0.109375 1.9375 -0.109375 C 1.53125 -0.109375 1.421875 -0.515625 1.421875 -0.5625 C 1.421875 -0.578125 1.4375 -0.609375 1.4375 -0.640625 Z M 1.65625 -1.484375 "/>
</g>
<g id="glyph-15-2">
<path d="M 2.984375 -2.015625 C 3 -2.078125 3 -2.09375 3 -2.125 C 3 -2.1875 2.9375 -2.203125 2.921875 -2.203125 C 2.859375 -2.203125 2.625 -2 2.546875 -1.875 C 2.453125 -2.015625 2.265625 -2.203125 1.921875 -2.203125 C 1.234375 -2.203125 0.53125 -1.53125 0.53125 -0.8125 C 0.53125 -0.296875 0.90625 0.0625 1.390625 0.0625 C 1.703125 0.0625 1.953125 -0.09375 2.09375 -0.21875 C 2.015625 0.15625 1.890625 0.609375 1.890625 0.625 C 1.859375 0.703125 1.84375 0.734375 1.53125 0.75 C 1.4375 0.75 1.359375 0.75 1.359375 0.875 C 1.359375 0.90625 1.375 0.96875 1.453125 0.96875 C 1.53125 0.96875 1.640625 0.953125 1.734375 0.953125 C 1.828125 0.953125 1.921875 0.953125 2.03125 0.953125 C 2.125 0.953125 2.21875 0.953125 2.3125 0.953125 C 2.40625 0.953125 2.515625 0.96875 2.609375 0.96875 C 2.6875 0.96875 2.734375 0.9375 2.734375 0.828125 C 2.734375 0.75 2.65625 0.75 2.59375 0.75 C 2.421875 0.75 2.3125 0.75 2.3125 0.6875 C 2.3125 0.671875 2.3125 0.65625 2.34375 0.578125 Z M 2.203125 -0.65625 C 2.1875 -0.578125 2.1875 -0.5625 2.09375 -0.46875 C 1.875 -0.234375 1.609375 -0.109375 1.421875 -0.109375 C 1.25 -0.109375 0.984375 -0.203125 0.984375 -0.625 C 0.984375 -0.828125 1.078125 -1.296875 1.234375 -1.578125 C 1.390625 -1.84375 1.671875 -2.03125 1.921875 -2.03125 C 2.34375 -2.03125 2.4375 -1.625 2.4375 -1.59375 C 2.4375 -1.5625 2.4375 -1.53125 2.421875 -1.515625 Z M 2.203125 -0.65625 "/>
</g>
<g id="glyph-16-0">
<path d="M 1.96875 1.046875 C 1.453125 0.640625 1.28125 0.40625 1.09375 -0.078125 C 0.9375 -0.515625 0.875 -1 0.875 -1.65625 C 0.875 -2.34375 0.953125 -2.875 1.125 -3.28125 C 1.3125 -3.671875 1.515625 -3.90625 1.96875 -4.296875 L 1.921875 -4.390625 C 1.4375 -4.078125 1.234375 -3.90625 1 -3.609375 C 0.546875 -3.046875 0.3125 -2.40625 0.3125 -1.640625 C 0.3125 -0.8125 0.546875 -0.171875 1.125 0.484375 C 1.390625 0.796875 1.5625 0.9375 1.890625 1.15625 Z M 1.96875 1.046875 "/>
</g>
<g id="glyph-16-1">
<path d="M 5.609375 0 L 5.609375 -0.125 C 5.140625 -0.15625 5.046875 -0.25 5.046875 -0.703125 L 5.046875 -3.59375 C 5.046875 -4.0625 5.125 -4.140625 5.609375 -4.171875 L 5.609375 -4.296875 L 4.3125 -4.296875 L 2.875 -1.015625 L 1.375 -4.296875 L 0.09375 -4.296875 L 0.09375 -4.171875 C 0.625 -4.140625 0.703125 -4.0625 0.703125 -3.59375 L 0.703125 -0.953125 C 0.703125 -0.28125 0.625 -0.15625 0.078125 -0.125 L 0.078125 0 L 1.609375 0 L 1.609375 -0.125 C 1.109375 -0.15625 1 -0.296875 1 -0.953125 L 1 -3.578125 L 2.625 0 L 2.71875 0 L 4.375 -3.71875 L 4.375 -0.78125 C 4.375 -0.234375 4.296875 -0.15625 3.796875 -0.125 L 3.796875 0 Z M 5.609375 0 "/>
</g>
<g id="glyph-16-2">
<path d="M 2.046875 0 L 2.046875 -0.125 C 1.515625 -0.140625 1.40625 -0.234375 1.40625 -0.703125 L 1.40625 -3.59375 C 1.40625 -4.0625 1.5 -4.15625 2.046875 -4.171875 L 2.046875 -4.296875 L 0.109375 -4.296875 L 0.109375 -4.171875 C 0.671875 -4.140625 0.75 -4.078125 0.75 -3.59375 L 0.75 -0.703125 C 0.75 -0.21875 0.65625 -0.140625 0.109375 -0.125 L 0.109375 0 Z M 2.046875 0 "/>
</g>
<g id="glyph-16-3">
<path d="M 4.703125 0 L 4.703125 -0.125 C 4.359375 -0.125 4.265625 -0.1875 3.671875 -0.828125 L 2.171875 -2.453125 L 3.40625 -3.671875 C 3.84375 -4.09375 3.953125 -4.140625 4.390625 -4.171875 L 4.390625 -4.296875 L 2.6875 -4.296875 L 2.6875 -4.171875 C 2.765625 -4.171875 2.828125 -4.171875 2.859375 -4.171875 C 3.046875 -4.15625 3.125 -4.109375 3.125 -3.984375 C 3.125 -3.828125 2.984375 -3.640625 2.625 -3.3125 L 1.46875 -2.265625 L 1.46875 -3.59375 C 1.46875 -4.0625 1.546875 -4.140625 2.0625 -4.171875 L 2.0625 -4.296875 L 0.21875 -4.296875 L 0.21875 -4.171875 C 0.734375 -4.140625 0.8125 -4.0625 0.8125 -3.59375 L 0.8125 -0.78125 C 0.8125 -0.234375 0.734375 -0.15625 0.21875 -0.125 L 0.21875 0 L 2.046875 0 L 2.046875 -0.125 C 1.546875 -0.15625 1.46875 -0.234375 1.46875 -0.703125 L 1.46875 -1.921875 L 1.640625 -2.0625 L 2.328125 -1.375 C 2.828125 -0.890625 3.171875 -0.421875 3.171875 -0.265625 C 3.171875 -0.1875 3.078125 -0.140625 2.90625 -0.125 C 2.859375 -0.125 2.796875 -0.125 2.71875 -0.125 L 2.71875 0 Z M 4.703125 0 "/>
</g>
<g id="glyph-16-4">
<path d="M 4.578125 -4.171875 L 4.578125 -4.296875 L 3.078125 -4.296875 L 3.078125 -4.171875 C 3.578125 -4.140625 3.6875 -4 3.6875 -3.34375 L 3.6875 -1.59375 C 3.6875 -1.15625 3.640625 -0.90625 3.53125 -0.703125 C 3.359375 -0.390625 2.9375 -0.1875 2.453125 -0.1875 C 2 -0.1875 1.671875 -0.34375 1.5 -0.65625 C 1.390625 -0.859375 1.34375 -1.109375 1.34375 -1.515625 L 1.34375 -3.59375 C 1.34375 -4.0625 1.40625 -4.140625 1.9375 -4.171875 L 1.9375 -4.296875 L 0.09375 -4.296875 L 0.09375 -4.171875 C 0.609375 -4.140625 0.671875 -4.0625 0.671875 -3.59375 L 0.671875 -1.5625 C 0.671875 -0.4375 1.203125 0.09375 2.3125 0.09375 C 3.015625 0.09375 3.5 -0.140625 3.75 -0.578125 C 3.90625 -0.84375 3.96875 -1.15625 3.96875 -1.65625 L 3.96875 -3.34375 C 3.96875 -4.015625 4.046875 -4.109375 4.578125 -4.171875 Z M 4.578125 -4.171875 "/>
</g>
<g id="glyph-16-5">
<path d="M 1.859375 -1.609375 C 1.859375 -2.4375 1.609375 -3.0625 1.046875 -3.734375 C 0.78125 -4.046875 0.609375 -4.1875 0.265625 -4.390625 L 0.1875 -4.296875 C 0.703125 -3.875 0.890625 -3.65625 1.0625 -3.171875 C 1.21875 -2.734375 1.296875 -2.234375 1.296875 -1.59375 C 1.296875 -0.90625 1.203125 -0.375 1.03125 0.03125 C 0.84375 0.4375 0.65625 0.671875 0.1875 1.046875 L 0.25 1.15625 C 0.734375 0.84375 0.921875 0.671875 1.15625 0.375 C 1.625 -0.1875 1.859375 -0.84375 1.859375 -1.609375 Z M 1.859375 -1.609375 "/>
</g>
</g>
<clipPath id="clip-0">
<path clip-rule="nonzero" d="M 27 2.457031 L 217 2.457031 L 217 115 L 27 115 Z M 27 2.457031 "/>
</clipPath>
<clipPath id="clip-1">
<path clip-rule="nonzero" d="M 27 2.457031 L 216 2.457031 L 216 115 L 27 115 Z M 27 2.457031 "/>
</clipPath>
<clipPath id="clip-2">
<path clip-rule="nonzero" d="M 27 2.457031 L 217 2.457031 L 217 115 L 27 115 Z M 27 2.457031 "/>
</clipPath>
<clipPath id="clip-3">
<path clip-rule="nonzero" d="M 28.011719 113 L 215.84375 113 L 215.84375 113.921875 L 28.011719 113.921875 Z M 28.011719 113 "/>
</clipPath>
<clipPath id="clip-4">
<path clip-rule="nonzero" d="M 28.011719 62 L 215.84375 62 L 215.84375 113.921875 L 28.011719 113.921875 Z M 28.011719 62 "/>
</clipPath>
<clipPath id="clip-5">
<path clip-rule="nonzero" d="M 305 2.457031 L 494 2.457031 L 494 115 L 305 115 Z M 305 2.457031 "/>
</clipPath>
<clipPath id="clip-6">
<path clip-rule="nonzero" d="M 305 2.457031 L 494 2.457031 L 494 115 L 305 115 Z M 305 2.457031 "/>
</clipPath>
<clipPath id="clip-7">
<path clip-rule="nonzero" d="M 305 2.457031 L 494 2.457031 L 494 115 L 305 115 Z M 305 2.457031 "/>
</clipPath>
<clipPath id="clip-8">
<path clip-rule="nonzero" d="M 305.453125 113 L 493.285156 113 L 493.285156 113.921875 L 305.453125 113.921875 Z M 305.453125 113 "/>
</clipPath>
<clipPath id="clip-9">
<path clip-rule="nonzero" d="M 305.453125 13 L 493.285156 13 L 493.285156 113.921875 L 305.453125 113.921875 Z M 305.453125 13 "/>
</clipPath>
</defs>
<g clip-path="url(#clip-0)">
<path fill="none" stroke-width="0.3985" stroke-linecap="butt" stroke-linejoin="miter" stroke="rgb(87.5%, 87.5%, 87.5%)" stroke-opacity="1" stroke-miterlimit="10" d="M -0.00028125 0.001125 L -0.00028125 111.071437 M 26.83175 0.001125 L 26.83175 111.071437 M 53.667688 0.001125 L 53.667688 111.071437 M 80.499719 0.001125 L 80.499719 111.071437 M 107.33175 0.001125 L 107.33175 111.071437 M 134.167687 0.001125 L 134.167687 111.071437 M 160.999719 0.001125 L 160.999719 111.071437 M 187.83175 0.001125 L 187.83175 111.071437 " transform="matrix(1, 0, 0, -1, 28.012, 113.923)"/>
</g>
<path fill="none" stroke-width="0.3985" stroke-linecap="butt" stroke-linejoin="miter" stroke="rgb(87.5%, 87.5%, 87.5%)" stroke-opacity="1" stroke-miterlimit="10" d="M -0.00028125 0.001125 L 187.83175 0.001125 M -0.00028125 29.618312 L 187.83175 29.618312 M -0.00028125 59.239406 L 187.83175 59.239406 M -0.00028125 88.8605 L 187.83175 88.8605 " transform="matrix(1, 0, 0, -1, 28.012, 113.923)"/>
<g clip-path="url(#clip-1)">
<path fill="none" stroke-width="0.19925" stroke-linecap="butt" stroke-linejoin="miter" stroke="rgb(50%, 50%, 50%)" stroke-opacity="1" stroke-miterlimit="10" d="M -0.00028125 0.001125 L -0.00028125 4.251125 M 26.83175 0.001125 L 26.83175 4.251125 M 53.667688 0.001125 L 53.667688 4.251125 M 80.499719 0.001125 L 80.499719 4.251125 M 107.33175 0.001125 L 107.33175 4.251125 M 134.167687 0.001125 L 134.167687 4.251125 M 160.999719 0.001125 L 160.999719 4.251125 M 187.83175 0.001125 L 187.83175 4.251125 M -0.00028125 111.071437 L -0.00028125 106.821437 M 26.83175 111.071437 L 26.83175 106.821437 M 53.667688 111.071437 L 53.667688 106.821437 M 80.499719 111.071437 L 80.499719 106.821437 M 107.33175 111.071437 L 107.33175 106.821437 M 134.167687 111.071437 L 134.167687 106.821437 M 160.999719 111.071437 L 160.999719 106.821437 M 187.83175 111.071437 L 187.83175 106.821437 " transform="matrix(1, 0, 0, -1, 28.012, 113.923)"/>
</g>
<path fill="none" stroke-width="0.19925" stroke-linecap="butt" stroke-linejoin="miter" stroke="rgb(50%, 50%, 50%)" stroke-opacity="1" stroke-miterlimit="10" d="M -0.00028125 0.001125 L 4.253625 0.001125 M -0.00028125 29.618312 L 4.253625 29.618312 M -0.00028125 59.239406 L 4.253625 59.239406 M -0.00028125 88.8605 L 4.253625 88.8605 M 187.83175 0.001125 L 183.58175 0.001125 M 187.83175 29.618312 L 183.58175 29.618312 M 187.83175 59.239406 L 183.58175 59.239406 M 187.83175 88.8605 L 183.58175 88.8605 " transform="matrix(1, 0, 0, -1, 28.012, 113.923)"/>
<g clip-path="url(#clip-2)">
<path fill="none" stroke-width="0.79701" stroke-linecap="butt" stroke-linejoin="miter" stroke="rgb(0%, 0%, 0%)" stroke-opacity="1" stroke-miterlimit="10" d="M -0.00028125 0.001125 L -0.00028125 111.071437 L 187.83175 111.071437 L 187.83175 0.001125 Z M -0.00028125 0.001125 " transform="matrix(1, 0, 0, -1, 28.012, 113.923)"/>
</g>
<g fill="rgb(0%, 0%, 0%)" fill-opacity="1">
<use xlink:href="#glyph-0-0" x="26.026" y="121.811"/>
</g>
<g fill="rgb(0%, 0%, 0%)" fill-opacity="1">
<use xlink:href="#glyph-0-1" x="52.859" y="121.811"/>
</g>
<g fill="rgb(0%, 0%, 0%)" fill-opacity="1">
<use xlink:href="#glyph-0-2" x="79.693" y="121.811"/>
</g>
<g fill="rgb(0%, 0%, 0%)" fill-opacity="1">
<use xlink:href="#glyph-0-3" x="106.526" y="121.811"/>
</g>
<g fill="rgb(0%, 0%, 0%)" fill-opacity="1">
<use xlink:href="#glyph-0-4" x="133.359" y="121.811"/>
</g>
<g fill="rgb(0%, 0%, 0%)" fill-opacity="1">
<use xlink:href="#glyph-0-5" x="158.206" y="121.811"/>
<use xlink:href="#glyph-0-0" x="162.1775" y="121.811"/>
</g>
<g fill="rgb(0%, 0%, 0%)" fill-opacity="1">
<use xlink:href="#glyph-0-5" x="185.04" y="121.811"/>
<use xlink:href="#glyph-0-1" x="189.0115" y="121.811"/>
</g>
<g fill="rgb(0%, 0%, 0%)" fill-opacity="1">
<use xlink:href="#glyph-0-5" x="211.873" y="121.811"/>
<use xlink:href="#glyph-0-2" x="215.8445" y="121.811"/>
</g>
<g fill="rgb(0%, 0%, 0%)" fill-opacity="1">
<use xlink:href="#glyph-0-0" x="20.341" y="116.017"/>
</g>
<g fill="rgb(0%, 0%, 0%)" fill-opacity="1">
<use xlink:href="#glyph-0-1" x="16.369" y="86.398"/>
<use xlink:href="#glyph-0-0" x="20.3405" y="86.398"/>
</g>
<g fill="rgb(0%, 0%, 0%)" fill-opacity="1">
<use xlink:href="#glyph-0-2" x="16.369" y="56.778"/>
<use xlink:href="#glyph-0-0" x="20.3405" y="56.778"/>
</g>
<g fill="rgb(0%, 0%, 0%)" fill-opacity="1">
<use xlink:href="#glyph-0-3" x="16.369" y="27.159"/>
<use xlink:href="#glyph-0-0" x="20.3405" y="27.159"/>
</g>
<g clip-path="url(#clip-3)">
<path fill="none" stroke-width="0.79701" stroke-linecap="butt" stroke-linejoin="miter" stroke="rgb(100%, 54.098511%, 68.199158%)" stroke-opacity="1" stroke-dasharray="2.98883 2.98883" stroke-miterlimit="10" d="M -0.00028125 0.001125 L 187.83175 0.001125 " transform="matrix(1, 0, 0, -1, 28.012, 113.923)"/>
</g>
<g clip-path="url(#clip-4)">
<path fill="none" stroke-width="1.99255" stroke-linecap="butt" stroke-linejoin="miter" stroke="rgb(31.799316%, 51.799011%, 69.799805%)" stroke-opacity="1" stroke-miterlimit="10" d="M -0.00028125 0.001125 L 1.343469 0.590969 L 2.683313 1.184719 L 4.023156 1.774562 L 5.366906 2.3605 L 6.70675 2.946437 L 8.0505 3.524562 L 9.390344 4.098781 L 10.734094 4.665187 L 12.073938 5.223781 L 13.417688 5.778469 L 14.757531 6.321437 L 16.101281 6.856594 L 17.441125 7.380031 L 18.784875 7.899562 L 20.124719 8.403469 L 21.468469 8.899562 L 22.808313 9.383937 L 24.148156 9.8605 L 25.491906 10.321437 L 26.83175 10.774562 L 28.1755 11.215969 L 29.515344 11.64175 L 30.859094 12.059719 L 32.198938 12.465969 L 33.542688 12.8605 L 34.882531 13.239406 L 36.226281 13.6105 L 37.566125 13.969875 L 38.909875 14.317531 L 40.249719 14.653469 L 41.593469 14.977687 L 42.933313 15.290187 L 44.273156 15.594875 L 45.616906 15.883937 L 46.95675 16.165187 L 48.3005 16.438625 L 49.640344 16.696437 L 50.984094 16.946437 L 52.323938 17.188625 L 53.667688 17.419094 L 55.007531 17.64175 L 56.351281 17.852687 L 57.691125 18.055812 L 59.034875 18.251125 L 60.374719 18.438625 L 61.718469 18.614406 L 63.058313 18.786281 L 64.398156 18.946437 L 65.741906 19.102687 L 67.08175 19.251125 L 68.4255 19.39175 L 69.765344 19.524562 L 71.109094 19.653469 L 72.448937 19.774562 L 73.792687 19.89175 L 75.132531 20.001125 L 76.476281 20.106594 L 77.816125 20.20425 L 79.159875 20.298 L 80.499719 20.387844 L 81.843469 20.473781 L 83.183312 20.555812 L 84.523156 20.630031 L 85.866906 20.70425 L 87.20675 20.770656 L 88.5505 20.837062 L 89.890344 20.899562 L 91.234094 20.958156 L 92.573937 21.012844 L 93.917687 21.063625 L 95.257531 21.114406 L 96.601281 21.161281 L 97.941125 21.208156 L 99.284875 21.251125 L 100.624719 21.294094 L 101.968469 21.333156 L 104.648156 21.403469 L 105.991906 21.438625 L 107.33175 21.473781 L 108.6755 21.505031 L 110.015344 21.536281 L 111.359094 21.567531 L 112.698937 21.594875 L 114.042687 21.622219 L 115.382531 21.649562 L 116.726281 21.676906 L 118.066125 21.70425 L 119.409875 21.731594 L 120.749719 21.755031 L 122.093469 21.782375 L 123.433312 21.805812 L 124.773156 21.833156 L 126.116906 21.856594 L 127.45675 21.883937 L 128.8005 21.907375 L 130.140344 21.934719 L 131.484094 21.958156 L 132.823937 21.9855 L 134.167687 22.012844 L 135.507531 22.040187 L 136.851281 22.067531 L 138.191125 22.094875 L 139.534875 22.122219 L 140.874719 22.149562 L 142.218469 22.180812 L 143.558312 22.208156 L 144.898156 22.239406 L 146.241906 22.270656 L 147.58175 22.301906 L 148.9255 22.337062 L 150.265344 22.368312 L 151.609094 22.403469 L 152.948937 22.438625 L 154.292687 22.473781 L 155.632531 22.512844 L 156.976281 22.548 L 158.316125 22.587062 L 159.659875 22.626125 L 160.999719 22.669094 L 162.343469 22.708156 L 165.023156 22.794094 L 166.366906 22.840969 L 167.70675 22.883937 L 169.0505 22.930812 L 170.390344 22.977687 L 171.734094 23.028469 L 173.073937 23.075344 L 174.417687 23.126125 L 175.757531 23.180812 L 177.101281 23.231594 L 178.441125 23.286281 L 179.784875 23.340969 L 181.124719 23.395656 L 182.468469 23.45425 L 185.148156 23.571437 L 186.491906 23.633937 L 187.83175 23.696437 " transform="matrix(1, 0, 0, -1, 28.012, 113.923)"/>
</g>
<g fill="rgb(0%, 0%, 0%)" fill-opacity="1">
<use xlink:href="#glyph-1-0" x="115.416" y="134.079"/>
</g>
<g fill="rgb(0%, 0%, 0%)" fill-opacity="1">
<use xlink:href="#glyph-2-0" x="120.527" y="134.079"/>
<use xlink:href="#glyph-2-1" x="123.0245" y="134.079"/>
<use xlink:href="#glyph-2-2" x="125.942" y="134.079"/>
</g>
<g fill="rgb(0%, 0%, 0%)" fill-opacity="1">
<use xlink:href="#glyph-3-0" x="7.842" y="66.76"/>
</g>
<g fill="rgb(0%, 0%, 0%)" fill-opacity="1">
<use xlink:href="#glyph-4-0" x="7.842" y="60.842"/>
<use xlink:href="#glyph-4-1" x="7.842" y="58.3445"/>
<use xlink:href="#glyph-4-2" x="7.842" y="52.5095"/>
</g>
<path fill-rule="nonzero" fill="rgb(100%, 100%, 100%)" fill-opacity="0.9" d="M 31.96875 27.613281 L 100.714844 27.613281 L 100.714844 5.269531 L 31.96875 5.269531 Z M 31.96875 27.613281 "/>
<path fill="none" stroke-width="0.79701" stroke-linecap="butt" stroke-linejoin="miter" stroke="rgb(100%, 54.098511%, 68.199158%)" stroke-opacity="1" stroke-dasharray="2.98883 2.98883" stroke-miterlimit="10" d="M -0.000875 0.00159375 L 17.006938 0.00159375 " transform="matrix(1, 0, 0, -1, 35.954, 11.443)"/>
<g fill="rgb(0%, 0%, 0%)" fill-opacity="0.9">
<use xlink:href="#glyph-5-0" x="70.009" y="12.055"/>
</g>
<g fill="rgb(0%, 0%, 0%)" fill-opacity="0.9">
<use xlink:href="#glyph-6-0" x="73.808" y="13.275"/>
<use xlink:href="#glyph-6-1" x="77.489181" y="13.275"/>
</g>
<path fill="none" stroke-width="1.99255" stroke-linecap="butt" stroke-linejoin="miter" stroke="rgb(31.799316%, 51.799011%, 69.799805%)" stroke-opacity="1" stroke-miterlimit="10" d="M -0.000875 0.00090625 L 17.006938 0.00090625 " transform="matrix(1, 0, 0, -1, 35.954, 20.622)"/>
<g fill="rgb(0%, 0%, 0%)" fill-opacity="0.9">
<use xlink:href="#glyph-5-0" x="55.95" y="22.054"/>
</g>
<g fill="rgb(0%, 0%, 0%)" fill-opacity="0.9">
<use xlink:href="#glyph-6-2" x="59.749" y="23.137"/>
</g>
<g fill="rgb(0%, 0%, 0%)" fill-opacity="0.9">
<use xlink:href="#glyph-6-1" x="63.201041" y="23.137"/>
</g>
<g fill="rgb(0%, 0%, 0%)" fill-opacity="0.9">
<use xlink:href="#glyph-7-0" x="69.018" y="22.054"/>
<use xlink:href="#glyph-7-1" x="71.1825" y="22.054"/>
<use xlink:href="#glyph-7-2" x="75.518" y="22.054"/>
<use xlink:href="#glyph-7-3" x="78.404" y="22.054"/>
<use xlink:href="#glyph-7-4" x="80.9325" y="22.054"/>
<use xlink:href="#glyph-7-5" x="83.8185" y="22.054"/>
<use xlink:href="#glyph-7-6" x="85.6255" y="22.054"/>
<use xlink:href="#glyph-7-7" x="87.4325" y="22.054"/>
<use xlink:href="#glyph-7-4" x="90.6825" y="22.054"/>
<use xlink:href="#glyph-7-8" x="93.5685" y="22.054"/>
</g>
<g fill="rgb(0%, 0%, 0%)" fill-opacity="1">
<use xlink:href="#glyph-8-0" x="83.889" y="157.576"/>
<use xlink:href="#glyph-8-1" x="87.870082" y="157.576"/>
<use xlink:href="#glyph-8-2" x="93.17819" y="157.576"/>
</g>
<g fill="rgb(0%, 0%, 0%)" fill-opacity="1">
<use xlink:href="#glyph-8-3" x="100.136117" y="157.576"/>
<use xlink:href="#glyph-8-1" x="108.110235" y="157.576"/>
<use xlink:href="#glyph-8-4" x="113.418344" y="157.576"/>
<use xlink:href="#glyph-8-5" x="118.068917" y="157.576"/>
<use xlink:href="#glyph-8-6" x="123.377026" y="157.576"/>
<use xlink:href="#glyph-8-7" x="126.700571" y="157.576"/>
<use xlink:href="#glyph-8-8" x="130.024117" y="157.576"/>
<use xlink:href="#glyph-8-5" x="136.001717" y="157.576"/>
</g>
<g clip-path="url(#clip-5)">
<path fill="none" stroke-width="0.3985" stroke-linecap="butt" stroke-linejoin="miter" stroke="rgb(87.5%, 87.5%, 87.5%)" stroke-opacity="1" stroke-miterlimit="10" d="M 0.001125 0.001125 L 0.001125 111.071437 M 26.833156 0.001125 L 26.833156 111.071437 M 53.665188 0.001125 L 53.665188 111.071437 M 80.501125 0.001125 L 80.501125 111.071437 M 107.333156 0.001125 L 107.333156 111.071437 M 134.165188 0.001125 L 134.165188 111.071437 M 161.001125 0.001125 L 161.001125 111.071437 M 187.833156 0.001125 L 187.833156 111.071437 " transform="matrix(1, 0, 0, -1, 305.452, 113.923)"/>
</g>
<path fill="none" stroke-width="0.3985" stroke-linecap="butt" stroke-linejoin="miter" stroke="rgb(87.5%, 87.5%, 87.5%)" stroke-opacity="1" stroke-miterlimit="10" d="M 0.001125 0.001125 L 187.833156 0.001125 M 0.001125 29.618312 L 187.833156 29.618312 M 0.001125 59.239406 L 187.833156 59.239406 M 0.001125 88.8605 L 187.833156 88.8605 " transform="matrix(1, 0, 0, -1, 305.452, 113.923)"/>
<g clip-path="url(#clip-6)">
<path fill="none" stroke-width="0.19925" stroke-linecap="butt" stroke-linejoin="miter" stroke="rgb(50%, 50%, 50%)" stroke-opacity="1" stroke-miterlimit="10" d="M 0.001125 0.001125 L 0.001125 4.251125 M 26.833156 0.001125 L 26.833156 4.251125 M 53.665188 0.001125 L 53.665188 4.251125 M 80.501125 0.001125 L 80.501125 4.251125 M 107.333156 0.001125 L 107.333156 4.251125 M 134.165188 0.001125 L 134.165188 4.251125 M 161.001125 0.001125 L 161.001125 4.251125 M 187.833156 0.001125 L 187.833156 4.251125 M 0.001125 111.071437 L 0.001125 106.821437 M 26.833156 111.071437 L 26.833156 106.821437 M 53.665188 111.071437 L 53.665188 106.821437 M 80.501125 111.071437 L 80.501125 106.821437 M 107.333156 111.071437 L 107.333156 106.821437 M 134.165188 111.071437 L 134.165188 106.821437 M 161.001125 111.071437 L 161.001125 106.821437 M 187.833156 111.071437 L 187.833156 106.821437 " transform="matrix(1, 0, 0, -1, 305.452, 113.923)"/>
</g>
<path fill="none" stroke-width="0.19925" stroke-linecap="butt" stroke-linejoin="miter" stroke="rgb(50%, 50%, 50%)" stroke-opacity="1" stroke-miterlimit="10" d="M 0.001125 0.001125 L 4.251125 0.001125 M 0.001125 29.618312 L 4.251125 29.618312 M 0.001125 59.239406 L 4.251125 59.239406 M 0.001125 88.8605 L 4.251125 88.8605 M 187.833156 0.001125 L 183.57925 0.001125 M 187.833156 29.618312 L 183.57925 29.618312 M 187.833156 59.239406 L 183.57925 59.239406 M 187.833156 88.8605 L 183.57925 88.8605 " transform="matrix(1, 0, 0, -1, 305.452, 113.923)"/>
<g clip-path="url(#clip-7)">
<path fill="none" stroke-width="0.79701" stroke-linecap="butt" stroke-linejoin="miter" stroke="rgb(0%, 0%, 0%)" stroke-opacity="1" stroke-miterlimit="10" d="M 0.001125 0.001125 L 0.001125 111.071437 L 187.833156 111.071437 L 187.833156 0.001125 Z M 0.001125 0.001125 " transform="matrix(1, 0, 0, -1, 305.452, 113.923)"/>
</g>
<g fill="rgb(0%, 0%, 0%)" fill-opacity="1">
<use xlink:href="#glyph-9-0" x="303.466" y="121.811"/>
</g>
<g fill="rgb(0%, 0%, 0%)" fill-opacity="1">
<use xlink:href="#glyph-9-1" x="330.299" y="121.811"/>
</g>
<g fill="rgb(0%, 0%, 0%)" fill-opacity="1">
<use xlink:href="#glyph-9-2" x="357.133" y="121.811"/>
</g>
<g fill="rgb(0%, 0%, 0%)" fill-opacity="1">
<use xlink:href="#glyph-9-3" x="383.966" y="121.811"/>
</g>
<g fill="rgb(0%, 0%, 0%)" fill-opacity="1">
<use xlink:href="#glyph-9-4" x="410.799" y="121.811"/>
</g>
<g fill="rgb(0%, 0%, 0%)" fill-opacity="1">
<use xlink:href="#glyph-9-5" x="435.646" y="121.811"/>
<use xlink:href="#glyph-9-0" x="439.6175" y="121.811"/>
</g>
<g fill="rgb(0%, 0%, 0%)" fill-opacity="1">
<use xlink:href="#glyph-9-5" x="462.48" y="121.811"/>
<use xlink:href="#glyph-9-1" x="466.4515" y="121.811"/>
</g>
<g fill="rgb(0%, 0%, 0%)" fill-opacity="1">
<use xlink:href="#glyph-9-5" x="489.313" y="121.811"/>
<use xlink:href="#glyph-9-2" x="493.2845" y="121.811"/>
</g>
<g fill="rgb(0%, 0%, 0%)" fill-opacity="1">
<use xlink:href="#glyph-9-0" x="297.781" y="116.017"/>
</g>
<g fill="rgb(0%, 0%, 0%)" fill-opacity="1">
<use xlink:href="#glyph-9-1" x="293.809" y="86.398"/>
<use xlink:href="#glyph-9-0" x="297.7805" y="86.398"/>
</g>
<g fill="rgb(0%, 0%, 0%)" fill-opacity="1">
<use xlink:href="#glyph-9-2" x="293.809" y="56.778"/>
<use xlink:href="#glyph-9-0" x="297.7805" y="56.778"/>
</g>
<g fill="rgb(0%, 0%, 0%)" fill-opacity="1">
<use xlink:href="#glyph-9-3" x="293.809" y="27.159"/>
<use xlink:href="#glyph-9-0" x="297.7805" y="27.159"/>
</g>
<g clip-path="url(#clip-8)">
<path fill="none" stroke-width="0.79701" stroke-linecap="butt" stroke-linejoin="miter" stroke="rgb(100%, 54.098511%, 68.199158%)" stroke-opacity="1" stroke-dasharray="2.98883 2.98883" stroke-miterlimit="10" d="M 0.001125 0.001125 L 187.833156 0.001125 " transform="matrix(1, 0, 0, -1, 305.452, 113.923)"/>
</g>
<g clip-path="url(#clip-9)">
<path fill="none" stroke-width="1.99255" stroke-linecap="butt" stroke-linejoin="miter" stroke="rgb(17.999268%, 68.598938%, 31.399536%)" stroke-opacity="1" stroke-miterlimit="10" d="M 0.001125 0.001125 L 1.340969 0.590969 L 2.684719 1.184719 L 4.024563 1.778469 L 5.368313 2.368312 L 6.708156 2.958156 L 8.051906 3.548 L 10.731594 4.727687 L 12.075344 5.313625 L 13.415188 5.899562 L 14.758938 6.481594 L 16.098781 7.063625 L 17.442531 7.645656 L 18.782375 8.223781 L 20.126125 8.801906 L 21.465969 9.376125 L 22.809719 9.950344 L 24.149563 10.520656 L 25.493313 11.090969 L 26.833156 11.661281 L 28.176906 12.223781 L 29.51675 12.790187 L 30.856594 13.352687 L 32.200344 13.911281 L 33.540188 14.469875 L 34.883938 15.024562 L 36.223781 15.57925 L 37.567531 16.130031 L 38.907375 16.676906 L 40.251125 17.227687 L 41.590969 17.770656 L 42.934719 18.313625 L 44.274563 18.856594 L 45.618313 19.395656 L 46.958156 19.934719 L 48.301906 20.469875 L 49.64175 21.005031 L 50.981594 21.536281 L 52.325344 22.067531 L 53.665188 22.598781 L 55.008938 23.126125 L 56.348781 23.649562 L 57.692531 24.173 L 59.032375 24.696437 L 60.376125 25.219875 L 61.715969 25.739406 L 63.059719 26.258937 L 64.399563 26.774562 L 65.743313 27.290187 L 67.083156 27.805812 L 68.423 28.317531 L 69.76675 28.82925 L 71.106594 29.340969 L 72.450344 29.852687 L 73.790188 30.3605 L 75.133938 30.868312 L 76.473781 31.376125 L 77.817531 31.880031 L 79.157375 32.387844 L 80.501125 32.89175 L 81.840969 33.395656 L 83.184719 33.899562 L 84.524563 34.399562 L 85.868313 34.899562 L 87.208156 35.403469 L 88.548 35.903469 L 89.89175 36.399562 L 91.231594 36.899562 L 92.575344 37.399562 L 93.915188 37.895656 L 95.258938 38.395656 L 96.598781 38.89175 L 97.942531 39.387844 L 99.282375 39.883937 L 100.626125 40.380031 L 101.965969 40.876125 L 103.309719 41.372219 L 104.649563 41.864406 L 105.993313 42.3605 L 107.333156 42.856594 L 108.673 43.348781 L 110.01675 43.844875 L 111.356594 44.337062 L 112.700344 44.833156 L 114.040188 45.325344 L 115.383938 45.817531 L 116.723781 46.313625 L 118.067531 46.805812 L 119.407375 47.298 L 120.751125 47.794094 L 122.090969 48.286281 L 123.434719 48.778469 L 124.774563 49.270656 L 126.118313 49.76675 L 128.798 50.751125 L 130.14175 51.243312 L 131.481594 51.739406 L 132.825344 52.231594 L 134.165188 52.723781 L 135.508938 53.215969 L 136.848781 53.712062 L 138.192531 54.20425 L 139.532375 54.696437 L 140.876125 55.192531 L 142.215969 55.684719 L 143.559719 56.180812 L 144.899563 56.673 L 146.243313 57.169094 L 147.583156 57.661281 L 148.923 58.157375 L 150.26675 58.653469 L 151.606594 59.145656 L 152.950344 59.64175 L 154.290188 60.137844 L 155.633938 60.630031 L 156.973781 61.126125 L 158.317531 61.622219 L 159.657375 62.118312 L 161.001125 62.614406 L 162.340969 63.1105 L 163.684719 63.606594 L 165.024563 64.102687 L 166.368313 64.598781 L 169.048 65.590969 L 170.39175 66.090969 L 171.731594 66.587062 L 173.075344 67.083156 L 174.415188 67.57925 L 175.758938 68.07925 L 177.098781 68.575344 L 178.442531 69.075344 L 179.782375 69.575344 L 181.126125 70.071437 L 182.465969 70.571437 L 183.809719 71.071437 L 185.149563 71.567531 L 186.493313 72.067531 L 187.833156 72.567531 " transform="matrix(1, 0, 0, -1, 305.452, 113.923)"/>
</g>
<g fill="rgb(0%, 0%, 0%)" fill-opacity="1">
<use xlink:href="#glyph-10-0" x="392.856" y="134.079"/>
</g>
<g fill="rgb(0%, 0%, 0%)" fill-opacity="1">
<use xlink:href="#glyph-11-0" x="397.967" y="134.079"/>
<use xlink:href="#glyph-11-1" x="400.4645" y="134.079"/>
<use xlink:href="#glyph-11-2" x="403.382" y="134.079"/>
</g>
<g fill="rgb(0%, 0%, 0%)" fill-opacity="1">
<use xlink:href="#glyph-12-0" x="285.282" y="66.76"/>
</g>
<g fill="rgb(0%, 0%, 0%)" fill-opacity="1">
<use xlink:href="#glyph-13-0" x="285.282" y="60.842"/>
<use xlink:href="#glyph-13-1" x="285.282" y="58.3445"/>
<use xlink:href="#glyph-13-2" x="285.282" y="52.5095"/>
</g>
<path fill-rule="nonzero" fill="rgb(100%, 100%, 100%)" fill-opacity="0.9" d="M 309.410156 27.570312 L 373.097656 27.570312 L 373.097656 5.269531 L 309.410156 5.269531 Z M 309.410156 27.570312 "/>
<path fill="none" stroke-width="0.79701" stroke-linecap="butt" stroke-linejoin="miter" stroke="rgb(100%, 54.098511%, 68.199158%)" stroke-opacity="1" stroke-dasharray="2.98883 2.98883" stroke-miterlimit="10" d="M 0.00053125 0.00159375 L 17.008344 0.00159375 " transform="matrix(1, 0, 0, -1, 313.394, 11.443)"/>
<g fill="rgb(0%, 0%, 0%)" fill-opacity="0.9">
<use xlink:href="#glyph-14-0" x="344.921" y="12.055"/>
</g>
<g fill="rgb(0%, 0%, 0%)" fill-opacity="0.9">
<use xlink:href="#glyph-15-0" x="348.72" y="13.275"/>
<use xlink:href="#glyph-15-1" x="352.401181" y="13.275"/>
</g>
<path fill="none" stroke-width="1.99255" stroke-linecap="butt" stroke-linejoin="miter" stroke="rgb(17.999268%, 68.598938%, 31.399536%)" stroke-opacity="1" stroke-miterlimit="10" d="M 0.00053125 0.00134375 L 17.008344 0.00134375 " transform="matrix(1, 0, 0, -1, 313.394, 20.599)"/>
<g fill="rgb(0%, 0%, 0%)" fill-opacity="0.9">
<use xlink:href="#glyph-14-0" x="333.391" y="22.009"/>
</g>
<g fill="rgb(0%, 0%, 0%)" fill-opacity="0.9">
<use xlink:href="#glyph-15-2" x="337.19" y="23.092"/>
</g>
<g fill="rgb(0%, 0%, 0%)" fill-opacity="0.9">
<use xlink:href="#glyph-15-1" x="340.642041" y="23.092"/>
</g>
<g fill="rgb(0%, 0%, 0%)" fill-opacity="0.9">
<use xlink:href="#glyph-16-0" x="346.459" y="22.009"/>
<use xlink:href="#glyph-16-1" x="348.6235" y="22.009"/>
<use xlink:href="#glyph-16-2" x="354.402" y="22.009"/>
<use xlink:href="#glyph-16-3" x="356.5665" y="22.009"/>
<use xlink:href="#glyph-16-4" x="361.2595" y="22.009"/>
<use xlink:href="#glyph-16-5" x="365.9525" y="22.009"/>
</g>
<g fill="rgb(0%, 0%, 0%)" fill-opacity="1">
<use xlink:href="#glyph-8-0" x="365.645" y="157.576"/>
<use xlink:href="#glyph-8-9" x="369.626082" y="157.576"/>
<use xlink:href="#glyph-8-2" x="375.603682" y="157.576"/>
</g>
<g fill="rgb(0%, 0%, 0%)" fill-opacity="1">
<use xlink:href="#glyph-8-10" x="382.573563" y="157.576"/>
<use xlink:href="#glyph-8-11" x="393.201736" y="157.576"/>
<use xlink:href="#glyph-8-12" x="397.182818" y="157.576"/>
<use xlink:href="#glyph-8-13" x="405.814472" y="157.576"/>
</g>
</svg>
