<?xml version="1.0" encoding="UTF-8"?>
<svg xmlns="http://www.w3.org/2000/svg" xmlns:xlink="http://www.w3.org/1999/xlink" width="595.28pt" height="841.89pt" viewBox="0 0 595.28 841.89">
<path fill-rule="nonzero" fill="rgb(94.898987%, 96.099854%, 97.999573%)" fill-opacity="1" d="M 153.070312 462.566406 L 153.070312 390.28125 L 442.210938 390.28125 L 442.210938 462.566406 Z M 153.070312 462.566406 "/>
<path fill="none" stroke-width="1.19553" stroke-linecap="butt" stroke-linejoin="miter" stroke="rgb(31.799316%, 51.799011%, 69.799805%)" stroke-opacity="1" stroke-miterlimit="10" d="M 0.0003125 -36.142406 L 289.140938 -36.142406 " transform="matrix(1, 0, 0, -1, 153.07, 426.424)"/>
<path fill="none" stroke-width="1.19553" stroke-linecap="butt" stroke-linejoin="miter" stroke="rgb(31.799316%, 51.799011%, 69.799805%)" stroke-opacity="1" stroke-miterlimit="10" d="M 0.0003125 36.14275 L 289.140938 36.14275 " transform="matrix(1, 0, 0, -1, 153.07, 426.424)"/>
<path fill="none" stroke-width="0.3985" stroke-linecap="butt" stroke-linejoin="miter" stroke="rgb(31.799316%, 51.799011%, 69.799805%)" stroke-opacity="1" stroke-dasharray="2.98883 2.98883" stroke-miterlimit="10" d="M 0.0003125 -0.00178125 L 289.140938 -0.00178125 " transform="matrix(1, 0, 0, -1, 153.07, 426.424)"/>
<path fill-rule="nonzero" fill="rgb(100%, 82.351685%, 54.902649%)" fill-opacity="1" stroke-width="0.79701" stroke-linecap="butt" stroke-linejoin="miter" stroke="rgb(90.194702%, 39.216614%, 39.216614%)" stroke-opacity="1" stroke-miterlimit="10" d="M 108.426094 12.049 L 108.426094 24.095875 L 127.703438 24.095875 L 127.703438 12.049 Z M 108.426094 12.049 " transform="matrix(1, 0, 0, -1, 153.07, 426.424)"/>
<path fill-rule="nonzero" fill="rgb(100%, 82.351685%, 54.902649%)" fill-opacity="1" stroke-width="0.79701" stroke-linecap="butt" stroke-linejoin="miter" stroke="rgb(90.194702%, 39.216614%, 39.216614%)" stroke-opacity="1" stroke-miterlimit="10" d="M 139.750313 -21.685375 L 139.750313 -9.6385 L 159.027656 -9.6385 L 159.027656 -21.685375 Z M 139.750313 -21.685375 " transform="matrix(1, 0, 0, -1, 153.07, 426.424)"/>
<path fill-rule="nonzero" fill="rgb(100%, 82.351685%, 54.902649%)" fill-opacity="1" stroke-width="0.79701" stroke-linecap="butt" stroke-linejoin="miter" stroke="rgb(90.194702%, 39.216614%, 39.216614%)" stroke-opacity="1" stroke-miterlimit="10" d="M 180.71125 4.818531 L 180.71125 16.865406 L 199.988594 16.865406 L 199.988594 4.818531 Z M 180.71125 4.818531 " transform="matrix(1, 0, 0, -1, 153.07, 426.424)"/>
<path fill-rule="nonzero" fill="rgb(100%, 82.351685%, 54.902649%)" fill-opacity="1" stroke-width="0.79701" stroke-linecap="butt" stroke-linejoin="miter" stroke="rgb(90.194702%, 39.216614%, 39.216614%)" stroke-opacity="1" stroke-miterlimit="10" d="M 72.285469 -16.865063 L 72.285469 -4.818188 L 91.562813 -4.818188 L 91.562813 -16.865063 Z M 72.285469 -16.865063 " transform="matrix(1, 0, 0, -1, 153.07, 426.424)"/>
<path fill-rule="nonzero" fill="rgb(93.136597%, 57.450867%, 57.450867%)" fill-opacity="1" stroke-width="0.79701" stroke-linecap="butt" stroke-linejoin="miter" stroke="rgb(90.194702%, 39.216614%, 39.216614%)" stroke-opacity="1" stroke-miterlimit="10" d="M 228.902656 2.408375 L 228.902656 16.865406 L 243.359688 16.865406 L 243.359688 2.408375 Z M 228.902656 2.408375 " transform="matrix(1, 0, 0, -1, 153.07, 426.424)"/>
<path fill-rule="nonzero" fill="rgb(93.136597%, 57.450867%, 57.450867%)" fill-opacity="1" stroke-width="0.79701" stroke-linecap="butt" stroke-linejoin="miter" stroke="rgb(90.194702%, 39.216614%, 39.216614%)" stroke-opacity="1" stroke-miterlimit="10" d="M 228.902656 -16.865063 L 228.902656 -2.408031 L 243.359688 -2.408031 L 243.359688 -16.865063 Z M 228.902656 -16.865063 " transform="matrix(1, 0, 0, -1, 153.07, 426.424)"/>
<path fill="none" stroke-width="1.19553" stroke-linecap="butt" stroke-linejoin="miter" stroke="rgb(83.499146%, 32.199097%, 46.299744%)" stroke-opacity="1" stroke-miterlimit="10" d="M 7.226875 -0.00178125 C 7.226875 -0.00178125 37.4925 -4.052563 48.191719 -7.228344 C 58.887031 -10.404125 74.301094 -23.224438 84.332344 -22.8885 C 94.363594 -22.556469 110.445625 -11.16975 120.472969 -4.818188 C 130.504219 1.533375 146.58625 22.888844 156.6175 22.888844 C 166.644844 22.888844 182.730781 1.533375 192.758125 -4.818188 C 202.789375 -11.16975 216.531563 -22.556469 228.902656 -22.8885 C 241.269844 -23.224438 281.910469 -7.228344 281.910469 -7.228344 " transform="matrix(1, 0, 0, -1, 153.07, 426.424)"/>
<path fill-rule="nonzero" fill="rgb(31.765747%, 51.763916%, 69.802856%)" fill-opacity="1" stroke-width="0.3985" stroke-linecap="butt" stroke-linejoin="miter" stroke="rgb(31.765747%, 51.763916%, 69.802856%)" stroke-opacity="1" stroke-miterlimit="10" d="M 7.226875 -4.818188 L 7.226875 4.818531 L 21.683906 4.818531 L 21.683906 -4.818188 Z M 7.226875 -4.818188 " transform="matrix(1, 0, 0, -1, 153.07, 426.424)"/>
<path fill-rule="nonzero" fill="rgb(83.499146%, 32.199097%, 46.299744%)" fill-opacity="1" d="M 437.519531 433.652344 C 437.519531 432.25 436.382812 431.113281 434.980469 431.113281 C 433.578125 431.113281 432.441406 432.25 432.441406 433.652344 C 432.441406 435.054688 433.578125 436.191406 434.980469 436.191406 C 436.382812 436.191406 437.519531 435.054688 437.519531 433.652344 Z M 437.519531 433.652344 "/>
</svg>
